<svg id="Vrstva_1" xmlns="http://www.w3.org/2000/svg" viewBox="0 0 198.8 128.2"><style>.st0{fill-rule:evenodd;clip-rule:evenodd;fill:#af2324}</style><path class="st0" d="M54.1 4c.2.3 0 .4.5.4h.4c.8-.4.3 0 .5-.5h-.9c-.2 0-.5.1-.5.1zM96.6 20.6l1.6.5c0 1.3-1 1.8.5 1.8 0-.6-.6-1.6 0-1.6.9 0 7.9 3.2 9.7 3.6-.2-.7-4.1-2.5-5-2.9-1-.4-4.9-2.3-5.6-2.3h-.7c-.6 0-.5.3-.5.9zM102.9 17.9c0 .6 7 3.5 8.1 4.6 1.1 1.1 2.3 1.6 3.7 2.8.3.3 3.5 2.8 3.6 2.8-.6-2.1-12.3-11-15.1-11-.1.7-.3.6-.3.8zM97.9 27.7c2.9-.1 5.3 1.4 7.3 1.4-.9-1.2-5.6-2.3-7.9-2.5l.6 1.1zM161 38.2c.6-.2 3.2-2.3 3.8-2.8.8-.7 3.3-1.7 4.5-2.2 1.5-.7 3.1-1.3 4.8-1.9.8-.3 1.7-.5 2.5-.8 1.2-.3 2.4.2 2.4-1l-1.3-.4c-1.1.5-3.6.8-4.9 1.4-1.5.7-2.8 1.3-4.4 2.1-2.2 1.3-6.1 3.7-7.4 5.6zM63.5 27.1l-3.6.4c.2.9 1.4.3 2.5 1.1 1.6 0 3.6.3 4.8.7.8.3 1.4.2 2.3.5.3.1 2 .9 2 .9.3 0 .5-.1.5-.4 0-.7-1.3-1.4-1.9-1.7-1-.6-1.1-1.1-2.6-1.1-.7-.5-1.9-.7-3.1-.7H64c-.1-.1-.4.1-.5.3zM63.5 32.1c-.7 0-1.6 0-1.6.7 0 1.2 3.6 2.9 5.2 2.9 1.1 0 2.7 0 2.7-1.3-1.5 0-2.3.6-1.4-1.3.5.3 1.1.9 1.8.9h.7v-.7c-1.4-.3-2.5-2.2-4.5-2.2-.8.1-2.5.7-2.9 1zM163.9 40.2c1.4-.3 3-1.3 4.6-1.9 1.6-.6 3-1.3 4.6-1.8 3.2-1 7-2 11.1-2 0-.6-.3-1.1-.9-1.1h-.7c-3.8 0-7.4 1.4-10.2 2.6-1.9.8-7.7 3-8.5 4.2zM115.1 22.6c0 .1 4.3 3.9 4.7 4.3.8.7 3.8 4.6 4.5 4.7 0 .6 1.6 2.6 2 3 .8.8 1 2.4 1.9 3.1 0-1.9-4.1-7.6-5.3-8.8-1.1-1.1-5.9-6.9-7.2-6.9-.2 0-.6.4-.6.6zM103.1 36.4c0 .5.3.5.5.7l5.1.6.5.4c1.5 0 2.3.1 3.6.2 1.1.1 1.9.6 3.1.7-.2-.7-1.8-.9-2.5-1.1-.9-.3-2-.5-3-.8-1.4-.4-4.8-1-6.4-1h-.4c-.3 0-.5.1-.5.3zM166.8 43.1l4.9-1.1c.8-.6 7-1.4 8.6-1.4h4.2c3.5 0 1.9-1.1.9-1.1h-4.1c-3.1 0-13.5 2.3-14.5 3.6zM102.9 40.8l-.4.7 1.1.4 3.4-.1c2.7-.1 3.9-.1 6.3.2 1.1.1 2.1.5 2.9.6 1.1.1 2.1.1 3.1.4-.2-.7-1.3-.7-2.2-.7l-.5-.4h-.6l-.5-.3-8.8-1h-.2c-.5 0-.4 0-.7.2l-.3-.1-2.6.1zM138.5 42.6c0 .6.3.5.7.7l.7-.4c-.1-.3-.4-.9-.7-.9-.3 0-.7.3-.7.6zM71.9 42.9c0 .6 1.4 1 2 1.1l.6-.2-.4-1c-.9-.1-.7-.4-1.4-.4-.4 0-.8.3-.8.5zM148.2 45.8c1.1-.7 3.3-3.6 4.4-4.8.8-.9 1.3-1.6 2.3-2.4 1.2-.8 1.4-1.5 2.3-2.3.5-.5 2.1-1.3 2.8-1.8 1.1-.8 1.4-1.2 2.7-2 1-.6 5.2-2.6 6.5-2.9 0-.5-.1-.9-.7-.9-1.4 0-2.4.8-3.2 1.5-.7.6-2.2.9-3.2 1.5-1.7.9-3.9 2.8-5.2 4.1-.5.5-1.9 1.8-2.5 2.2-.8.6-1.5 1.6-2.3 2.4-1.2 1.2-1.1 1.3-2 2.7-.5.8-1.8 1.4-1.9 2.7zM105 45.3c0 1.1 4.8.1 5.4-.1l2.5.3c1.6.2 2.5-.3 4.7.2 1.2.3 4 .1 4.9.5l.7-.1v-.4c-.3 0-3.8-.6-4.3-.7-1.2-.2-3.9-.2-4.7-.5-1.3-.4-9.2-.5-9.2.8zM26 46.3c0 .2.4.5.5.5.1 0 .4-.2.5-.4 0 0-.2-.4-.4-.4-.3 0-.6.1-.6.3zM162.1 48.5c1.4 0 4.1-1.1 5.6-1.2 2.2-.3 3.6-.9 5.9-.9 2.2 0 4.3-.1 6.1 0 .8 0 2.1.4 3.1.4s2.9.4 2.9-.4c0-.9-3.2-1.1-4.3-1h-2.7c-1.8 0-3 .2-4.7.2-1.8 0-2.9.5-4.3.7-1.8.1-6.7 1.4-7.6 2.2zM131.3 47.2h.4v-.3h-.4v.3zM28 46.7v.5c.5.1.3.2.7.2.2 0 .5-.4.5-.5.1-.6-1.2-1.1-1.2-.2zM70.1 47.2l4.1.2h1.3l1.6-.2c-.2.3-.9 1.3-1.4 1.3h-3.2c-.4 0-2.2-1-2.4-1.3zm1.6-1.3c-2.2.4-2.6-.5-3.9-.5-.3 0-.4.2-.4.5v.2c0 .7 1.7 1.4 2.4 2.1.8.9 1.2 2 2.5 2v.4c2.1 0 3.4 0 4.3-1.3.4-.5 2.4-2.7 2.4-3 0-.9-.7-.3-1.3-.4l-2-.2-.2.6c-1.7-.4-1.4-.7-3.8-.4zM139.8 50.5c1.2-.3 2.6-3.6 3.5-4.6 1.3-1.5 2.4-3 3.6-4.5 1-1.2 2.9-3 4.1-4 .7-.6 4.4-2.9 4.4-3.7V33h-.7c-1.3 0-7.4 6.4-8.4 7.6-.5.6-1.3 1.6-1.7 2.3-.6.9-1.3 1.6-1.8 2.3-.4.6-1 1.9-1.3 2.7-.3.3-1.5 2.2-1.7 2.6zM98.6 50.5h.5v-.6h-.5v.6zM166.4 51.2l-.5.4c-1.9 0-4.2 1.2-5.8 1.8-.8.3-1.6.7-2.7 1.1-.7.3-2.2.7-2.4 1.4.1 0 6.6-2.5 7.3-2.8 2.2-.9 5.7-1.2 8.4-1.7 1.3-.2 3.3-.3 4.6-.4 1.7-.1 3 .4 4.7.4 1.9 0 2.8.2 4.7.4 1.4.1 2.8.7 4.3.7l.5-.4c-.7-1.1-4.9-1.9-5.9-1.5l-3.2-.3-2 .1-2.5-.1h-1.8l-7.7.9zM92.8 52.6l.4 1.1c.4-.1.5 0 .5-.5V53c0-.3-.1-.5-.4-.5-.2 0-.5.1-.5.1zM40.4 54.4l.6-.3-.6-.2v.5zM100.4 54.8c.4 0 .9.1.9-.4 0-.6-.3-.5-.9-.5v.9zM43.7 51.7c0 1.4-2 2.5-2.2 4h.4c.3-1 1.1-1 1.7-1.7.1-.1 1.2-2.4 1.2-2.4v-.2c0-.7-1.7-2.5-2.9-2.5.4.6 1.8 1.4 1.8 2.8zM78.6 56.1l-.6 1.6.4 1.8c1.1-.3.2-.8.6-1.9.1-.2.7-1.1 1-1.5.8 0 1.8 0 2-.7-2-.1-2.2.3-3.4.7zM114.6 55.3c0 .6.7.9 1.3.9h.5c.6 0 .7-.7 1.1-.7.4 0-.1.3.9.3l.2-.5-.1-1.4c-.4-.7-1.3-.8-2.3-.5-.3.1-1.6 1.8-1.6 1.9zM125.6 55.7c0 .4.3.7.7.7h.4c.1-.2.4-.6.4-.9 0-.2-.4-.5-.7-.5-.5 0-.8.3-.8.7zM17.6 56.4c0 .2.2.4.4.4.3 0 .5-.1.5-.4 0-.2-.2-.4-.4-.4-.3.1-.5.2-.5.4zM104.1 56.2v.2c0 .8.5.4 1.1.4v-.5c0-.4-.1-.5-.5-.5-.4-.1-.6 0-.6.4zM52.3 56.6c0 .3.1.5.4.5.4 0 .4-.5.4-.9-.4.1-.8 0-.8.4z"/><path class="st0" d="M171.1 53.9l-.5.4c-.9 0-1.2-.1-1.4.5l3.6-.5h5c2.6 0 5 .5 7.3 1 1.5.3 5.9 1.9 6.6 1.9h1.4v-.7c-1.5-.8-7.9-2.3-10.1-2.5-1.9-.2-4-.2-6.1-.2-1.1 0-2.1-.3-2.9-.2-1.1.1-1.2.3-2.9.3zM124.5 57.1c0 .2.2.4.4.4s.4-.2.4-.4-.2-.4-.4-.4c-.2.1-.4.3-.4.4zM95.5 54.1v.2c0 .2-1.2 2.1-1.4 2.3v1.3c.2-.2 2.7-3.5 2.7-3.6v-.2c0-.9-1.3-2.3-2-2.5.1 1 .7 1.2.7 2.5zM66.9 56.8c.4.6 2.5 1.6 3.6 1.6h.5c-.2-.7-.1-.5-1.1-.5l-3-1.1zM18.3 58.4l.2.7.5.2c.2-.3.5-.8.5-1.1 0-.3-.1-.5-.4-.5-.4 0-.6.4-.8.7zM145.4 59.1l.6-.1-.6-.4v.5zM31.4 55.7v1.1c0 1 1.2 2.5 2 2.7-.1-.3-1.3-2.2-1.3-2.3 0-.7.5-1.2.5-2.5V54c0-.6-1.3-3.4-1.6-3.8 0 1.1.6 1.7.7 2.7.4 2.1-.3 1.6-.3 2.8zM37.5 53c0 .3 1.4 3.3 1.4 3.6v.7c0 1-.4 1-.4 2.2.4-.3 1.3-2.3 1.3-2.7 0-1.5-1.3-3-1.3-4v-.2c0-1 .3-1.3.4-2.2-.5.2-1.4 2-1.4 2.6zM102.2 58.9c0 .3.3.7.5.7.3 0 .7-.3.7-.5 0-.4-.3-.7-.7-.7-.4 0-.5.1-.5.5zM34.7 55.7c0 .7 0 .5-.2.9.1.4.2.5.2 1.1v.3c0 .5-.1.4-.5.6l-.6 1.8c1.2 0 2-1.2 2-2.2v-.4c0-.4-.4-2.4-.5-2.9h-.4v.8zM99.1 59.7v.2c0 .6.5.6 1.1.7.4-.2.9-.7.9-1.3 0-.2-.5-.7-.9-.7h-.4c-.5 0-.7.5-.7 1.1zM142.8 60.6l.8-.2c-.1-.8-.1-.7-.9-.7l.1.9zM112.4 61.1h.6v-.4h-.6v.4zM156.5 60c.4.6 1.3 1.4 2.3 1.4.1-.5.2-.3.2-.7 0-.5-1.5-.9-2.2-.9l-.3.2zM14.7 60.9c-1.2 0-1.3.4-1.8.4s-.7-.1-1.1-.2c-.2.1-.7.2-.7.5 0 .1.2.4.4.3l6.3-1 .1.2.3-.4c.2.1.2.2.5.2h.7c-.1-.4 0-.5-.5-.5h-3.2c-.5 0-.7.3-1 .5zM37.9 62.2l.7.1.2-.1-.4-.9h-.7l.2.9zM89.6 62.7V62c0-.9-.2-1.4-.9-1.6l.2 1.6c.1.6.1.8.2 1.3.3-.1.5-.1.5-.6zM137.1 62.4v.3l1.4-.2v-.3l-1.4.2zM53.7 62.9v-1.1c0-.9-.6-2.2-1.4-2.3.1.9.6 3.2 1.4 3.4zM10.7 64.5c.5.7 2.5-.4 3.6-.5v-.5l.9-.1-.2-.4 1.9.2-.6-.6-1.8-.2c-.6.3-1.4.5-1.8 1.1-.5.5.3.4-.7.7-.5.1-.8.1-1.3.3zM197.2 63.3c.7 0 .1-.9-.2-1.2-.4-.3-1.1-.5-1.6-.7-1.4-.6-1.8-.7-3.5-1-2.4-.5-4.2-1.7-7.3-1.7.7.5 5.2 1.6 6.5 2.2.5.1 5.9 2.4 6.1 2.4zM115.7 64.9c-.6.2-.5 0-.5.7h.5v-.7zM168.9 66.7c1.3 0 4.9.4 5.2-.9h-.5c-1.2 0-4.1.4-4.7.9zM66.3 62.2c0 .5 0 .4-.2.7.6 1.2.7 1.7 1.4 2.9.5.8.5.6.9 1.2.7.9-.1 1 .9 1.3 0-2.1-1.8-3.8-1.8-4.5v-.5c0-.9 1.2-1.1 2.2-1.1h.9v-.3l-2.6-.3h-1.6v.6h-.1zM60.2 67.8c0 .4.1.2.2.7.3 0 .7 0 .7-.4 0-.3-.5-.6-.7-.7 0 0-.2.3-.2.4zM197 68.7c.1-.2.4-.6.4-.9 0-.9-5.4-2.7-6.3-3.2-1.5-.9-5-2.3-7.4-2.3.4.3 5.8 2.4 7 2.9 1.1.6 1.9 1.2 3.2 1.7 1.2.4 2 1.5 3.1 1.8zM180.1 69.6c0 .2.2.4.4.4.3 0 .5-.1.5-.4 0-.3-.1-.5-.4-.5-.1-.1-.5.3-.5.5zM84.2 56.6l-.3-.9h-.3c0 2-1.1 1.8-1.8 2.9l-.1 1.1c.1.7.2 1.6.3 2.3.1.9.5 1.2.5 2 0 3.9-2.1 4.8-2.5 6.7.8-.1 1.5-1.4 1.8-1.9.4-.8 1.2-1.8 1.4-2.4.3-.8-.1-5.7-.4-6.7l.4-.5v-.7l1-1.9zM180.6 65.6c2 .5 4.9 1.7 6.9 2.3.3.1 3 1.4 3.2 1.5.2.1 2.9 2.2 2.9 1 0-1.2-4.5-2.9-5.7-3.3-1.6-.5-5.6-2-7.2-2v.5h-.1zM71.9 70.5h-.4c.1 1 .5 1.9 1.6 2 0-1.4-.9-1.4-1.2-2zM75.3 68.5c0-.9 1.4-4.1 1.6-6.1-1.1.3-1.2 2.2-1.7 3.2-.1.3-1.4 3.5-1.4 3.5 0 2.9 1.5 3.7 3.8 4.3-.4-1.3-2.3-1.9-2.3-3.8v-1.1zM30.9 73.5c-.1-.5-.3-.9-.9-.9h-.5c.1.3 1 .9 1.4.9zM31.2 73.9h1.4c.7 0 .1-.1.6.2l-.2-.6-.5.2c-.2-.2-.3-.4-.7-.4-.4 0-.6.2-.6.6zM33.3 73.8l.6.1-.1-.6-.5.5zM128.1 74.1h.3v-.6h-.3v.6zM34.3 73.6c.2.3 0 .3.5.3s.5.1.9.2c-.1-.9.2-.3-.5-.7l-.9.2zM158.1 74.4h.4v-.3h-.4v.3zM129.5 74.8h.5c.7 0 .8-.1.9-.7-.7 0-1.2.1-1.4.7zM35.7 76c-.2-.6 0-.5-.7-.5.2.7 0 .5.7.5zM169.8 76.2c-1-.9-2.1-1.6-3.6-2 .4.6 2.7 1.9 3.6 2zM39.3 76c0 .4.1.2.2.7.3-.1.7-.2.7-.5s-.1-.5-.4-.5c-.2 0-.5.1-.5.3zM115.7 77c0 .6 0 .6.7.7l.2-.5-.3-.4-.6.2zM44.7 76.9v.4c0 .4.3.7.7.7h.2c.4 0 .5-.1.5-.5 0-.6-.2-1.1-.7-1.1h-.2c-.3 0-.5.1-.5.5zM42.6 78.2l.6-.1-.6-.4v.5zM47.4 77.8l.6.6.1-.8-.7.2zM33.8 76.8h-.5c-.3-.9-.1.1-.8.6l.2.5-.3.4c.2.2.3.5.5.5.9 0 2.1-1.4 2.2-2.3-.6-.2-.5-.4-.7-.4-.4-.1-.6.4-.6.7zM175.2 78.7c0-.9 0-.9-.9-.9.2.8.1.9.9.9zM38.8 79.1l.4-.5h-.6l.2.5zM168.4 79.5c0-.9.2-.7-.5-.9 0 .8-.2.7.5.9zM26.4 79.6l.5.2v.7h-.5v-.9zm-1.3.3l-.1.6.5.2.5-.7-.2.7c.7.2.2.3-.2.9-.1-.1-.4-.4-.5-.4-.8 0 .5 1.2-1.7.7l.8-.5-.2-.8.2-.3.4-.8 1-.4-.5.8zm6-3.8l-.3.1v-.4c-.7.2-.7.2-.7 1h-2l-.2.2-.3 1.4h-.4v-.5c-.5-.1-.3-.2-.7-.2-1.3 0-5.5 4-6.7 4.8-1.1.9-2.1 1.6-3 2.8-.5.8-.4 1.2-1 1.9-.4.6-1 .9-1.1 1.8 1.3 0 1.9-1.8 2.7-2.5.5-.4 2.7-1.7 3.4-2 .7-.3.5-.5 1.6-.9.8-.2 1.2-.5 1.9-.8 1.5-.8 2-1.3 3.3-2.1-.2-.3-.4-.3-.4-.7v-.5h.8v.5h.4c.1-.4 1-1.3 1.4-1.5.3-.2 1.8-1 1.8-1l.4-1.1h.7v-.8l-.8-.1-.8.6zM29.8 80l.2.2c.5-.3.7-.3.9-.9-.8 0-.8.2-1.1.7zM161.9 80.4h.4c.3 0 .5-.1.5-.4 0-2.1-8.5-5.2-10.6-5.9-1.1-.3-2-.6-3.3-.9-1-.2-2.8-.6-3.5-.6-1.4 0-6.7-.3-7.7-.5.2.9 1.6.3 3 .6.8.1 3.1.5 3.7.5 2.6.1 4.9.6 6.8 1.5.9.4 2.1.7 3.1 1.1.9.3 1.6 1 2.7 1.5.7.2 4.7 3.1 4.9 3.1zM152.9 92.2c-.1-1.5-.9-1.8-1.8-2.5-.7-.6-1.9-1.7-2.4-2.1-.8-.6-1.9-1.5-2.7-1.8-.7-.3-2.4-1.3-2.7-1.8l-5-2.8c.7.9 6 3.9 7.5 5.3 1.2 1 2.2 1.9 3.3 3 .7.6 2.9 2.7 3.8 2.7zM112.4 82.3c.4 0 .9.1.9-.4 0-.4-.5-.4-.9-.4v.8zM102.2 81.8v.4c0 .6.3.5.7.7.2-.1.9-.4.9-.7 0-.6-.5-.9-.9-1.1-.4.2-.7.1-.7.7zM108.8 82.9h.6v-.6h-.6v.6zM146.8 91.3c0-1.2-6.8-5.5-8.1-6.3-1.3-.9-8.2-4.9-9.4-5.2.5.8 3.5 2.2 4.6 2.8 1.3.7 3.6 2.4 4.5 2.8 1.2.5 3.2 2.2 4.3 3.1.5.4.6.3 1 .8l1 1c.2.1 2.1 2.2 2.1 1zM78.9 82.2l-.2.9c.8-.1 1.7-1.4 1.8-2.3.7-.2.5-.3.7-1.1-.7.2-1.8 1.8-2.3 2.5zM98.6 83.6c.3 0 .5-.1.5-.4 0-.6-.3-.5-.9-.5 0 .4-.1.9.4.9zM172.5 82.9c0 .3.1.5.4.5.4 0 .3-.4.3-.7l-.5-.2-.2.4zM100.2 84h.7v-.6h-.7v.6zM125.6 84.5v-.9h-.7c0 .8-.1.8.7.9z"/><path class="st0" d="M145 101.1v.9c0 1.4-1.6 4.5-.9 4.5.7 0 2.1-2.3 2.5-2.9l.2-1.1-.1-.3.6-1.8-.2-.1-.3.8h-.4l-.1-.6-.8.6-.1-1.1.2-.7-.2-.5c-.8.2-1.6-.6-2.1-1.3-.2-.3-1.3-2.3-1.3-2.4-.8-.2-1.2-1.7-1.9-2.6-.8-.9-2.1-1.2-2.2-2.3h-.9v-.4h-.5c-.1-.8-2.3-2.5-3.1-2.7.1-.7.3-.9-.5-.5-.9-.6-3.2-1.5-3.4-2.5l-.1.2-1.4-.9.1-.2c.6.2 2.3 1.2 3.1 1.6.7.3 2.6 1.4 2.7 2.1l.9.1c-.3-.9-9.1-5.9-10.9-6l-1.7-.5s6 3.5 6.8 4c2.1 1.4 4.6 2.9 6.3 4.7.9.9 1.8 2 2.7 2.7 1.4 1.2 1.5 1.4 2.7 2.7.6.6 4.3 5.6 4.3 6.5zM171.3 84.1c0 .3.3.7.5.7s.5-.4.5-.5c0-.4-.1-.5-.5-.5-.3 0-.5.1-.5.3zM119.6 86.3c.5-.3.5-.2.5-.9h-.5v.9z"/><path class="st0" d="M125.7 85.9v.2c0 .6 1.3 1 1.3.2v-.2c0-.4-.3-.7-.7-.7-.4 0-.6.1-.6.5z"/><path class="st0" d="M132 99.4l.5-.2.2.7-.7-.2v-.3zm-.1-1.2h.5v.5h-.3l-.2-.5zM90.3 93h.4v.7h-.4V93zm-.4-1.1h.9c-.3.9.4-.2-.4.5-.9-.5-.1 0-.5-.5zm-15.3-4.7h.6l-.3.6-.3-.6zm1.1-.9c1 .1.5.4 1.3 1.1l-.7.2c-.3-.5-.5-.6-.6-1.3zm10.4.7l1.8-.7c-.2.8-1.5 1.8-1.8.7zm-11.7-1.1l-.7.2c-.3-.5-.5-.6-.5-1.3 1 .1.5.4 1.2 1.1zm9.9-2.7l.1.5-.8 1-.7-.2v.5l-1.1-.2.2.5c-.9 0-1.8.7-2.2 1.2l-.6-.2-1.4 1.4-.7-.1v-.5h.4v-.5l.7-.2-.1-.4.7-.4c1.1 0 3.2-1.1 3.6-1.8.5.1.3.2.7.2 0 0 1-.7 1.2-.8zm5.4 1.1c-.2.7-.7.6-1.5.9-.9.3-.7.5-1.5.9-.9.5-2.5 1.2-2.8 2.1l-.5-.2c-.3.2-1.3 1.1-1.6 1.1l-1-.1 1.3-1.5-.2-.2-2.5 1.2.4.7-.5.2v-.8l-.5.2c0-1 .8-1.2 1.6-1.3.1-.8.1-.8.9-.9l.2-.5c1.3.6.7-.2.7 1.4.4-.2.7-.4 1.1-.5 1-.3.4-.3 1.2-.6.9-.4 1.5-.7 2.4-1 .7-.3 3.8-2.3 4.5-2.3.2 0 .4.2.4.4-.1.3-1.6.8-2.1.8zm-5.4-1.1l.7-.6-.1.8-.6-.2zm95.6-2.5c1.5.4.5 2.2 2.2 2.3v1.8c-.9-.1-.8-.5-1.2-1.2-.4-.6-1-.4-1-1.2v-1.7zm-95.7 1.2l.1.6-.6-.1.5-.5zm3.6.4l3.6-.9v.8c-.8.2-.3.4-1.5.7-.8.2-1.1-.1-1.7.2l-.5-.4.1-.4zm5.7.2c.1-.9.7-1.1 1.4-1.3-.2.9-.8.9-1.4 1.3zm-32.2-1.6h.7l-.2.5-.7.2.2-.7zm36.4-.7c.5 0 .5-.1.9-.2-.2.8-1.1.9-1.4.4.4-.3-.2-.2.5-.2zm80.1.9c0-.6.9-1.7 1.4-2-.1.6-.2.6-.2 1.1l.2 2h.3v.5c0 .8.4.7.4 1.4v.7h-.4c-.1-.9-.1-1.7-1.1-1.3 0-1.1.2-1.7-.7-2v-.4h.1zm5-2.5c.3 1 1.3 1.2 2.3 1.4l.6 2.4c-.4-.1-.6-.4-1-.4s-.3.4-.4.7h.4V84l-1.4-.8-.1.7c-.7-.1-1.3-.7-1.3-1.3V82c0-.8.4-.7.4-1.4v-.2c0-.8-.4-.6-.4-1.8h.9zm-3.1 1c.2-.4 1.1-.9 1.6-.9.3 0 .3.3.4.5-.8.2-.3.1-.7.9l-.4-.3-.9-.2zm-39.4-1.1c.6.3.7.3.7 1.2l-1.4-.2-.3-.3.2-.7h.8zm2.4-.2l.1.6-.6-.1.5-.5zm-30.6.6v-.4l3.4.3c1.1.6 3.1.6 3.4 1.7-1.7-.5-3.2-1.3-5.4-1.3l-.4-.3-.5.2-.5-.2zm63.3 5.4c-.1-.8-1.2-2.2-1.7-2.8-.4-.5-1-2.2-1.4-2.9 1 .4 1.4 1.5 2 2.3.8 1 1.4.8 1.4 2.9v.5h-.3zm8.7-6.6c.6 0 2.3-.7 2.9-.7 0 0 1.2.9 2.2.9v.4h-.9c-.6 0-.3.4-.9.4h-.5l1.5 1.8-1.3-.2-3.3-2.2-.1-.2h.4v-.2zM127 78s-.8-.5-.9-.5l.2-.3c.5.2-.2.2.5.2h.5c0 .3.1.6-.3.6zm55.8.6V78l-1-.9c-.1.7.1.6-.6.8l.6-1.5.1.4h.5l.6 1.2.1.6h-.3zm-79.9-1.8l-.2.4c-.8-.4-.4.1-.5-.7.3-.1.7-.1.7.3zm28.6.7c-.1.5-.3.7-.9.7-.1 0-3.1-1.4-3.1-2 0-.2.4-.5.7-.5.2 0 1.1 1.7 3.3 1.8zm-36.2 0c.2-.1 3-1.3 3.1-1.3.2 0 .3.2.4.4h-.4v.5l-1.3.6c.5.4 0 .3.4.3 0 0 1.4-.7 1.6-.7h1.6c.5 0 .5.1.9.2-.3 1-2.5 1.6-3.8 1.6l-1.4.7v.2c-1.1 0-1.3.9-3.6.9l.9-.9c1.4 0 3-1 3.3-2.1-1.2.1-3.2 1.6-4 1.6h-.7l-.1.4-.1-.7c1-.2.6-.4 1.4-.7.7-.3 1 0 1.1-1.1l.7.1zM183 76c0-.1 2.3-1.4 2.7-1.4h.4c.2 0 2.1.9 2.2 1.6-1 0-1.5.4-2.5.4-.7 0-2.8-.1-2.8-.6zm-8.2 0l-.5-.5.6-.1-.1.6zm4.4-.3c-.5-.2-.5-.2-.6.6h-.7l-.4-.9c.4-.8-.1-.9 1.1-.9l.6 1.2zm-4.9-.9c0 .3-.1.3-.2.5l-.9-.5c.3-.4.4-.5 1.1-.5v.5zm-62.2.7c.1-.8 1.3-1.1 2.2-1.1h.5c-.3.8-1.7 1.1-2.7 1.1zm-12.3-.2l.2-.5-.2-.7.6.2-.2.5.6.6-.5.7-.1.4-.5-.2V76h.4l-.3-.7zm-3.8-.9v.6h.4v.4h-.7c-.2 0-3.2 2.1-4.3 2.2L93 75l1.3.6.1-.1-.4-1.2 1.6.3.4-.2zm-32.2-.3c1.8 0 1.8-.6 2.7-.7.6-.1 1.1 0 1.5-.1.8-.2.8-.6 1-.6.5 0 2.9 1.8 3.1 2.5-1.1.3-.2 1-1.2 1.7-1.1.7-.7.2-1.5 1.4l.2.7-.3.4.2.5h-2v-1.2c0-2.4-.4-2.7-1.8-3.6-1-.2-1.6-.4-1.9-1zm112.6-1.4l.3 1.4-1.4.8-.3-1.3 1.4-.9zm-59.3 1.9c1.2-.6 1.4.1 3.2-1.1.6-.4 2.1-1 3.1-1 .1 0 .4.3.5.4l1.4-.2c.3 0 2.9.2 2.9.2 1.6.8.9.4 2.5.4 1.5 0 2.3.1 3.2.7h2.5c1.2 0 .7.2 1.2 1.1 1.3-.3 2.6.5 4.7.5l.4.7 3.4.4c.6 1.1 1.7 1.2 3.4 1.2l.7.4c0 1.4-.5 1.1-.5 2.1v.7c0 .6.4.4.4.7 0 .3-.2.4-.5.4-.5 0-.8-.6-1.1-.9l.2-.7c-.6-.3-2.2-1.6-2.4-1.6-1.3 0 .1 1 .2 1.8h-1.3c-.2-.7-.7-1.6-1.4-1.8v-.4c1.9-.2 1.7 0 1.6-1.3-.4-.1-.4-.2-.9-.2h-.4c-.6 0-.5.3-.7.7l-.9-.1-.4.5c-1.5 0-1.9.6-2.3-1.1l-1.3-.3c.1-.6.2-.4.2-.8 0-.2-.2-.4-.4-.4-.7 0-.3.1-1.1.2v.7l-.7-.1-.8 1.9c-.9-.2-.4-2.3-2.1-2.3-.3 0-.3.3-.4.5h-.5c-.3 0-.3-.1-.5-.2l-.5.4-.5-1.1c-.3-.1-.3-.2-.8-.2h-.2c-.5 0-.4.1-.5.5l-1.3-.5c0-2-2.3-.7-4.1-.7-.6-.4-.7-.7-1.8-.7h-.5v-.4l-1.1.2v.9h-.2v-.5h-.5v.4h-.9c.2.8 2.2 1 3.1 1.4l1.2-1.1.9.7.8-.3-.2 1.5c-.4-.2-.9-.5-1.4-.5h-.9v.4c-1 0-2.2-.1-2.5-.9-1 0-1.6-.1-2-.7l-1.3-.2c-.3.2-.3.3-.7.3h-.2c-.7 0-.9-.2-1.1-.7h1.3c.5-.1.5 0 .8.1zm54.7-2c.7.2.5 0 .5.7-.6-.1-.4 0-.5-.7zm1.3 0h1.1l-.2.7-.9.4v-1.1zm-16-.5v-.4c1.9 0 3.5.7 4.1 2l-4.1-1.6zM96 74.4l.1-.7-1.9-1.6-.1-.4c1.7-.4.8-1.7 2.3-1.8V71c0 .6-.4.3-.4.9 0 .4.9.5 1.3.5.3 0 .1-.4.7-.4h.9v.4h.9V72h.7v.4h.4c-.1.2-.3.6-.5.5l-1.3-.1c.2.4.4.4.4.8s-1.9.5-2.3.5l-.2.5h-.7v-.4H96v.2zm9.2-2.7c.2-.6 1.2-1.4 2-1.4l-1.1 1.4h-.9zm-14.9-2.2l-.3 2.4c-.8.6-.1.8-1 1.1 0-.6.7-2.2 1-2.5l.3-1zm17.7 0l.2.2-.7.4.5-.6zm-16.1-1.2c.2.4.3.5.3.9 0 .6-.5.9-.7 1.4-1-.3-.3-1.1.1-1.5l.3-.8zm8.8 3.2l.2-.5c-.8-.4-2.8-1.2-2.9-2.2.1 0 .7-.2.7-.2 1.1 0 2.3 1.1 2.7 1.1h1.1c-.1 1.6-1.1.8-1.4 2h.7c-.1.3 0 .5-.4.5-.3.1-.5-.5-.7-.7zm11.4 2c2.1-1 9.4-4.9 11.7-4.9v.5c-1.7.1-4.1 2-5.6 2-.3.7-2.8 1.6-4 1.6-.5 1-3.7 2.2-4.1 2l.7-.8.6.3-.2-.6.2-.3.7.2zm-72.9-3.9c-.9 0-3.1-.1-3.1-.9 0-.4 3.8-.3 4.4-.1 1.2.4 2.5 1.1 3.9 1.1h1.1v-.9l.5-.2c.4.2 2 .9 2.5.9h.4c.6 0 .4-.4.7-.4l2.9.3c.6-.1 6.1 5.5 6.1 6s-1.5 1.3-2 1.4c-.9-1.7-4.4-3.7-6.1-4.9h-.7l-.5-.4c-.7 0-5.9-1.3-6.5-1.6-1.6-.4-1.5-.3-3.6-.3zm-8.3-.6v-.4h.4v.4h-.4zm103.8-.2c.7 0 1.1-.5 1.8-.4l1.4.2c-.4.5-1.9.5-2.9.5h-1.3c-.5 0-.3-.1-.5-.4l.9-.1c.6.3-.1.2.6.2zm-49.7-2c1.8 1.1.7 3.8-.7 4.7l.7-4.7zm53.5 1.7v-.4h1.1c2.6 0 9.6 1.8 10.6 1.3l3.6 1v.4c-1.2 0-2.6-.2-3.6-.5-.2-.1-3.5-.5-4-.5-1.6-.2-1.7-.6-4-.5-1.6-.1-2.2-.7-3.7-.8zm-6.5-.6c.2-.7 2.5-1 3.2-1.1 1.3-.1 2.7-.2 4.1-.2h4.3l6.7.5c1.2.8 6.4 2.7 6.7 3.8-.5 0-2.8-.9-3.5-1.1-1.3-.4-2.3-.6-3.8-.9-2.1-.4-6.1-1.2-8.2-1.2l-9.5.2zm-29.3-.7c.6 0 .3-.4.9-.4.7 0 .3.1 1.1.2-.1.7-.9 2.3-1.4 2.3-.1 0-2.4-1.1-2.5-1.6l-1.6-.2v-.3h.7c.7 0 1-.2 1.4-.4.4.3.7.4 1.4.4zM154 67v-.4l2.3.2c.7.1.3.5 1.8.5v.4l-2.7-.6-1.4-.1zm-20.2-.6c-.4.6-4.4 1.1-5.6 1.2v-.5l5.6-.7zm-23.5 6.4c0-.4 6.2-2.8 7.1-3.2 1.2-.5 5.7-3.2 6.8-3.3l-.6.9h-.7c-.6.4-1.4.7-1.8 1-.3.2-1.3 1-1.6 1.1l-.5-.2c-.5.5-3.1 1.6-4 2.2-1.1.7-2.5 1.8-4.3 1.8-.2.1-.4-.1-.4-.3zm23.9-6.1c.2-.9 4-1 4.3-.5l-4.3.5zm-22.3-1c-.1 1-1.8 3.1-2.8 3.1l2.8-3.1zm-20.5.8c0-.8.3-.6.4-1.4h.4c0 1.1-.4.8-.4 1.6 0 .7-.2.9-.7 1.1.2-.8.4-.3.4-.9v-.4h-.1zm2.3 3.2c.8-.2 2.2-1.3 2.5-2 .7-1.3-.5-2.7 1.8-2.7.3 0 .3.3.4.5-.9.4-.3 2.1-1 2.7-.6.5-1.5.6-1.8 1.8l-3 .7c.1-.7.5-.9.5-1.4 0-.5-.6-1.8-.7-2.5l.2-.7c.7-.2 3-1 3 0v.4c-.1 1.5-1.7 2.6-1.9 3.2zm5.4-4.3c0-.9 4.4-1.4 5.8-1.4h.5c.6 0 .7.1 1.3.2-.1 1.1-.9 2-1.6 2.5l-5.2-.8h-.7v-.5h-.1zm27-1.1c1-.2 1-.8 2-.9v.4h-.4v.4c-.7.1-.7 0-.9.5h-.7v-.4zm-18.2 7.1c.4 0 3.1-1.3 4.1-1.6 1.3-.4 2.7-1.4 3.8-2 1.2-.7 2.2-1.9 3.2-2.6.4-.3 3.3-1.8 3.6-1.9-.6 1.7-6.8 5.2-8.7 6.2-1.6.9-3.3 1.7-5 2.5-1.3.6-1.3.7-2.3 1.5-.7.5-1.8.1-2.1 1.5h-.7c-.5 0-.7.2-1.1.4l-.4-.2c-.5.2.1.2-.5.2-.2 0-.4-.2-.4-.4 0-.3.3-.3.5-.4.2-2.1.8-1 1.6-1.1l1.4-.2c.2-.5.5-.5 1.3-.5l1.7-1.4zm-2-2.7l-2.7 1.9-.2-.2 1.5-1.3-.2-.5c1.4-.9 3.1-5.2 3.8-5.2h.7c-.2 1.5-2.4 3.2-2.9 5.3zm-37.8-8.5c1.6 0 2.4.6 3.4 1.3.8.6 2.2.5 2.2 2.3v.2c0 1.1-.5 2.1-1.2 2.6-1.5 1-.3 1.5-2.2 1.5-1.2.8-.9 2.1-1.3 3.6h-2.2c.3-1.2 1.1-1.2 1.1-3.1v-.5c0-2.2-2.9-2.7-2.9-5.8 0-.5 1.5-2.2 2.2-2.2h.9v.1zm86.7 1.5c.1.7.6 1.4-.3 1.4-1.1 0-.8-.6-2-.7V62l1.7.3.6-.6zm26 .3c-.8-.1-1.1-.2-1.3-.9.9.2 1.1.1 1.3.9zm-44.1-2.2c.7-.2.4-.4.9-.4.3 0 .5.1.5.4 0 .7-.6.8-1.1 1.1l-.3-.2v-.9zm18.6-.5c1.1 0 2.4-1.3 2.7-1.3h.5c.2 0 2.5 1.3 2.5 1.4 0 .4-.4.3-.7.4v.4h.5v.4h-.5l-.3.9c0 .6.1 1.1-.6 1.1h-.2c-1.5 0-1.4-.7-2.9-.9-.7-.1-.9-.5-1.5-.5-.6-.1-.8.2-1.6.2l-1.7-.9v1.2h.6v.5H151c-.4 0-.5-.1-.7-.2-.3.1-.3.2-.7.2h-.2c-.4 0-.5-.1-.7-.2-.3.1-.3.2-.7.2-.3 0-.7-.2-.9-.4-.4.1-.6.3-1.1.2l-1.6-.2c.6-.8 4.1-.6 5.4-1.2.7-.4 1.4-.9 2.1-1.1.5-.2 2.2-1.1 2.2-1.1.5 0 .3.9 1.2.9zm-36.9 2c-.2 0-1.3-2.2-1.4-2.5h1.4l1.2 1c0 .9-.2 1.5-1.2 1.5zm54.9-2.9c.3-.1 1.3-.7 1.6-.7.3 0 .6.8.7 1.1l5.2-.2c-.4 1.4-1.4.2-1.4 1.3v.7c-1.1-.1-.2-.7-1.8-.7l.4 1.4c-.7-.2-.5-.3-.8-.3-.1 0-.4.3-.5.4h-1.8c-.6-1-1.1-1.8-2.7-1.8-.3 0-.5.6-.5.9l1.5 1c.7-.2 1.1.6 1.9.6.1 0 .4-.3.5-.4.2.5.2-.1.2.5 0 .3-.2.4-.5.4-1.4 0-2.6-1.6-4.1-1.6-.6 0-.9.9-.9 1.4h-.7c-.5 0-1.4-.3-1.4-.9 0-.3.2-.4.5-.4h.7c-.3-1.1-1.8-.3-1.8-1.1 0-.4.1-.2.2-.7h.9c.4 0 .4-.1.7-.4.3.1.3.2.7.2.1 0 2.1-.9 2.7-1.1l.5.4zm-48.8 5.8c.1-.3 2.9-2.6 3.4-3.1 1.1-1.1 2-2.3 3.3-3-.1.2-2.7 3.3-3 3.5-1.4 1-2.2 1.8-3.7 2.6zm-3.8-5.3c0-.3.1-.3.2-.5l-.2-.7c.2-.1.6-.2.9-.2h.2c.6 0 .8.8 1.1 1.3-.2.5-.1.9-.7.9h-.9c-.3-.8-.6-.3-.6-.8zm-64.3 9.2c0-3.5 3.8-4.6 3.8-5.6v-.7c0-2.1-1.8-2.4-1.8-4.3 1.4.9 3.2 1.8 3.2 4.1 0 2.4-2.8 4.1-3.8 5.9.6 1.2.1 1.5 1.4 2.3 1 .6 1.5.6 2.2 1.6-.6 0-.6.2-1.3.2h-.4c-.3 0-3.4-2.3-3.4-3.1v-.4h.1zm107.9-5.7c-.6 0-1.3-.1-1.3-.7v-.5h.9v-.7h-.5c-.4 0-.5.1-.7.2-.4-.2-1.3-.5-1.3-1.1 0-.8 2.9-.2 2.9-.9 0-.2-.4-.5-.7-.5-.5 0-.9.2-1.3.4.3-.7 1.7-1.2 2.7-1.3v1.1l2.9-.7c.2 0 .5-.2.6-.2.3 0 .6.2 1.1.4v.1l-2.3.4-.4.8h-.3v-.4h-.7l.6.7.1.2c-.8.1-.9.1-1.1.7h.4v.4h-.9v.7c-.2.5-.5.9-.7.9zm-71.1 2.3c.3-1.1.9-2.7 1.2-3.8.4-1.1 1.2-2.3 1.5-3.4h.4c0 .6-.2.6-.2 1.3 0 1.1 1.9 3.3 2 4.7l-1.4.4v-1.2c0-.5.1-.5.2-.9-.9.3-1.3 1.9-1.8 2.7l-1.9.2zm-30.8-2.5v-1.1c0-2.9-3.7-2.7-4-5.2 1.8.1 2.9 1.3 3.9 2 1.1.8 2 2 3.6 2.1v.4c-.7.1-1.5 1.1-1.8 1.6-.6.9-.1 1.7.2 2.4.3.6.8 1.7 1.2 2.2.3.4 1.6 1.6 1.6 1.7 0 .8-.6 1.6-.7 2.3l-1.4.5-.5-.1-1.5.6-1-.3c-.9-1.3-2.5-1.6-2.5-3.6 0-2.8 2.9-3.1 2.9-5.5zm79.5-6.5c-.9 0-.5.2-.9-.4l.9-.2v.6zm-32.5-.4c1 0 .6-.5 1.6-.5l-.4.7h-.9l-.4.7h.8c.5 0 .7-.1 1.1-.2.5.3 1.8.6 1.8 1.3 0 .2-.4.4-.5.5-1.6 0-1.6.7-2.2.7-.6 0-.7-.2-1.1-.4l.2-.9c-.3-.6-.9-1.3-.9-1.4v-.5h.9zm25-1.4c-.1.7.1.6-.5.7-.1.7-1.8 2.7-2.3 2.9.1-1.1 2-2 2.2-3.4l.6-.2zm-85.9 4.9c0-1.9.2-2.2.9-3.4 1-1.7.6-.9 2.2-2 2.1.2 4.9.9 5.6 2.3.1.2 2 5.8 2 5.8l-.2 1.8c-.7.5-3.3 2.5-3.7 3.1l.2 2.5.5 1.4c.7.1 3.4 2.7 4.5 2.7 0 0 2.8-.7 2.9-.7l.4.2c.7-.5.3-.2 1-.4.7-.3.4-.7.8-.7.3 0 .5.4.5.7l-.1-.2-4.6 2.6c-1.2.1-1 .6-1.6.6-.6 0-2.1-2.4-2.5-2.9-.4-.5-2.3-2-2.9-2.5-.4-.3-1.2-.8-1.6-1.1-.9-.5-1.4.1-1-1.3.8-2.5.7-1 .7-3.8 0-2.2-.3-1.3-.5-3.2-.1-.7-.7-2.8-.7-3.2 0-.9 2.1-1.6 2.9-2 .7.4 2 .9 2.2 1.7.2.7 0 1.2.2 1.8.1.6.4.7.5 1.3.7 4-1.2 3.2-1.8 5.2 1.7-.4 2.4-2.3 3.2-3.6 0-1.2-.9-4-1.6-4.5v-.9c-.6-.4-1.1-.8-1.7-1.2-.9-.6-1.5-.2-2.3-.6-2 1-2.9.5-2.9 3.8v.4c0 .2 1.2 3.2 1.4 3.5 1.2 2.1 0 2.6.6 3.9l-.6 2-1.2-.3c.2-.8 1.1-1.7 1.1-2.2V65c0-2.6-2.5-5.2-2.5-6.1v-.1h-.3zM87 66.1l-.4.3 4.2-.1c-.3 3.3-2.6 3-3.6 4.5.5.2-.1.2.5.2h.2c.9 0 .2-.6 1.3-.7-.1.6-.3 2.2-.9 2.2-.6 0-2.3-.5-2.3-1.3 0-.4.1-.4.4-.7 0-1.3.4-1.3.4-2.3v-.4c0-.7-.2-1-.4-1.4-.5-.4-1.8-2.1-1.8-2.9V63c0-.8 1.2-2.2 1.4-3.6.2-1.5.3-3.2-.7-3.9 0 1.5.1 3.2-.4 4.3-.3.7-1 2.8-1 3.7 0 .9 1.1 2.7 1.3 3.4h-.5l-2.8 5.9-.4.1c-1 0-3.6-2.9-3.6-3.8v-2.5c0-1.6 1.4-2 1.4-3.6v-1h-.4v.7c-.8-.2-.3-.4-.9-.4-.3 0-.4.2-.4.5v.4c0 2 .3.7-.3 2.5-.2.6-.6 1.9-.6 2.7v.7c0 1.6 2.3 2.7 2.3 3.4 0 .4-1.5 1.7-1.8 2-1.2 1-1.5.5-3.1.5-.3-1-2.9-3.1-4.1-3.2v-1.4c0-2.1.7-.8 1.9-2.2.7-.8 1.4-1.2 2.1-1.9 2.1-2.3-1.1-5.4-1.1-5.5 0-1 .3-3.2 1.1-3.2h.2c.7 0 2 1.6 2.3 2.2l.3 2.4h.6c.4 0 .5.1.7.2.3-.2.7-.4.7-.9 0-.4-1.2-1.5-1.4-1.8-.7-.7-.2-1.4-1.6-1.4l-.4-.9c2.4-.6 1.2-2.1 4.1-2.6 1.4-.2 4.5-.7 6-.7.3-.2.3-.4.7-.4h.2c.4 0 .4.1.7.4h2c.5.3 2.7 3.1 2.7 3.6v.2c0 .8-1.4 3.1-1.4 5l1 1.7c.1-1.2-.2-.9-.2-1.7v-.2c0-1.5 1.8-2.6 1.8-3.8v-.5s-.9-2-1.1-2.4c-.4-1-1.3-1.3-1.5-2 1.1-.1 1.8-1.2 2.5-1.8.7-.7 1-.4 1.3-.8.4-.4.2-.9 1-.9.7 0 2.5 1.8 2.5 2.5 0 .5-.4.8-.4 1.6 0 .4.1.5.2.7l-1 1.5-.6-.3c-.1.3-2.9 5.3-3.1 5.7-.7 1-1 2-1.5 2.8-.3.4-2.5 1.1-3.3 1.1l-1-3.7c.3-.7.9-2.2.9-3.2v-.9c0-2.5-.5-3.9-3.1-4 .2.8.4.5 1.4.5.9.6 1.1 1.8 1.1 3.2 0 .4-1.3 3.5-1.3 4 0 .7.6 2.4 1.1 2.7.1 1.2.6 1.2-.1 1.4zm-5.2-12.7c.2-.2.7-.7 1.1-.7h.9c.5 0 .4.1.5.5l-2.5.2zm41.1 1.2c-.8 1.2-1.3 2.7-3.2 2.7h-.5c-.1-.4-.4-.7-.9-.7h-.3c-1.1 0-1.4.9-2 .9h-.5c-.3-.8-.2-.2-.7-.7-.3-.4-.2-.7-.4-1.1-.2-.5-1.4-.6-2-.7 0-.3 0-.7.4-.7.3 0 .4.5.7.5.2 0 1.4-1.2 1.4-1.4 0-.6-.2-.6-.5-.7l.4-1 1.7.9v-.8c.9-.2.8-.9 1.4-.9h.2c.6 0 .9.7.9 1.3v.7h.5c.6 0 .8.7 1.1 1.1l-.7 2.3 1.7-1.1.1-1.1c-.6-1.4-.3-.7-1-1.6.5-.2-.1-.2.5-.2.8 0 1.6 1.3 1.7 2.3zm-85.2-6.3c.6 0 1.3-.4 2-.5.8-.1 1.2.1 2.1.1l3.4 2.2c0 1.3.4 1.1.4 1.9v1.4c0 .5-2 1.9-2.5 2-1.2.4-1.9 1-2.5 2-.4.7-.8 2.8-.6 3.8.2 1 1.3 2.2 1.4 2.9-1.2 0-6.3-2.3-6.3-2.7 0-.2 2.9-3.2 2.9-4.5 0-1.3-1.4-4-1.4-5.9 0-.5.9-1.8 1.1-2.7zm96.5 3.8c0-.8.1-1.1.7-1.3-.2.7-.6 2-1.3 2.2l.2-.9h.4zm-77.5.4l-1.2-1.8c1 0 1.3.2 1.7.8l-.5 1zm-38.2-.4c.8-.2 3.3-1.6 3.4-1.6.3 0 .3.3.4.5-1 .3-.4.7-.9 1.3-.3.5-.9.3-.9 1 0 .4.1.2.2.7H22c.6 0 .1.2.9.4 0 .8 0 .9-.7 1.1v.5h.4v.4c-.4.1-.7.2-.7.7v.5c-.7-.1-3.4-4.4-3.4-5.5zm95-1.8c-.1 1.3-.9.4-.9 1.8 0 .4.1.5.2.7l-.2.5-1.3-.8.3-1.8 1.4-.6.5.2zm-69 9c.3-.7.3-1.4.6-1.9-.5.1-2.7 2.7-2.7 4 0 1.6 2.5 3.6 3.2 4.7-1 0-2.9-.7-3.3-1.2-.4-.4-.8-2.7-1.2-3.3l.8-1.3c.1-1.2 1-3 1.9-3.6.7-.5 2.7-1.8 2.7-2.7 0-.8-.8-3.1-.3-3.4 0 0 3.1-.9 3.2-1 .5.3 1 .9 1.8.9 1.4 0 1.4-.7 2-.7h.2c.5 0 1.4 1.2 1.6 1.6.3.5 1.2 1.7 1.3 1.8l-5.3-.5c-2.3-.3-3.6 3.5-3.6 5.9 0 .6.2.8.7.9.1 1.3 2.2 3.7 2.2 5.8v.2c0 .6-.6 1.5-.9 2-3.4-.8-3.2-2.6-4-2.9 0-1.9-1.6-2.5-1.6-3.4 0-.1.6-1.7.7-1.9zm78.5-8.1s-.5.9-.7.9c-.4 0-1.2-1.2-1.3-2h.9c.5 0 1.1 1 1.1 1.1zM79.8 51c1.4 0 1.6-.7 2.9-.7h.4c.5 0 .5.1.9.2-.7 1-3.5 3.2-5.2 3.2l1-2.7zm7.1 2c0-1.4.9-3.3 2-3.6 0 1.1 0 3.8-1.1 3.8-.5 0-.5-.1-.9-.2zm-29.6-3.1c0 .4-.1.4-.4.7-.8-.4-1.4-.6-1.4-1.8.7.1 1.8.5 1.8 1.1zm-32.7 2.6l1.3.2.2-.6-1-3.2h.4c.3 1.2 1.7 4.6 2.3 5.4 1.1 1.4 1.8 3.5 2.9 4.9.6.8 3.8 2.6 4.4 3.3.6.7 1.1 1.5 1.9 2 .8.5 1.9.5 2.7 1.1l4.2 1v.4c-1.1 0-2.4-.2-3.6-.4-1.1-.1-1.6-.9-2.9-.9-.3 0-.6.7-.7.9l-2.2-.4c-.2.1-.4.4-.5.4-.2 0-.4-.5-1.3-.5h-1.3l.4 1.1c-.5 0-4.5-2.9-4.9-3.4-.5-.5-3.4-4.6-3.4-4.9 0-.5.3-.6.7-.7v.5l.9.2-.3-1.1.3-1.1 1.3.2V56c0-.6-1.1-2.3-1.8-2.5v-1zm111.4-.6c.3-.6.5-1.1.8-1.7.4-.7.5-.1 1.1-1.2l.4.2c-.3.5-1.9 2.6-2.3 2.7zm-21.2-4.1c1.1-.1.4-.4 1.1-.4.6 0 .9 1.6 1.4 1.6.4 0 .6-.9 1.3-.9h.5c.5 0 .7.2 1.1.4l.2 1.8-.4.5-1.2-1.1-.1.2-2.7-.6c-.3.7.1.8-.9.8 0-.3 0-.7-.4-.7s-.1.5-1.1.5l1.2-2.1zm-25.6 5.6c-1 0 .6-4.2 2.5-4.7-.3 1.2-.5.9-.8 2.8-.2 1.1-.6 1.9-1.7 1.9zm-37.6-3.8h-.4c-.4 0-1.9-1-2-1.8h1.1c1 0 1.9.8 2.2 1.6-.4.1-.4.2-.9.2zm42.6-.6c0-.6.3-1.1.9-1.1h.5c-.3.8-.3 1.1-1.4 1.1zm-60.6 1.3c0-.5 1.7-3.1 2.3-3.1.1 0 .9.5 1.3.5l-1.9 3.4c.8 1.1.6 1.8.9 3.2.2 1 1.2 1.5 1.2 2.8 0 .7-.3.9-.4 1.6-1.3.3-1.6 1.8-2.2 2.9-1.1-.6-2.5-1.9-3.2-2.9-.4-.6-1-1.2-1.3-1.8-.5-1.2-.7-.9-1.3-1.8.1-.3.5-1.9.5-2.3v-.9c0-.5-.1-.3-.4-.5v1.1h-.5v-1.1c0-.6-.4-.4-.4-.7 0-.1.6-1.4.7-1.6l2.9.2c.1 0 1-.3 1.3-.4 0 .6-.2.6-.2 1.3v.7h.5v-.6h.2zm121.1-2c.7-.2 2-.1 2.5-.2.8-.2.5-.7 2-.7-.1 1.1-2.6 1.4-3.8 1.4h-.5l-.2-.5zM45.5 49.4c-.4-1.4-1.6-1.3-1.8-2.2l.7.4c1.5 0 2.1.2 2.3 1.4l-1.2.4zM97.7 48c-.6-.2-.7-.3-.9-.9.4.1.7.4.9.9zm-17.3 2.1c.4-.8 1-1.9 1.9-2.2 1.1-.3 1.9-1 3.1-1h1.1c-.3 1.1-2.5 2.3-3.4 2.9l-2.7.3zm-42.6-4.2c.6 0 1.6.6 1.7 1.2h-1.1c-.6 0-.7-.1-1.3-.2l.1-.5.6-.5zm60.5.2l-.3 1c-.6 0-1-.4-1-1.1 0 0 .1-.3.2-.5l1.1.6zm-50.9 2.8c-.1 0-2-2.4-2.2-2.9 1.1.3 2.7 1 2.7 2.3.1.4 0 .6-.5.6zm4.2-2.7c0-.3.3-.7.5-.7.3 0 .4.2.4.5 0 .4-.6.6-.9.7v-.5zm45.2-1.7v.7h-.4v-.7h.4zm-8-.3c0 .6.1.9-.5.9-.3 0-.5-.1-.5-.4 0-.4.5-.5 1-.5zm71.5.9c0-.5 1.8-1.2 2.5-1.3v.5c0 .9-2.5 1.5-2.5.8zm-62.6-1.3c.6 0 1.1.3 1.1.9v.5c-.8-.1-1.1-.5-1.1-1.4zm-49.2-1.1c.9.2 1.5 1.8 3.4 1.6l3.6-.3c-.2.8-.5 1.4-1.4 1.4-.9 0-1.4-.4-2.2-.5-.6.4-1.2.7-2.2.7-.9 0-1.2-1.7-1.2-2.9zm43.9 1.5c.2-.6.5-.9 1.3-.9.4 0 .2.1.7.2-.1.5-.5.9-1.1.9-.4 0-.1-.2-.9-.2zm-10 3c1.1-1.6 2-3.8 4.7-3.8-.4 1.5-2.9 3.8-4.7 3.8zm14.4-3.4c0-.8 0-.9.5-1.1v.5c0 .6-.1.5-.5.6zm-49.5.6c0-.5.1-1.1.5-1.1l.4.2c-.4.6-.2.7-.9.9zm48.4-.6c0-.4.5-.9.7-1.1l-.2.5v1l-.4.8-.1-1.2zm-59.6-.7c0-.7.7-.9 1.4-.9 0 .6-.5 2.3-.9 2.3-.2 0-.5-.4-.5-.7v-.7zm16.9-.7l.2.7h-.9l-.2-.5.9-.2zm43.1 5c-.8-.1-1.8-.6-1.8-1.3V45c0-.4.7-1.2.7-1.6 0-.1-.7-.8-.7-1.6v-.2c0-.5.2-.7.4-1.1.5.1 1.3.5 1.3 1.1v.2c0 .9-.7 1.3-.7 2.3 0 1.6 2 4.3 2 4.3 0 .4-.6.7-1.1.7l-.2-.5.1-1.2zm61.1-4.5c.1-.5 2.6-2 3.2-2v.7c0 .6-.4.3-.4.9 0 .5.2.5.7.5v.5l-2.5.2-1 .6.4.8 1.6.4v.5l-1.6.2-.2.5c-1.1 0-.8-.5-1.6-.5-.1 0-.7.6-.9.7-.5-.2.1-.2-.5-.2-.2 0-.1.2-.7.4l.2 1.3-2.7.9-.2-.9c.5-.7.8-.6.9-1.8h-1.4c0-1.1.7-1.4 1.6-1.6l.2.9c.7-.1 1.1-.2 1.9-.3 1-.1.5-.3 1.1-1.1l-.2-1.1c.2-.3.3-.5.7-.5h1.4zm-99.3 2.5l-3.4-3.6.1-.1c.9.2 1.2 1.2 2 1.6.9.5 1.5.6 1.3 2.1zm-7.6-4.1l.4.7-.6.2-.5-.7.7-.2zm2.2.5l-.6.2c-.5-.3-.7-.3-.7-1.1h.9l.4.9zm-14.4 0c1.2-.3 1.4-1.1 2.9-1.1.4 0 1.4 1.3 1.4 1.8l-.1.2-3-1.2c.3 1.1 1.4 1.5 1.5 3-.8-.4-2.7-.7-2.7-2v-.7zm60.2 1.4l-2.2-2.3c1.3.5 1.7 1 2.2 2.3zm-13.1-3c0-.9 1.3-.4 1.3.2 0 .4-.5.5-.9.5l-.4.6c-.1-.6 0-.7 0-1.3zm-55.8 1.5c0-.7.1-.9.6-1.2.2-.1 1.2-.4 1.2-.4h1.4c-.1 1-1 1.6-2.2 1.6h-1zm19.2-2.4c.6.1 1.1.5 1.1 1.1 0 .6-.3.5-.9.5l-.2-1.6zM35 42.6c.1-1.2 3.5-2.3 4.9-2.3L35 42.6zm95.1 3c0-.7-.8-3.1-1.4-3.1h-.2c-.7 0-.5 1-1.8 1.1l-.8-2.1-1.2-.4c-.1-1.4-1.1-.4-1.1-1.4v-1.1c0-.5.1-.5.2-.9.9.1 1.8.6 2 1.5.4 1.4.7 1.4 1.2 2.4l1.8-.2 1.5 1.6-.1.8c.8 1.2 1.8 2.2 2 4.1h-1.1l-.6-1.1h-1.4v-.2l.9-.3.1-.7zm-40.9-5c0-.5.4-.7.5-1.3h.4c-.1.8-.4.8-.4 1.3 0 0 .1.3.2.5l.8-.6.8-.1c.1.4.2.4.2.9 0 .2-.5.7-.9.7-.8 0-1.6-.6-1.6-1.4zm-43.4-1.3c.3 0 .3.1.5.2-.2.3 0 .4-.5.4h-.5v-.5h.5v-.1zm2.7 3.4c-1 0-2.2-.2-2.2-1.1v-.4c0-.9.5-.9.5-1.8v-.7c1.3.1.5.4.5 1.3.1 1.3 1 1.9 1.2 2.7zm86-4.5l.4.5h-.6l.2-.5zm-12.5.6c0 .3-.1.3-.2.5l.4 1.6c-1.1-.5-3.2-1-3.5-2.1l1.1-.2c-.2.5-.2.5.5.6v-.5c.6-.1.6-.2 1.3-.2.2-.1.4.1.4.3zm-64.7 1.8s-2.3-.8-2.6-.9c-.6-.2-1.4-1.1-1.8-1.7 2.5.1 4 .7 4.4 2.6zm-21.9-1.3c-.6-.2-.8-.8-.9-1.4 0 0 .3-.2.4-.2.3 0 .5.7.5 1.1v.5zm64.4-1.2c-.5.1-.3.2-.7.2-.3 0-.4-.2-.4-.5s.1-.5.4-.5c.4-.1.6.4.7.8zm-53.4-.2c1 0 2.4.2 2.7.9-.4-.1-2.3-.5-2.5-.5-1.8 0-1.3.2-3.1-.1-.6-.1-1.3.1-1.3-.4-.1-.5.5-.7 1-.7.8 0 1.8.4 2 1.1.5-.2.5-.3 1.2-.3zm3.2-1.8c.7.2 1 .3 1.1 1.1l-.5.2-.5-.2v-1.1h-.1zm-16.4 2.1H33c-1.1 0-1.5-.6-1.6-1.6l2 .2h1.1c-.1.4-.8 1.4-1.3 1.4zm52.9-.7s3-1.3 3.6-1.3h.2c2.5 0 4.9 2.6 5.9 4.1-1.5-.1-3.1-3.4-5.9-3.4 0 0-4.3 1-4.3 1.1v-.5h.5zm-46.6-.7c-.5 0-.6-.3-.7-.7.9 0 1.2 0 1.4.7h-.7zm57.8-2.3c.6.1.7.2.7.9v.7l-.9-.4.2-1.2zm-64.6.3h1.1c.4 0 .5.1.5.5 0 .1-.4.6-.5.5l-1.5-.2.4-.8zm14.6 1.3c0-.8-1-.1-1.3-1.1h.7c.7 0 1.8 1.2 1.8 2.2 0 .3-.5.4-.7.5l-1.1-.5v-.7c.3-.1.6-.1.6-.4zM34.8 35h1.1v.4l-1.1.2V35zm17.1-.4c1.7.4 3.4 1 3.6 2.9-1.2-.6-3.4-1.2-3.6-2.9zm-20.7.9c.3-.6 0-.5.7-.7-.1.6 0 .6-.7.7zm60.9-.5c0-.7.3-1 .7-1.3l.4 1.1-.4.7h-.7V35zm45.7-.7c.9 0 .5-.2.9.4-1.2.1.1 0-.9.4v-.8zm-50.1.1l.6 1.5c-1.3-.1-2.1-.9-2.2-2.2l1.6.7zm9.8-.7c.1-.7 1.2-1.3 1.3-1.3.1 0 1.2 1.1 1.3 1.4-.4.1-.4.2-.9.2h-.7c-.7.1-.3-.1-1-.3zm-15.7.4c-.4 0-.4-.5-.4-.9l.9.2c0 .3-.2.7-.5.7zm-38.7 0c0-.7.1-.7.4-1.1l.7.4-.3.9-.8-.2zm-8.1 0c0-.9.1-1.1 1.1-1.1l-.2 1.1H35zm105.1 0c0-.5-.1-.5-.2-.9l.9.2c.1.7.8 1.4-.2 1.4-.4 0-.5-.1-.5-.5v-.2zm-103.5-.5c0-.6.7-.7 1.3-.7l-1 1.7c-.4-.6-.3.1-.3-.6v-.4zm58.7 1.8h-.2c-1.9 0-1.4-2.2-2.3-2.2-.5 0-.5.4-1.3.4h-.7c-.4 0-1.1-.6-1.1-1.1v-1.1c0-.5.1-.5.2-.9.9.6 2.5 2.9 4.5 2.9h2.7c-.2.8-.7 2-1.8 2zm-62.6-1.1c.2-.5 1.8-1.8 2.5-2l-2.5 2zm52.9-2.9c0-.3.1-.5.4-.5.5 0 .8 1.2.9 1.6h-1.3v-1.1zM42 32.5l-.5.2h-.4c-.3 0-.3-.1-.5-.2.4-.5 1.2-.9 1.4 0zm-3.9-.2c-.7-.2-.5 0-.7-.5h.9l-.2.5zm57.4-.2c.2-.8.5-1.3 1.4-1.3h.4c.4 0 .5.1.5.5 0 .7-1.5.8-2.3.8zm-2.9.4c-.5-.6-.8-.3-1.1-1.3.7.2 1.8.8 2 1.4l-.9-.1zm-4.8-.9c.2-.8.5-1.2 1.4-1.3-.1 1-.4 1.3-1.4 1.3zm6.1-2c1 0 .9.1 1.1 1.1l-1.1.3v-1.4zm-.4 2c-.6 0-1.7-.6-1.7-1.1 0-.3.2-.4.5-.4h.9l.3 1.5zm-46.2 1.2c.3-.5 1.1-.8 1.1-1.1 0-.7-1.8-.2-2.2-1.4l1.8-.2c.7-.1 2.7 1.5 2.7 1.7 0 .2-2.4 1.3-2.9 1.3-.4-.1-.3-.1-.5-.3zm-7.4-3.1c.3.1 1.1.2 1.1.6 0 .7-1.1 1.8-1.1 2.2v.2c0 .6.5.5.5 1.4 0 .7-.7 1.3-1.4 1.3h-.9c0 1.1-.5 2.3-1.4 2.3h-.2c-.8 0-1.4-.3-1.4-1.1 1.9 0 4.3-2.3 4.3-3.8v-.7c0-.4-.1-.5-.2-.7.6-.3.4-.3.4-1.6l.3-.1zm-8.5 3.1c0-1.8 1.2-2.2 1.3-3.2l.6.5c-.3.4-.3.1-.3.6l.2 1.4c-.6.9-.6 1.5-1.8 1.8v-1.1zm83.4-2.3c-.3-.2-.5-.2-.5-.7v-.5c.4.3.4.4.5 1.2zm-79.1 1.8c.1-.9 2.3-2.1 3.1-2.5-.3.9-2.2 2-3.1 2.5zm80.3 3.3c-.2-.7-1-1.1-2-1.1-.8-.5-2.8-1.4-2.9-2.3l1.3-.2.1-.2-2.5-1.4-.7-.1-.9-.4v-.3l1.7-.9c.2 1 .9 1.4 1.8 1.5.1-.4 0-.5.5-.5.4 0 .5 1.2.5 1.6.5.8.6 1.4 1.8 1.4.1.5.7 1.3 1.3 1.3.9 0 1-2.3 1.4-2.3.8 0 1.8 3.1 2.5 3.6.3-.1.3-.2.7-.2.6 0 1.2 1.8 1.3 2.5-1.5 0-.8-.8-2-1.6-.4-.2-.9-.4-1.1-.7-.3-.4-.3-1.1-.7-1.1l-1.4.1c0 .9.5 2.6 1.4 2.6h.5l.2 1.1-.1.2-2.5-1.4c-1-.1-1.4-.2-1.6-1l1.4-.2zm-20-5.1h-.4c-.2-.4-.4-.5-.4-1.1v-.5c.4.5 1.2.9 1.3 1.6H96zM92.4 28c.4 0 .5.1.5.5v.5c-.6 0-1.3.5-1.3-.4 0-.4.1-.2.2-.7h.6v.1zm-55.8.7c0 .5-.3.7-.5.9-.1-.5-.1-.9-.7-.9h-.8l.5-1h.7c.4-.1.8.5.8 1zm51.3-1.1c0-.5.1-.5.2-.9h.5c.7 0 .8 2.2.9 2.9-1 0-1.6-.6-1.6-1.6v-.4zm-33.3 2.9v.7c-.8-.2-2.1-2.1-2.2-3.2.4.2 2.2 2.1 2.2 2.5zm-15.1-1.3c.1-.4 2.7-2.2 3.1-2.2h1.1c3.2 0 7 2.7 8.3 4.7-1.5-.1-2-2.5-4-2.5-.5-.3-2.5-1.6-3.2-1.6h-2c-1 0-2.2 1.3-3.3 1.6zm19.3-3c1 0 6.3-1.4 6.9-1.8.9-.6 1.4-1.4 2.6-1.7 1.3-.4 2.6-.2 4-.3 2.1-.2 5.4.4 7.1 1.2.8.4 2.7.8 3.1 1.2.8.6 1.5 1.5 2.6 1.8v2.2c0 1.7-1 3-1.1 4.3h-.4l-.1-.7c-.5.1-.3.2-.8.2-1.4 0-1.7-1.5-4.1-.2.2-2 4.2-3.2 4.7-5-2 0-3.8.6-4.7 1.8-.2.2-1.1 1.8-1.2 2-.3.7-.2 2-.5 2.7l.6 4.2c.7 0 1 0 1-.6v-.2c0-.9-.2-1.3-.4-2 .9 0 1.2.4 2.2.4 2.3 0 2.1-1.4 3.4-1.8 0 .6.2.6.2 1.3 0 .5-3.5 3.2-3.8 4.3 1.2-.3 3.4-3.1 4-3.1.2 0 .4.2.4.4 0 .3-6 5.1-6.3 6.1 1.6-.1 5.2-4.6 6.5-4.7-.3 1.4-5.5 4.3-5.9 5.9 1-.1 2.2-1.5 2.8-2 .9-.7 1.8-1.3 2.7-1.9 0 1.9-4.2 3.1-4.7 5.2l4.1-2.9c-.3 1.3-4.2 3.5-4.5 4.7l.1.2 3.1-2.1c-.2.9-1.5 2.1-2.1 2.9-.9 1.2-1.2 1.8-1.9 3.1-1.2 2.1-1.3 5.5-4.4 5.5h-1c-4.4 0-7.5-3.4-8.8-3.4.1 1.4 2.4 2.2 3.5 3 .2.1 1.9 1 2.2 1.1.7.2 2.6-.2 2.6.6 0 .6-.6 2.7-1 2.6-.5-.1-1.5-1.3-2.3-1.3h-.7c-.9 0-1 .4-1.8.4-.5 0-1.3-.7-2.3-.7-.1-.4-2.1-2.1-2.6-2.4-1.1-.7-2.3-.9-3-1.9h-.9l-.4-.5c.4-.8 1.2-3.6 1.3-4.7 1.3.9 1.9 2.4 3.8 2.9-.1-1.2-1.1-1.1-1.4-2.2l2.4-2.6c-1.4 0-2.3 2.1-3.2 2.1-.2 0-.4-.2-.4-.4 0-.5 4.2-4 4.5-5.4l-5 4.3v-.7l5.4-6-.1-.1c-1.8.5-3.9 4.4-5.6 4.5.5-1.7 5.5-5.5 5.6-6.8L59.3 44c0-2 5-5.2 5.1-6.8-1.4.4-4.4 4.5-5.6 4.9 0-1.6 4.2-4.6 4.3-5.9-1.5.3-3.6 4-4.9 4.1l3.3-4.4c-1.9.3-2.7 2.9-4 3 0-1.6 2.2-2.5 2.5-4-.8.2-2.8 2.7-3.1 2.7-.6 0-.1-1.2-1.3-1.8 0-2.1.1-3.3.4-5.6.2-1.2 2.2-3.6 2.8-4zM98 30.5c-.5-.1-2.4-1.8-2.9-2.3-1-.9-2.7-.4-3.6-1.7 2.7 0 6 2.1 6.5 4zm-46.1-1.8c-1.7-.4-3.2-.9-3.6-2.5h.9c1.3 0 2.6 1.4 2.7 2.5zm59.3-1.6c-.4-.4-.6-.5-.9-.9 0 0 .3-.2.4-.2.2 0 .4.4.5.5v.6zm-78.7.9c.2-.6 2.7-2 3.4-2.2-.3.9-2.4 1.9-3.4 2.2zm20.8-1.5L52 25.2l5.1.4-1.6 2.2-2.2-1.3zm35.5-.5c-1 0-1.8-.4-2-1.3l4.1 1.4v.2h-1.6l-.5-.3zm-48.2-1.7l-.2 1.7-.8 1.1c-.2-.3-.6-.8-.6-1.1v-1.1l1.6-.6zm1.4.7c-.6-.2-.9-.5-1-1.1.2-.1.6-.2.9-.2h.4c.9 0 1.8 1.2 2.2 1.8-.5.1-.3.2-.7.2-.4-.1-1.4-.5-1.8-.7zm45.9-1.2c2.1 0 1.8.6 2.9.9v-.5c0-.6-.4-1.8.2-1.8.6 0 1.4 2 1.4 3.1l2-2.1c.1 1 .2 2.8-.6 2.8-1.6 0-2.1-.5-3.3-.8-1.4-.4-1.9-.4-2.6-1.6zm-29.7 1.3c-2.2 0-4.9-1.4-5.8-2.7l1.6.2h.5c1.5 0 2.7-.4 3.8.1.7.4 2.1 1.1 2.5 1.7-.4.1-2.3.7-2.6.7zm-18.1-2.2c2.6 0 4-2.5 7.7-.5 1.7 1 4.2 2.8 4.4 5.2-.6-.4-2.3-2.5-2.3-3.4h-.5c-.1 0-2-1.6-3.6-1.6-4 0-7.1 1.6-9.5 3.2-.1-1.2 2.8-2.2 3.8-2.9zm46.8-1.4c0-1 .9-.3.9.4 0 .4-.5.5-.9.5v-.9zm-1.1 0v.9c-.5-.2-.7-.6-.7-1.3v-.5c.6.1.7.2.7.9zm-2.1 1.8l-.4-2.2c.5.2 2.3 2.1 2.3 2.9 0 .4-.1.5-.5.5-.2.1-1.3-.9-1.4-1.2zm-19.5-.7c0-.8.3-1.9.9-2.2l-.4 2.1-.5.1zm-17.8-2.5c0-.8.4-.6.4-1.8h.5v2.9c-.5-.1-.9-.2-.9-.7v-.4zm-8.9 1.2c0-.6.7-.9 1.1-1.1l-.2 1.1-.8.6-.1-.6zm40.3-1.9c.3.8 1 1.3 1 1.9 0 .6-.6.2-1.1.2h-.5L76 20.2l1.8-.8zm11.9.3v.5H89c0-.5.2-.5.7-.5zm-16.2-.2l.9.4-.4.1v.4h-.8l.3-.9zm1.1-.7c0-.4.5-.9.9-.9.7 0 1.6.7 1.6 1.4-.9 0-2.5.6-2.5-.5zm-9.2 3.1c.3-1.4 1.5-4.1 2.9-4.1.2 0 .9.7.9 1.1 0 0-1.4 1.6-1.6 1.8-.5.6-1 1.1-2.2 1.2zm-12.6-2.6c0-.6 0-.9.5-.9h.4c.5 0 .4.1.5.5h-.7c-.3.6.2.4-.7.4zm18.6-.1c0-.6.3-1.4.7-1.4.2 0 .8.9.9 1.1-.4.2-.5.4-1.1.4h-.5v-.1zm-23.6.3c0-.9.7-3.4 1.4-3.6l.2 2.3c0 .5-.9 2.4-1.5 2.5-.1-.4-.2-.4-.2-.9v-.3h.1zm33.3-.3c.2-.3.6-.9 1.1-.9h.9c-.3.4-.8 1.1-1.4 1.1-.1-.1-.4-.2-.6-.2zm-19.6 4.3c-1.6-.1-5-4-5-5.4v-.5s3.4 1.5 3.6 1.7c.8.6 1.5 2.1 1.5 3.6v.6h-.1zm12.4-5.4c-.6 0-1.3-.5-1.4-1.1 1 0 2-.1 2.2.7-.7.2-.6.4-.8.4zm-4.7-.6c0-.3.7-.5 1.1-.5h.9l-1 1.1c-.4-.2-1-.2-1-.6zm-6.5 1.8c.8-1.7 1-2.3 3.6-2.3-.3 1.2-2.8 2.6-2.9 5.9l-1.2.6c.1-1.6 1-1.5 1-2.4.1 0-.4-1.4-.5-1.8zm-2.8-2.5c0-.6.3-.5.9-.5l.2.5-.2.5h-.9v-.5zM82 17c-.3 0-.4-.5-.5-.7l.1-.4h.7v.5c.1.4-.1.6-.3.6zm-27.7-1.1c.2-.4 1.1-1.3 1.6-1.3h.4c.8 0 1.2.5 2 .7v.4c-.8.2-1.3.5-2.2.5h-.7c-.6.1-.8-.1-1.1-.3zm28.8.4l-.2-1.1c1.2.1 1.8 1.1 1.8 2.5l-.1.1-1.5-1.5zm-17.5-.4v.5c-1 0-1.6-.4-1.6-1.4 0-.8 1.6 0 1.6.9zm5.8-.9c.5-.3 1.8-1.4 2.2-1.4 2.1 0 2.3 1.1 3.1 2.5.5-.1.9-.4 1.4-.4 2.1 0 2.3 1.7 2.3 4 .5.3 1.4.9 1.4 1.6v1.1c-1-.1-1.1-1.2-1.5-2.1-.4-1-.8-1.2-1.5-1.9-1.5-1.5-2-1.9-4.4-2.5.2.7 1.3.8 1.9 1.1.8.4 1 .7 1.6 1.2 1.3 1 1.6 1.9 2.4 3.4h-.7l-.8-1.8c-.2-.1-1.9-1.9-2.2-2.2-.8-.8-2.5-.7-2.7-1.6l.4-.1c-.3-.1-2.7-.6-2.7-.6h-.2c-2.5 0-3.8 1.4-4.9 1.4v-1.1c0-.5 1.1-1.8 2-1.8h.5c.7.1 1.9.9 2.4 1.2zm5.4-.3c0-.7.8-1.2 1.3-1.4l.2.5-.3.9c-.6.5-.2.5-1.2.5v-.5zm-6-2.6c.4.1.7.4.7.9v.2c0 .5-.1.5-.2.9-.4-.1-.5 0-.5-.5v-1.5zm-21.2 1.7c.2-1.5 2.2-.7 3.2-1.3.3.1.3.2.7.2h.9c-.1.5-1.3 1.1-1.6 1.1h-3.2zm7 0c.2-.8 2.9-2 4-2s2 .7 3.4.7v.4c-.7.2-2.1 1.7-3.6 1.4l-3.8-.5zm-7.2 6.4c0-.1 1.5-2.8 1.6-2.9.4-.5.5-.5 1-1.2.4-.5.5-1 .8-1.4.8-.8 4.2-2.9 5.5-3.2-.2.3-2 1.4-2.6 1.9-.8.7-1.2 1.6-2 2.3-1.3 1.1-1 1.1-2 2.4-.5.7-1.4 2.1-2.3 2.1zm14.1-10.1c-.1.5 0 .5-.5.6l-1.6.2H61c-.5 0-.7.2-1.1.4.2-.6 1.1-.8 1.8-.9l1.8-.3zm-11.4.4c.9-.2.5-.7 1.8-.9.4-.1 1.7.3 1.7.8 0 .3-1.7.7-2 .7h-.2c-.6 0-.7-.1-1.3-.2v-.4zm29.4 1.6c-.1-.6-.4-1.2-1.1-1.2-.2-.8-.4-.3-.4-.9v-.9l1.2.4 1.2 2.8-.9-.2zm-1.9-1.8h-.5v-.5h.4l.1.5zm-13.1 0c-.5 0-.2-.1-.9-.2v-.4l1.3-.2v.4c1.3-.1 1.3-.3 3.3-.3.8 0 2.4-.1 3.6-.1l.5.4c1.3 0 3.5 0 3.8.9h.5s3.6 2 4 2.2c.8.4 2.8 2.3 2.9 3.2-.9-.6-.6-.9-1.9-1.6-.8-.4-1.2-.9-2.3-1-1-.7-1.7-1-2.7-1.8-2-1.5-.8-.6-3.3-1.2-1.2-.3-7.5-.4-8-.7-.6.4-.4.4-.8.4zM55.5 8c1.3 0 1.5-.4 2.5.2.7.4 1.3.7 2.2.9v.4l-2.7.4c-.4 0-3-.8-3.2-1.2l1.2-.7zm20.4 0c-1.1 0-2.1-.2-2.3-1.1l1.6.2.7.9zm-7.4 1.1c-.9 0-2.6-1.6-4.5-1.8 0-.4.1-.5.5-.5 1.7 0 4 1.2 4.7 2.2-.5 0-.3.1-.7.1zm1.1-2c.2-.8 1.1-1.1 2.1-1.1 0 0 .6.3.9.4-.2.8-2 .7-3 .7zM39.3 95.5l.5.2V95h-.4l.1-.8.7.4c-.1-.9-.4-.7-.4-1.4 0-2.4.5-2.9 1.9-4 .7-.6 2.7-2.6 3.5-2.3l.4-.5c.9.2 2.1-.4 2.2-1.7l.5.2c1.2-.6 1.9-.4 3.1-.1l-1.1.2c-.3 1.2-.3-.1-.9 1-.5.9-.5.5-1.2 1-.8.5-1.7 1.1-2.3 1.9-1.3 1.6-1.2 4.4-1.7 6.7h.4v.7c0 .4-.1.5-.5.5h-.4c-.4 0-.5-.3-1-.5l.6.7-.2.5.7.2c0 .3-1.1 3.5-1.2 3.8-.7 1.5-2.3 2.4-2.4 2.8l.3.2-.9.2v.7c1.2-.3 3-2.3 3.5-3.5.3-.7.6-1.9.9-2.7.2-.7.9-1.8 1.1-2.5.5-1.9-.3-3.9.7-6.5.8-2.2 3.4-2.2 3.8-3.4l1.9-.8.2.5.4-1.8 1.4-.2.6 1.8-.2.6.5-.2v.4h.6v-.7l-.3-.4-.5.2-.2-.5.6-.3v-.7h.5c.2.8.7.6 1.4 1.1 3.2 0 4.4 1.8 5.4 1.8.4 0 .5-.1.5-.5 0-.9-.9-.3-1.7-.8-.5-.3-1.1-.8-1.6-1-.4-.2-3.1-.7-4.1-.8V84l-.6-.1.6-.1-.4-.9c-1.7 0-4.5.1-5.8-.2l-.7.6c-.8 0-.6-.2-1.3-.2-1.6 0-1.4.5-2.7-.1l-.7.2-.2.7c-1-.7-.8 0-1.1-1.1-.2-.8-.7-.5-1.8-.5.3-.4 2.6-1.5 3.2-1.6 1.8-.2 2.8-.3 4.5-.2.1 0 4.5.4 4.6.5 1.1.3 2.6 1.1 3.6 1.5l.2-.5h.7c-.3-1-.4-.3-1.4-.6-.5-.2-.6-.4-1.5-.7.2-2.1 4.8-3.5 5.2-5.2.9-.1 1.1-.4 2.2-.4h.5c1.2 0 1.9.6 2.9.9 1.1.4 1.6.5 1.6 2.1-1.1-.1-.4-.4-1.1-.4h-.4l-2 .3-1.3-.5-1.2.6.1-.2-1.3-.5-.7.1v1.1c.6.2.6.4 1.3.4h.5l.2-.4v.4h.7l1.6-.2-.3 1.1c-.9 0-1.7.4-1.9 1.1l-2.3 1v.4l2.7-.4v.5h-.3l.2.6-3.6-.6c.4.5 2.5 1.2 3.3 1.5 1.1.4 2.3 1.7 3.3 1.2 0-2-1.5 0-2-1.6l.6-.4.8-.1.5.6c-.3-1.6-1.2-.6-.8-2.3-.6-.4-.4-.9-.4-1.6l2-.8 1.6-.3c.5 0 .4 2.8.4 3.6h-.4c.1.8.3.6.4 1.8l.2 2.2-.5-.4v.7H66v-.5c-1-.1-.7-.8-1.4-1.3l-.6.6-.9.5v.9h1.6l.2.7c-1 .2-1.5.6-1.9 1.3-.2.3-1 1.8-1.1 2.1h.7l.3-1 1.2-1.3 3.6-.8-.1-.7c.1-.2.2-.3.1-.7l-.3-3.6h.2l-.5-3 .5.4c0 .2-.2 3.3.4 3.3.3 0 .3-.6.6-1.2.3-.5.6-.8.8-1.4h.7V80c0-.3 1.5-1.4 1.6-1.4.2 0 .4.2.4.4 0 .8-.3 1.2-.4 2h.5v.4l-.5-.2-.1.7.2.3h.5v.5c.8.1.9.1 1.1.7l.5-.2c-.1-.2-.4-.4-.4-.5 0-.7.4-1.2 1.1-1.3v.4l.8-.6-.5-.2-1.1-.1c-.2 0-.2.2-.7.3l.6-1.2-.1-.4h.4v.7l.5-.2v.6c.7-.1 1.3.1 1.3-.5 0-.1-.3-.4-.4-.5 1.8-.4.1-1.5 2.3-2 0-.3 0-.7-.4-.7-.6 0-1.8.5-2.5.8-1.1.3-1.3 1.2-1.8 1.4v1.1c-.7-.1-.7-.2-.7-.9v-.5c0-.4.1-.4.4-.7 0-.6-.2-2.2.4-2.2l.9.1.2.4c1-.1 2.5-.1 3.3-.9.6-.5 1.4-2.5 2.2-2.5.5 0 .5.3 1.3.4-.1 1.1-1.8 3.1-2.5 4.2-.5.9-1.5 4.2-2.2 4.4 0 1.1-.7 1.2-.7 2.3 0 .1.3.4.4.5l.4-.2-.2-.7c.6-.1 1.1-.1 1.1-.7v-.7H77V82l.5.4c.3-1.1.8-1.1 1.4-1.7.8-.9.4-1.3 1.2-1.9.4-.4 2.3-3.1 2.3-3.8v-1.1l1-1.1-.8 4-1.3 2.7.2.1 1.1-1.6.3-.1v.7l1.9-1.1.2-.7-.2-1.2c.8.3.3.5.8.5.3 0 .1-.4.7-.4h.7v-.5c0-.6-1.3-.9-2-.9h-1.3l.4-1.4 1.5-1c.3.6.8 1.5 1.5 1.5h1.1v.7c0 .7-2.2 4.1-2.2 4.7 0 .4.5.5.9.5.3-1.1 1.6-1.7 1.6-3.2.7-.3 1.7-3.2 2-4.1 1.1-.1.4-.4 1.1-.4h1.1c0 1.6-1 2.3-1.6 3.2-.4.7-.7.8-1 1.3-.5.8.1 1.1-1 1.4v.7l-.4-.2c-.2.3-.5 1.1-.6 1.2-.3.2-.6-.5-.7.6 1.2 0 .6-.4 1.3-.4h.5v-.5l1.4-.2v.7l-.7.1-.5-.2v.8c-.3-.1-2.3.5-2.5 1.3l1.6-.4v-.3h.7c.5 0 1-.5 1.1-.9l.7.2c-.3 1.1-2.4 1.2-3.2 2.3H87l-1.4.8-.1-1 .5.2.6-.7-1.8.1c.5-.8 1.1-.7 1.1-1l-.1-1.1c-.7.1-1.4 1-1.6 1.6-.9.1-2.1 1-2.5 1.6h-.9l-1.4 1.3-.8-1c-.2 1.3-1.2.7-1.2 1.5v.7l-.6.7v-.6h-.7c-.6 0-.6.4-.7.9h-.7l.7-1.1.4-.2-.6-1.3-.8.8v-.6H73v-.4h-.4l.3.7-1 .2c-.2.9-.9 1.2-1.6 1.6l1.8-3.2-1.6.6-.2.6c.2 1.1 0 1-.5 1.8-.3-.2-.3-.4-.7-.4-.8 0-1.1 1.7-1.1 2.5h.7l.5-.4.2.5 1.6.2v.9c-.4 0-2.3-.4-2.3.5 0 .5.9.2.9.7 0 .6-.3.3-.6 1l-1.2.6c.9.3 0 .3-.4.7-.4.4-.5 1-.7 1.4.9-.2 1.2-1.1 1.6-1.8h1.5l.5-.6-.1-.6.6.9-.7.6c.9.3 0 .3-.4.7-.3.3-.4.9-.7 1.3.7-.2 1.3-.9 1.4-1.6.5.1 1.6 2.4 2.9 3.2 0-1.8-2-2-2-3.4 0-.5.2-.7.4-1.1l1.1.2c0-1.5-.2-1.2-1-1.6l-1 .9-.1-.5 1.3-1.7-.4-.5.7.3.2-.5-.8-.4-.2-.7h.5c-.3.6.4.7 1.3.7l.2.9-.7-.6.2.5-.5.4.8 1.1 1.2.9.5-.5h-.4V90c0-.5.3-.5.6-.7l.7.6c.9-.1 1.4-.4 1.3-1.1h.8c-.2 1.2.5 1-.9.9-.1.2-.1.3-.1.7v.6h-.4v-.4l-1.8.6c.2.8 2.2 3 2.2 3.4v.2c0 .7 0 .5-.2.9l.2.5c-.2.3-.4.3-.4.7 0 .5.1.4.5.5l.3-2.5.7-.4 8.6.5c.4-.3 1.1-1.3 1.6-1.3h1.6c1 0 1 .4 2 .4H93l2.2-.2c1-.7 1.1-.6 1.4-2 1.7 0 4.4-.3 6.1-.6 1.1-.1 1.8-.3 2.3-1.1 1-1.5.1-.7 1.7-1.7l5-.7v-.4h-.9c-1 0-3.4.1-4.4.6l-2.7.9h-1.3c-.2.1-.5.3-.5.5 0 .1.2.4.4.5-.7.2-1.1.7-1.3.7-.4 0-.3-.4-.4-.7h-.4c-.1 1.6-2.9 1.4-4.5 1.4-.4.8-.2 1.8-.9 1.8h-.9c-1.5 0-1.5-1.8-2.7-1.8h-4.7c-.9 0-1.6.3-2.2.6l-1.6.6c-1 0-1.4-.1-1.6.8l2-.4c.5.2 1.1.4 1.8.4h1.4v.4h.4l-.4.8-3.8-.5c-.5-.1-.7.1-1.1.2-.3-.2-1.4-.4-2-.4h-1.8c.5-.6 2.9-1.8 3.6-1.6.6-.9 3.5-1.3 4.7-1.8.9-.3 1.3-.7 2.5-.8 1-.1 1.9-.3 2.5-.7 1 0 5.1-.4 6.2-.6 2.1-.4 4.8 0 6.6-.4-.7-.9-7.2-.1-7.7-.3l-4 .3h-1.4v.3l-1.1.2-.4-.2-.1.6-.5-.2c-.4.6-2.3.9-3.5.8l-.9 1-.7-.3-6.6 2.6c.1-1.1.5-.5.5-1.3V91h.5l-.1-.8.3.6h.4c.3-.9 0 0 .5 0 1 0 1.5-.5 2.5-.5v-.7l1.3.2c.3-.8 1.6-.9 2.7-1.1.4-.1.8-.4 1.2-.6.7-.3 1 .1 1.7-.3 1.7-.9 3.8-1.4 6.3-1.4.1.1 1.3.7 1.3.7.5 0 .4 0 .7-.2l.4.2c.2-.1.2-.2.5-.2.7 0 .1-.1.5.2l5.4-.9h3.6l4.4.5.4.7c.2-.1.4-.1.4-.4 0-.5-2-1.4-2.5-1.6-.3-.1-3.4-.7-3.6-.7l-1.8-.1-7.9.6-.5-.2c-.4.2-5.5 1.3-6.3 1.3-.3 0-.5-.1-.5-.4 0-.5 4.2-2.3 5-2.3.1-.9 1.8-1.2 2.6-1.4 1.6-.4 1.9-.9 3-1.2 1.6-.4 4.9-1.2 6.9-1.2l3.4-.1 7.4.9 2.6 1.7.6 1.4c-.9.5-2.2.8-2.2 2.2 0 .4.1.2.1.7l-.1 1.1.5-.6-.2-1.6c-.1-.4 1.8-1.4 2.3-1.4l.1-1.7 1.4 1v.9c.1.1 1.5 1.6 1.5 1.8l.5 2.2.2-.1 1.8.3 1.3.9h1.4c.4 0 1 .5 1.4.5h.5c.2.6 1.5.9 2.2 2.1.6.9 1.1 1.7 1.7 2.6v.9c.2.3 2.5 5.7 2.5 5.8v.4c0 .5-1.9 1.1-2 1.1-.6 0-.7-.1-1.3-.2v-.6h-.4l.4-.5-.9-1.2.2-.5-.2.1-1.3-2.2c0-1.1-.1-1.8-1.3-1.8l.6 2.7c-.1.3-.2.3-.2.7 0 .7.2 1 .4 1.4l-.2.4c.6 1.3.1.9 1.4 1.8v-.5c1.2 0 .6.2 1 .8.3.4.9.3 1.5.5l1.5-.3-1 1.2c.9-.2 2.2-2.1 2.2-2.5 0-1.1-.3-2.2-.7-2.9v-.5L136 96v-.7c-.5-.4-1.9-2.8-2.6-3.7-1-1.2-2-2.4-4-2.4-.1-.1-.5-.4-.5-.4l-2 .2c-.2-.9-.8-.7-1.7-.9-1-.2-.7-.8-.6-2.1l-1.6-2-.1.1v-.5c0-.7-1.5-2.3-1.9-2.7-.6-.6-2.2-1.4-3.1-1.8-2.1-.9-6.6-.7-8.1-1.4 0 0-.3.2-.4.2h-1.3l-1.1-.1c-.3.2-.3.4-.7.4-1.3 0-.6-.6-1.7-.6l1.2 1.7h-1.3v.4h-1.4l-1.6.2c.1-.8.1-.8.7-.5v-.3l2.1-.2-.4-.9-1.1.2 1.1-1.2c-.7.2-.7.4-.9-.4l1-.6c.2-.7 2.8-2 3.9-1.8l-.7.5-2.3 1.6.6.3.8-1 .5.1 2.5-.4.3.2.7-.1v.4c-.6 0-1.9.7-2 .7-.7 0-.1.1-.5-.2-.9.4-1.2-.1-1.4 1.2l3.4-1 .5.1 5.9-.6h1.1c.5 0 5.4 1.9 6 2.2l.7-1c1 .1 2.2 1.6 3.2 1.6h.7l.2-1.1c1.4.1 1.5 1.4 3.1 1.4.5 0 .5-.1.9-.2 0-.5 0-.7.5-.7 1 0 2.3 1.3 2.9 1.3h.4c.7 0 .6-.8.7-1.4l.3.1.8.4c.3 1 1.8 2 3.1 2 .5 0 .5-.2.5-.7 1.5.1 2.3 2.2 4 2.2.6 0 .5-.3.5-.9 1.1.3 1.5 1.6 4 2.2.6-.3 1.1 0 1.1-.7v-.2c0-.4-.7-2-.9-2.3.5-.3 2.3-1 2.3-1.6v-.5c0-.8-1.5-1.1-2.3-1.1h-2.3c0-1.9-2.5-1.3-4-1.3h-.6l.2-.5-.4-.7-2-.2h-.5l-1.6.2c.1-.5.2-.3.2-.7 0-.1-.2-.4-.4-.5l-1.4-.2c-.7-.1-1.8.5-2.9.5v-1.1c-1 0-2-.2-2.7-.2-.8.1-1.7.5-2.4.5l.2-.7-.2-.5c-1.3 0-1.9.5-3.2.5h-.4c-.5 0-.4-.1-.5-.5h-.7c-.4 0-.4.1-.7.4l-.9-.2v-.4l.9-.2v-.4c-1.4 0-4.8 1.1-5 2.3l1.6-.8.7-.3 1.7-.5c-.5.5-1.7.9-2.5 1.3-1 .6-1.3.9-2.4 1.3l-1.8-.3-.9.3-.2-.7L119 72c.2-.8 3.5-1.8 4.5-2.3l.5.2.2-.5 3.4-.6c.1-.1.4-.4.5-.4 1 0 1 .4 2 .4h2.3v.4h-.7c-1.5 0-6.9.8-7.9 1.3l.2.4.5-.4 13-1h1.4l9 1.3.5.4c3.2 0 4.9 1 7.5 1.5 1.7.3 5.6 1.5 6.4 2.8 1.2 1.9 1.9 3.9 3.2 5.8.7 1 2.5 5.5 3.4 5.8-.1-.9-.5-2.2-.8-3-.2-.5-.2-.9-.4-1.4-.2-.7-.4-.7-.7-1.3-.5-1.3-.5-1.6-1-2.8-.3-.7-1.1-2-1.3-2.7 1 .2 5.3 2.6 6 3.2 1.5 1.4 3 3.4 3.6 5.6-.7 1.5-.4 1.2-1.7 2.3-.8.7-1.6 1.1-2.2 2.1l.8.5c-.5.7-3.4 2.1-3.4 3.2 0 .5.1.4.6.6l-2 1.2v1.1c0 1-.7.9-.9 1.6 1.3-.1.4-.9 2.4-.8l.5-.8H167V95c.5-.3.9-.7 1.6-.7h.9v.7h.4c.1-.9.5-1.1.5-1.6 0-.2-.2-.4-.4-.4-.6 0-.4.4-.7.4-.1 0-.7-.6-.7-.7 0-1 3.6-2.2 3.6-2.9 0-.6-.4-.3-.4-.9 0-.6.3-.5.7-.7.1.4 0 .5.5.5.8 0 1.1-1.2 1.5-1.8l-.2-.7 1.3-.7v.5c0 .7-.7.7-.7 1.4 0 .3.2.3.4.4l-.4.5.3.7-.5.4-.1.8-.8 1.1h-1.1l-.6 2.6c.1.3.2.3.2.7v.2c0 .1-1.5 1.4-1.7 1.5-1 .7-.8.8-.7 2.5l-1.5.8-.6 1.2h-.5c-1 0-2.3 2.6-2.5 3.6-.3-.1-.5 0-.5-.4 0-.7.5-.4.5-1.1v-.7h-.4l.2-.7c.9-.1 2.3-1.2 2.3-2l-2.3.5-.9-.1.2-.5c-.4.1-.5 0-.5.5v.7c.3.1.5 0 .5.4 0 .3-1.4 1.3-1.7 1.5-.5.3-1.7 2.2-.6 2.1l1.4-.2v2.2h.7v.5c.7-.1.9-.5 1.1-1.2l.9.4.9-.2c0-1 0-1.4 1.1-1.4l.5-1.6h.7l.8-2 .2-1.6h.3l.2.7.1.2.9-1.1.6-3.2c.6.2.5.4.7.4 1 0 1.2-4.1 1.6-5l1.1.3c.2-1.1.7-1.6.6-3.1l.3-3.4c-.9-1.9-.1-3.2-1.9-5.1-1-1-2.3-2.8-3.9-3.1l1 1c-2-.5-4.4-3.1-7.1-3l-1-1.3.1-.2 2.1.5c-.9-.8-1.9-.7-2.6-1.4-1.2-1.3-.6-.8-2.3-1.7.3 1.2 1.5.4 1.9 2.1.4 1.6.3 1.7 1 3 1 1.7 1.8 3.5 2.7 5.2-.7-.2-3.7-6.2-4.3-7.2-.7-1.2-1.6-2.2-3-2.8-.8-.3-3.1-1.7-3.4-2.4l5 2.3c-.4-1.4-4.7-2-5.6-3.3l2.7.8c2.8.1 8.2 2.6 10.4 3.6 2 .9 2.9.9 4.3 2.7 1.8 2.4 1.8 1.8 5.1 1.8h.4c.6 0 .7.1 1.4.3l-1.2.9-1.6.2v.7h.7c.7 0 0-.3 1.1-.4-.3 1.1-1.4 1.5-1.4 2.9 0 .7 1.1 4.3 1.5 4.5l.3-1.4c.6.5.7 2 1.3 2 .4 0 .5-.1.5-.5v-1.1c1.1.3 0 .9 1.6.9l.2-.9 1.8.9v-1.1c2.5.6 2.5.4 1.4-1.6.6 0 1.1.3 1.1-.2 0-.9-.5-1.1-.5-2.2.6.1.6.4 1.3.4.6 0 .7-.1 1.4-.3l-1-2.1h.7c.5 0 1.6-.5 1.6-.9 0-.6-1.6-.9-2.2-1.2l1.5-.8c-.5-.8-2.5-1.3-2.5-1.6 0-.2 1.3-.9 1.3-1.3 0-.7-.9-.6-1.5-1l-.8.7.1.2 1.7.3-1.5.7-3.1.4c.3-1.2 1.8-1.3 2-2.2l-1.2.2.2-1.3c-1.1.4-1.1 2.3-2.8 3.2l-.2-2.2c.5-.8 2.6-1.5 2.7-2.9 2.7-.6 1.1-.3 1.1 1.3h.4v.8l2.3-.4.1.8.8-1.7h-1.6c-.6 0-.7-.1-1.3-.2.1-.1.5-1.1.5-1.1 0-.3-.2-.4-.5-.4h-.6c-2.7 0-3.8 1.8-4.3 4-.7-.5-.5-2-1.8-2-.4 0-.7.3-.7.7v.2c0 .4.1.5.5.5h1.1l.2 1.6v.7h.4V75h-.5c-1.2 0-1-2.4-3.1-3-.8-.2-4.4-.2-5.6-.2l-.5-.4.2 1-1.2-.6v-.4h.4v-.3l-1.3-.4.2.7-1.3-.3v-.3l.5-.2-1.4-.6.4.5-.1.2-3.2-1.1c-1.2 0-4.6-1.2-5-1.8 2.9 0 4 1.6 6.3 1.6-.5-.6-3.3-1.5-4.3-1.6v-.4c3.1.1 6.4 1.2 9.5 1.3 1.7.1 6-2.5 8.3-2.7v-.4h-1.6c-.5 0-.4.1-.5.5l-1.8.2c-.8.5-.8.4-1.6.7-.4.2-1.1.8-1.5 1.1-1.2 0-6.9-.7-7.4-1l.9-.2c.3.1.3.2.7.2h1.8c.5 0 .5-.1.9-.2v-.4l-2 .2h-3.2c-1.5 0-2.5-.2-3.8-.3-1.2-.1-2.9.1-4.1 0-2.2-.2-5.1-.7-7.4-.9l.2-.5c-.9.1-3.9.4-3.6 1.1h-3.2c.2-.9.9-.7 2-.7l.5-.3 2.9-.2.5-.4h1.4l-.1.6 1.2-1h-2.5c-1.9 0-4.2 1.1-6.8 1.1-2.5 0-5 .4-7.6.4.6-.6 4.7-1.3 6.1-1.3.3-.8 4-.9 4.9-1 1.2-.2 4.6-.6 5.5-.6 1.6 0 3.4 1.3 5.4 1.3h.4c.7 0 1-.3 1.3-.7l-.4-.9c1.8 0 2.4 1.1 4.3 1.1h.4c.3 0 .5-.1.5-.4 0-.7-.3 0-.4-1.1.7.3 3 1.4 3.8 1.4h.9c.4 0 .4-.1.7-.3l-.3-1.1c1.6.4 3.2 1.4 4.7 1.4h.2c.8 0 1.5-.5 1.3-1.1.8.1 2.4 1.1 3.6 1.1h.7c.5 0 .5-.1.9-.2l-.2-1.3c1.2 0 2.4.9 3.6.9h.4c.5 0 .7-.4.9-.7-.4-.7-2-1.6-2-2 0-.6 2-.7 2-2.7-.7-.1-.4-.2-.9-.2-1.7 0-3 .7-4.1.7v-.7c0-.3-.3-.7-.5-.7-1.6 0-3.8.6-4.9 1.1v-1.2l-1.4-.2c-.8-.1-2.7.9-4 .9 0-.6.1-.9-.5-.9h-.4c-3 0-2.9 1.4-4.5 1.8l.2-.9c-.2-.3-.2-.5-.7-.5h-.4c-1.7 0-3.3 1.8-4.1 2v-.5c0-.4-.3-.7-.7-.7-2.4 0-4.2 2.4-5.9 3.1-1 .4-6.3 1.2-7.8 1.2l-.5.4c-.8 0-1.6.1-1.8.7l3.2-.7v.4c-1.2.1-4.1 1.6-5.2 1.1-1.1 1-4.4 1-4.5 2.3l-.9.2c.1-.3.3-.7-.2-.7-2.3 0-3.9 1.3-5.8 1.3.2-1.5 4.2-1.6 5.4-2 1-.3 1.8-.5 2.8-.8.8-.3 2.6-.2 2.8-1-1.6 0-5.4 1.6-5.9.9.9-.2 1.6-1.3 3.1-1.4 1.3-.1 3-.4 4.2-.3l1.2-1.1c-.1-.3-.2-.3-.2-.7 0-1.4 4.7.4 4.7-2.2 0-.5-.1-.4-.5-.5v-.4l2.4-.2.5-.4c.6 0 1.8-.4 1.8-.9 0-.3-1.1-.6-1.1-1.1 0-.6 5.2-.1 5.2-1.6 0-.6-.3-.3-.5-1.1h-.9c-.5.1-.3-.4-1.1-.6v.4c-.6-.2-.5-.4-.7-.4-.1 0-.4.3-.5.4-.8 0-2 0-2 .7v.7h.5c.5 0 .3.1.5.4-.4.1-1.4.3-1.4.7 0 .4.5.3.5.9V55c0 .6-.5.7-1.1.7h-.9l.5-.8.1-.6c-2.9 0-1.7.2-4.1.7l.1 1.4c.4.4 1.5 1 1.5 1.8 0 .4-1 .5-1.4.5-.4 0-.2-.1-.7-.2.2-1-.8-1.3-2-1.3-.7 0-1.4.2-1.4.9h.9l-1.4 1.7-2.8.1-.4 1.1h-.5c-.1.9-1.1 1.1-1.9 1.5-.5.2-1.9.9-2.4.9 0-.1 2.2-1.9 2.3-2 1.7-1.1 1-.3 2.2-2h.9c.6-.9.7-2 1.1-2.5.8-1.1 2 .2 2.2-1.3l.1-.1.7.9c1 0 1-.6 1.5-1.2-.1-.1-.5-1.1-.5-1.1 0-.4.6-.7 1.1-.7.1.4 0 .5.5.5h.2c.8 0 .9-1.2 1.7-1.7.8-.5 1-1.2 1.7-1.5.9-.4 1.5-.3 2-1.2.3-.4 1.3-1.2 1.7-1.5l1.4.2v-.4h.5l-.4 1.6h-.5l-.1.1.8.9c.7-.4 3.3-1.2 4.1-1.2.4 0 1.3.2 1.3.5 0 .6-2.7.1-3.1 1.6 2.1 0 4-.3 4.7-1.6l-.4-.7h.7c1.7 0 3-.7 3.6-1.8l-.7-.7.5-.4c1.5 0 4.3-.5 4.3-1.6 0-1.4-2.9-1.2-3.6-2.3.3-.5.7-.9.7-1.6V40c0-.4-.1-.5-.5-.5h-.2c-1.3 0-2.9 1.8-3.8 2.3-.3-.1-.3-.2-.7-.2h-.2c-1.4 0-2.8 2.4-2.9 2.4l-1.5-.3L149 46l-.4 1c-.6-.2-.5-.4-.7-.4-1.5 0-3.2 2.1-3.4 3.2h-.3l-.2-.7c-1.7.1-2.5 3.1-3.8 3.4v-.7c-.4-.1-.4-.2-.9-.2h-.2c-.6 0-2.4 3.1-2.9 3.8-.3-.2-.3-.4-.7-.4-1.1 0-2.1 2.6-2.7 3.1l.2.5c-.9.1-1.5 1.4-2 1.9-.7.7-1.6 1-2.5 1.5 0-.1 4.9-5.8 5.5-6.4 1-1.1 4.9-5.5 4.9-6.9 1.5-.6 4.9-8.3 4.3-11 1.4-2.7 0-1.5 2.5-3.5.9-.7 2.7-2 2.7-3.4 0-.5-.2-.7-.3-1l.8-2c-.5.1-1.8 1.3-1.8 1.8v.5c.4.1.5 0 .5.5v.4c0 .6-1.2 1.1-1.6 1.8-.5.7-.9 1.4-2 1.4v-.4h-.3l.3-1.4c-.2-.4-.6-1.3-1.3-1.3h-1.4c-.4 0-2.4 1.2-2.9 1.4-.7.4-1.6 1.7-1.6 2.7 0 .7.7 1.4 1.1 1.4 1.1 0 1.2-.6 1.4.4-.6.1-1.8.7-1.8.7h-.5c-.2.6-.8.7-1.6.7.5-.7 1.6-.5 2-1.8-1.2-.3-2.3-2.1-4-1.3l-1.6-.2.8 1.4h.7v.3l-1.8.2c-.3-.2-.5-.2-.5-.7v-.7c0-1 2.1-1.9 3.2-2v-.5c-1.1-.1-.9-1.1-.5-1.8-.2-.2-.4-.3-.4-.7 0-1.1 1.7-.7 2.3-.7.5 0 .5-.3.7-.5-.1-.4-.2-.4-.2-.9s2.3-2 2.3-2c.5 0 1.8 1.7 1.8 2.2v.9h.4c.3-1.4 1.3-4.5 2.7-4.5h1.1c.5 0 .5.3.7.6l-1.6 3c.9-.2 2.5-2.9 3.8-2.9.9 0 1.1.8 1.9 1.1l-.6-1.1-1.4-.4-1.3.2c-.3-1.1-1.7-.6-2.9-.8l-1.1.2-.2-.1-1.1 2.2c-.6-.4-.8-1.1-1.8-1.1-.7 0-3.4 1.4-3.4 2.2v1.3H134c-.6 0-2.5 2.3-2.5 2.9v.2c0 .7.2.9.7 1.1v.4c-.9.2-2.2.8-2.2 2v.4c0 1 .4 1.2.5 2.1l2.4-.1-.6.7.2 1.1c.6 0 .6.2 1.3.2 0 0 2.9-.8 3.5-1 .9-.2 1.1-.5 1.6-.6.3-.1 1.3.1 1.9.1.3.2.5.2.5.7v.3c0 .8-.5 1-.5 2.2-.6.9-1 2.3-1.7 3.2-.7.9-1.6 1.8-1.6 3.3l-.9.4v-.8l-.9.2-.4 1.6h-.9c.2-.9 1.1-5 2-5 .7 0-.2 1.5-.2 2.3v.7h.4l.3-.9c0-1.2.4-.9.4-1.8v-.2c0-1.4-3.9-4.4-4.9-5.2l-.6.1 2.1 3.8.5-.2c.1 1.1.5.8.7 1.5.1.4-.1 1.2-.1 1.9-.6.9-.6 1.5-.9 2.5-.3 1.1-.7 1.3-1 2.4-.6 1.8-1.6 3.1-2.4 4.6-1 1.9-1.8 2.3-3.3 3.8-.8.8-2.8 3-3.9 3.1.1-.4 2-2.3 2.5-2.9.9-1 1.6-2 2.4-3.2.8-1.2 1.5-2.2 2.2-3.4.8-1.3 1-2.5 1.8-3.7l-.2-1.6c.1-.2.2-.2.2-.5 0-2.2-2.8-8.3-4.3-8.3-.5 0-.7.2-1.1.4-1.5-1-.5-2.9-3.2-4.3l-.5.2v.5c0 .5-.1.3-.4.5-.4-1.6-1.3-3.6-2.8-4.4l-.4 1c-.8-.6-1.3-3.4-2.9-3.4-.2 0-.5.4-.5.7v.5h-.4c-.4-1.5-1.4-3.6-3.1-3.2-1.1-.8-1.1-3.1-3.1-3.1-.3 0-.5.1-.5.4v2.8l-3 .6c0 2.1 2.3 2.1 4 2.5v.3l-.7.2v.7c0 .7-.1.1.2.5.8.6 3 1.4 4.3 1.4-.3 1.1-.9.1-.9 1.1 0 1.6 3.6 2 4.7 2.5l-.5.4v.5c0 1 2.3 1.7 3.1 2.2h.7l.4.7c-.1.3-.2.3-.2.7 0 .8 2.7 1.6 3.8 1.6l.4.5c-.2.3-.2.3-.2.7 0 1 3.4 1.8 4.3 1.8.6.4 1.3.6 1.3 1.6v.2c0 .8-.4.6-.4 1.8-1.1 1.6-1.8 3.1-2.7 4.8-.2.3-3.1 3.8-3.4 4-.4 1.4-2.7 1.8-3.1 3.2-2.4.1-3.8 3.3-5.6 3.4-.2.8-2.9 1.9-3.9 2.2-1.5.5-2.9 1.9-3.8 2.1.1-.3 2.2-2 2.7-2.4.5-.4.9-.6 1.4-1.2.5-.5.3-.7 1-1.5s1.3-2.1 1.8-3.2c.2-.5.7-1.4.7-1.8.2-1.3-.2-1 .4-2.1.7.5.7 1.4 1.1 2.3.2.5 1.1 1.7 1.6 1.7.8 0 1.4-1.9 2.3-2 .7-.1 1.4.1 2.1-.1 1.1-.2.5-.3 1.1-.8v-1.3c-.6-.3-2.2-1.4-2.2-2.2 0-.2 1.4-.9 1.7-1.2.9-.7.3-1.1.3-2.2l-.8-.6c.2-.7.5-.4.5-1V51c0-1.1-.7-2-1.6-2-.7 0-.4.5-1.3.7v-1.3c0-1.1-1.2-1.8-2.3-1.8h-.2c-1.3 0 0 1.1-1.4 1.3v-.7c-.4-.2-.9-.5-1.4-.5h-.9c-1.2 0-1.6 1.7-1.6 3.1l-1.8-.2c-.5.4-1.1.8-1.1 1.7v.7c0 .7.9.7.9 1.4 0 .8-.5.4-1.1.4h-1.1c-.7 0-1.8.9-1.8 1.4 0 .6.8 1.7 1.1 2.2 0 1.8.3 3.4 2.3 2.8 1.2-.3 1.9-1.9 3.1-1.9h.9c0 2.5-.8 3.2-1.6 4.9-1.2 2.4-.9 2-2.8 3.7-1.3 1.2-1.8 2.1-3.4 3.1-.9.6-2.8 2.3-3.9 2.4l.4-1.6.3.5 1.4-1.3-.1-.1c.7-.1 1.1-.5 1.3-1.1.7-.2 4-5.2 4.1-5.9-.7-.4-3.9-.7-5-.5l-5.9.7c-.1-1.1-2.2-4-2.2-4.3v-.2c0-1.2 1.2-1.2 1.8-2.3-.2-1 0-2.8-.4-3.7-.3-.7-1.7-2.2-1.7-2.2 0-.2 3.3-3.3 3.6-3.4v-.9s-1.6-3.5-1.6-3.8v-.5c1.5-.6 3.4-3.9 3.4-6.1 0-1.4-.4-1.8-.9-2.7l9 1.4-.2-.5c-1.5-.1-3-1.2-4.2-1.4-1.5-.3-3.2-.6-5-.6l-.2.5h-.4c-.3-1.3-1.5-2.2-2.4-3-.9-.9-.9-2.7-1.1-4.3-.4-2-.4-2.6-1.8-3.6-.6-.4-2.6-2.4-3.2-2.4h-1.1c-1.4 0-2.1.5-3.6.5-.5-2.1.1-2.1-1.1-3.8 0-2.1 0-3.1-.7-4.6l1.4 1.5.1-.1c-.1-1.3-1.3-1.6-1.6-2.7 1.4.3 1 1.7 2.7 1.8-.1-1.7-.9-1.2-1.3-2.3-.4-1-.7-1.6-1.8-1.9-1.1-.3-2.1-.4-2.6-1.1-.5-.6-1.3-1.4-2.2-1.6 0 2.7 4.2 3.1 4.5 4-.5-.1-.3-.2-.7-.2-.4 0-.3.4-.4.7l.8.3.7 1h-1.1L81.5 9 80 8.4c-.8-.6-1.6-.9-2.5-1.5-.8-.5-2.1-.9-2.7-1.3L70.3 5l-.5-.5-7.5.4-3.3.8c-1 .7-2.2.8-3.3 1.4-1.2.6-1.9 1-3 1.7-1.5.9-3.9 3.2-5 4.6-.4.5-.8.6-1 1.3-.4 1-.1.7-.7 1.6-.7 1-1.2 1.9-1.9 2.8-1 1.4-.2 2.2-2 2.6-.6.2-1.4.2-1.9.5-.6.4-.9.7-1.7.8.1-2.5 3.3-3.1 3.6-4.5l-2.7.9c.2-.7 0-.5.9-.6l.4-.9c.8-.1 2.9-1 3.1-1.6-1.7 0-3 1.1-4 1.8.1-.9.6-1.2 1.4-1.3l-.2-.1 1-1.3c.8-.1 2.1-.4 2.3-1.1l-1.3.2c.1-.6 2.3-1.7 2.9-1.8v-.4h-.7v-.5c.6-.2 1.5-1.3 1.6-2l2.5-.3c-.1-.4 0-.5-.5-.5h-1.6c.5-1.4 2.7-1.6 4.5-1.6.9-.6 1-.1 1.3-.9l-1.6.2v-.3l1.8-.6v-.5h-.9c.3-1.2 1 0 1.1-1.4l-1.6.4v-.4c1.1-.3.8-.9 2.3-.9.7 0 1 .2 1.4.4l.4-.2c.3.2.3.4.7.4h1.8c.3 0 1.2-.9 3.1-.9h.9c1.4 0 2.4.2 3.2.7 1.8 0 2 .8 3.2 1.1-.1-1-.6-1.2.6-.8.5.1 1.7.2 2.1.3 2.5.4 2.3 1 3.6 1.3l-.4-1 1.2.6c2.5.1 1.9 1.8 4.1 2v-.5c-.7-.1-.9-.7-1.1-1.4l.7.1v-.9c-.4-.1-2.2-.4-2.5-.6-.8-.5-1-.8-2-1l-.1.6-3.5-1.9-.1.2.1.3.4.6-3.1-1.1c-.3.1-.5.2-.7.2l-1.6-.2c-.1.1-.5.4-.5.3L62 1c-.5.9-2.1.8-3.4 1.1-.3-.2-1.2-.5-1.6-.5h-.5c-1.5 0-3.9.4-4.7 1-.7.4-1 .8-1.8 1.1-.5.2-2.4.2-2.4.7 0 .3.4.3.7.5h-1.1l.2.9-1.4.4c.1 1.1.6.7 1.8.7-.4.4-1.5.5-2.4 1.2-.4.3-1.9 1.2-1.9 1.7v.7c-.9.2-2.7.8-2.9 1.6h1.3c1.3 0 1.2-.5 2.5-.5-.6.9-2.9 1.7-4.4 1.9l.8.8c-.7 0-2-.1-2 .5s1.8.2 2.5.2l.1.2-3 2.2c-.5 0-1.3-.1-1.3.4 0 .7.9.5.9 1.1 0 0-2.5 4.5-2.5 4.7 0 .3.1.5.4.5.4 0 .7-.8 1.4-.5-.5.7-2.4 1.8-3.4 2.2-1.7.7-2.3.9-3.1 2.5-.8 1.7-1.4 1.5-1.3 4.3.1 1.6.4 3.7.5 5-.4.6-1.6 3-1.6 3.8v.9c0 2.9 3.2 5.2 3.2 5.2 0 .9-1.9.7-2.9.7-.6.4-.9.9-.9 2l-.7.8c-.4-.7-1.4-2.2-1.4-3.2v-.5c-.2 0-6.5 3.3-8.3 3.8v.7c0 .8 1.5 3.3 1.9 4.1.3.6.7 1.3 1.1 1.7.4.4.5.2.8.6.4.6-.1.7.7.9v.9l-2.3.3v.3l2.1.2.2-.5c.5.3 2.9 2.2 2.9 2.5 0 .7-1.3.7-2 .7l-.3.3-2.4.2v.4c-.4-.1-.4-.2-.9-.2h-.4c-1 0-1.4.2-2 .5l-2.5.4-.2.5c-1.3 0-2.9.1-3.1 1.3 1.6-.1 1.6-.7 4.2-.7l.5-.4s.3.2.4.2l1.3.1.7-.6c.7.3 3.1-.3 3.9-.6 1.1-.4 2.8-.1 4.4-.1.2.2 6.4 3.8 4.3 3.8h-.4c-.7 0-1.7-1.2-2.7-1.3-.1 1.5-2.1 1.5-3.6 2-.6.2-1.2.5-1.9.8-.9.4-.8.7-1.7 1.2-.2-.1-.2-.2-.5-.2-.5 0-1.2.9-1.3 1.4-1.2.3-2 .9-2.8 1.7-.4.4-.6 1.1-1 1.3-.6.4-.9.5-1.4.9-1.6 1.4-4 2.3-5 4.2.8 0 1.5-.5 1.6-1.1.8-.1 3.4-2.3 3.8-2.7l3.7-1.2c1.1-.7 1.6-.4 2.6-1.4.6-.6.5-.3 1.3-.6.7-.3.7-.6 1.2-1 .6-.5 1.8-1.1 2.5-1.5.8-.5 1.4-1.6 2.5-1.6-.1.3-.9 3.4-.9 3.4 0 .9 1.7.7 2.3.7l.1-.2-1.8-1.1.4-1.6c.2.1 1.6 1.3 1.6 1.3.2 0 .1-.2.7-.4.1 1 1.2 1.1 2 1.4l1-.3.8-.4c-.1-.1-.9-1.1-1.1-1.1-.1 0-.4.2-.5.3l-.8-.8h.4l-.4-.7.4-1.3.7.4c2.4.1 4.4 1.1 6.3 1.6 2.1.6 4.6.7 6.9 1 3.2.5 3.3 1.4 5.8 2.2 1.1.3 4.2 2.7 4.5 3.6-.7.2-1.2 1.1-1.8 1.1-.4 0-3.2-2.1-4-2.5-2.1-.8-2.8-.8-5.3-1.2-1.9-.3-2.8-1.1-4.9-1.6-2.2-.5-2.4-1.9-4.9-.8l-1.1-.4.3 1.1h.7v-.4h.4v.4c.5-.1.3-.2.7-.2.4 0 .2.1.7.2v.3l-.9.1v.3l1.3.1.5.4c1.9 0 5.8.7 6.8 1.4 1.3 0 9.4 2.6 9.4 3.6 0 .5-.4.7-.7.8l-5.2-.9h-1.1c-1.5 0-2 .5-3.1.5l-.5.4c-1.1 0-2.6 1-3.3 1.6-.9.7-2.1 1.3-3.3 1.8-1.2.5-5.9 3.3-6.8 3.3h-1.6v.4H26c-.2.1-.3.2-.7.2l-2.7-.2c.2.6 2.3 2.4 3 3.3.2.3 2.9 3.4 2.9 3.4l2.5-.6-.2-.6.8.1-.6-.8-2.9.5v-.7c0-.1-.8-1.6-.9-2.2.3-.1.5 0 .5-.4 0-.7-.5-.4-.5-1.1 0-.8 2-.7 2.8-1 1.1-.3 1.7-.9 2.7-1.3 1.7-.6 4.4-1.7 6.4-1.2v-.4h.5c.2.5 1 .9 1.6.7l4.5-.4-.2.5c-1.4 0-6.8 2.8-7 3.7l2.7-1.1-.2.5c-1.5.1-2 3.1-2 4.9v1.3c.2.7.2.7.3 1.1z"/><path class="st0" d="M120.5 87.6h.5c-.1-.7-.1-.7-.5-.5v-.4h-.5c0 .5-.1.9.5.9zM165.3 87.7V87c0-1.6-7.5-6.4-9.4-6.8.6.8 3.7 2.5 4.8 3.6.9.8 3.7 3.9 4.6 3.9zM51.8 86.7l-.3.2-.1.7.1.4c.5-.3.7-.5.7-1.3h-.4zM177.4 88.1l.7.2c-.1-.3 0-.5-.4-.5-.1-.1-.3.1-.3.3zM56.6 89.2h.7v-.6h-.7v.6zM117.4 87.8c-1.1-.1-2.4 1-3 1l-.8.1-1.2.7.1.2 3.6-1 .6-.3 1.6-.7v-.4l-.9.4zM37 89.4l-1.3 1 .9.2c.2-.8 1.1-.5 1.8-1.7l-1.4.5zM139.1 90.4l.9.3-1.1-.8.2.5zM163.5 91.3l.4.2c1-.5 1.7-1.4 2.6-1.9.8-.4 2.8-.9 2.9-1.6-1.3.4-5.8 2-5.9 3.3zM123.9 91.5l.7-.1-.7-.4v.5zM117.3 90.6l-.5-.2.1 1.7.9-.6-.2-.7.7-.4-.2.7.9-.2v-.4h-.5V90h.5v.4h.5l.8-1.4c-2.8 0-1.8.8-3 1.6zM156.9 91.9c.2 0 .4-.2.4-.4 0-1.6-3.8-3.5-4.5-4.3-.7-.8-1.4-1.6-2.3-2.2-.4-.2-2.8-1.6-2.9-1.6.5.7 3.9 3.3 4.8 4 .6.6 4.2 4.5 4.5 4.5zM162.3 92.1c.2 0 .5-.4.5-.5 0-.7-1.1-1.9-1.5-2.5-.2-.3-.6-.8-.9-1.1-.6-.6-.8-.5-1.2-.8-1.7-1.7-2.2-2.4-4.4-3.5.1.5 3.2 3.4 3.8 4.1.5.3 3.6 4.3 3.7 4.3zM56.4 92.1l.5.2v.7c-.7-.2-.4-.1-.5-.9zm-1.3.2l-.1.6.5.2.5-.7-.2.7c.7.2.2.3-.2.9-.1-.1-.4-.4-.5-.4-.3 0-.5.6-.5.9l-1.1-.3.8-.5-.3-.7.2-.3.4-.8 1-.4-.5.8zm6.4-4.2l-.2.5h-.4v-.4c-.7.2-.7.2-.7 1h-2l-.2.2-.3 1.4h-.4v-.5c-.5-.1-.3-.2-.7-.2-1.3 0-5.5 4-6.7 4.8-1.1.8-2.2 1.6-3 2.8-.5.8-.4 1.2-1 1.9-.4.6-1 .9-1.1 1.8h.7c.3-.6 1.8-2.4 2.3-2.7.6-.3 1-.5 1.6-.9.4-.2.4-.4.7-.6.4-.3.5-.1 1.1-.4 1.3-.8 2.1-.9 3.4-1.6 1.5-.8 2-1.3 3.1-2.1-.2-.3-.4-.3-.4-.7v-.5h.5v.5h.4c.1-.4 1-1.3 1.4-1.5.3-.2 1.8-1 1.9-1 .4-1.9 1.1.1 1.1-1.9l-1.1.1zM33 93v-.4h.7v-.4h-1.6c.1.8.1.7.9.8zM106.1 93.1c.3 0 .7 0 .7-.4 0-.3-.1-.5-.4-.5-.3 0-.3.5-.3.9zM114.9 92.6c0 .5.3.6.7.7l-.2-.5.4-.2h-.4v-.4c-.2.1-.5.1-.5.4zM61.4 92.4c1 .3 0 0 0 .6 0 .7.2.8.5 1l.8-.4.2-1.4h-.4v-.7l-.5-.3-.6 1.2zM66 91.9l-.8.7-2.8 1.8v.7c1.2-.1 1.6-2.2 3.1-1.6 0-2.1 1.7.3 2.2-1.7l-1.7.1zM128.6 92.8c.1.8.5 1.1 1.3 1.3 0-1.3-1.2-1.9-2.2-2.3.2.6.2.8.9 1zM130.2 94.4h.4v-.5h-.4v.5zM68.1 94.6h.4v-.4h-.4v.4zM29.3 95.1c.2.7.1.8.9.9l.2-.4c-.1-.2-.2-.7-.5-.7s-.6.2-.6.2zM65.3 96h.4c.2-.8.8-.8 1.1-2-1 .7-1.1 1-1.5 2zM94.9 96.6c.3-.1.6 0 .6-.3s-.2-.3-.4-.4l-.2.7zM69.5 96.8l.1-.6-.7.1.6.5zM78.4 96.4c.2.1.2.2.6.2.3 0 .5-.1.5-.4 0-.6-.3-.5-.9-.5l-.2.7zM35.4 96.9h.5v-.7h-.5v.7zM62.6 96.7h.4c.6-1 .8-.5.9-1.4.6-.2.6-.2.7-.9l-1.7 1.5-.3.8zM67.4 96.9h.4l1.2-2.3-1.3 1.5-.3.8zM89.2 96.4c0 .4.1.2.2.7h.7v-.5c0-.3-.1-.5-.4-.5-.3-.1-.5 0-.5.3zM70.3 96.6h.5c.5 0 .6.3.7.7l-.7.2c-.1-.3 0-.5-.4-.5-.3 0-.3.2-.4.4h.6l-.2.3.7.2.9-.1c-.1-.9-1.6-2.2-1.8-2.9-.9.1-.1.8.1 1.7zM72.6 96.9c.8.2.9.7.9 1.7v1.6c.3-.2.5-.2.5-.7 0-.7-.2-.4-.2-1.3 0-.6-.4-.3-.4-.9v-.5l-.4-.4-.4.5zM39.3 95.5H39v.7c0 .6-.5.5-.5 1.4l.1.6.8-1.7v-1h-.1zM67.4 98.4l.6.1v-.7h-.4l-.2.6z"/><path class="st0" d="M64.9 100.2h.4c.3-.4 1.2-1.5 1.3-2 .6-.2.7-.6.9-1.3-.8.5-.7.9-1.4 1.5-1.1.9-.6.6-1.2 1.8zM157.2 98.5c0 1.5 2.1-.7 2.3-.9.9-.8 1.9-1.1 2.5-2 1.3-1.7 4.6-3.1 5-3.8-1.5.2-9.8 5.7-9.8 6.7zM165.7 97.1c-.7.3-.3.6-.2 1.2l-1.1.5.1.2 2.1-.2 1.6-.9v-.7c-.9.2-.6.7-1.3.7h-.7c-.6.1-.5-.2-.5-.8zM68.3 99.3h.4l1.3-1.8c-1.2.3-1.2.8-1.7 1.8zM77.5 99.3l.5-.4-.5-.2v.6zM62.6 99.4h.4c.7-1 2.1-2.3 2.3-3.4-1.2.8-2.1 2.2-2.7 3.4zM75.7 97.8c-.8-.4-.6.1-1 .9l.1.9c.9-.1 1-.2 1.1-1.1l.9.4-.6-.7c.1-.1.4-.4.4-.5 0-.2-.2-.4-.4-.4s-.4.4-.5.5zM146.8 99.6c-.1-1.2-1.9-3.9-2.9-4.1-.1-.8-2.3-3.2-2.9-3.6.1.5 2.1 3.2 2.5 4.1.4.9 2.5 3.1 3.3 3.6zM114.9 96.6l.7 1.3c-.3.2-1.1.7-1.1 1.1 0 .7.7.8 1.3.9 1-.5 1.4-1 1.4-2.5.5-.8 1.2-1 1.3-2.3l.9-2c-.4.1-1.8 1.3-2.3 1.7-1.4.8-1.1.2-2.2 1.8zM59.9 100h.4c.7-1.1 2-1.8 2.3-3.2-.8.5-.7.9-1.4 1.5-1.2 1-.6.2-1.3 1.7zM70.9 99.9l.7-.4-.1-.1-.6.5zM69.8 100.2h.4l1.3-1.8c-1.3.3-1.3.8-1.7 1.8zM54.1 104.1c1.2-.6 3.1-3 4-4.1.6-.8 3.3-4.1 3.4-4.9h-.4c-.2.8-2.7 3.7-3.3 4.6-.5.7-1.2 1.6-1.7 2.2-.7.7-1.9 1-2 2.2zM123.5 93.5l-.5.1-.8 1.2c.6 1.2-.4 1.1-.4 1.8v.7c.6.2.3-.3.2.7.8.2 1.3 1.6 3.8 1.6v.5c.7.2.9.5 1.6.5h.2c.8 0 .8-.2 1.1-.7-1.1-.6-.2-.7-2-1.1V98c0-.6-1.1-1.2-1.6-1.4.2.6.4.5.4.7 0 .7-1.1.7-1.8.7h-.4c-.5 0-.5-.1-1-.2l.6-.8-.1-1 1.1-.8c-.2-.3-.4-.3-.4-.7 0-.6 1.1-1 1.6-1.1-.1-1-.6-.9-1.3-.7v-.5c0-.5-.5-1-.9-1.1l.6 2.4zM53.9 101.1l.5-.2c.2-.8.3-.2.4-1.1-.5.4-.7.5-.9 1.3zM114.4 92.1c-1.2-.6-.2.7-1.5 1.1l.4-.9-.8.2-.1.9-.5-.2-.6.2-1 .8.2 1.2-.9-.4c-.3.7-1.2 1.5-.7 2.5l-.6.2-.9 3.4.7.2 2.5-.5c1.2-.8.9-1.3 1.4-2.5l-.1-1 1.4-.8.2-1.1c.8-.2.6-.5.9-1.3 0 0-.2-.3-.2-.4 0-.3.2-.6.4-1.1l-.3-.2.7-.2c-.7-1-.4-.4-.6-.1zM65.3 102.7l2.7-2.3.4-1.1c-.8.6-1 1.2-1.6 1.7-1.6.9-.7.1-1.5 1.7zM176.5 94.6c.2 1.6-.7 3-.8 4.7l-.7 1.5.2.5c1.1-.3 1.1-1.3 1.6-2.2v-1.4c.2-.3.4-.3.4-.7v-1.6l-.2-2.2-.8-.5.3 1.9zM60.8 101.6c.7-.2.8-.1.9-.9.6-.2.7-.6.9-1.3l-1.8 1.8v.4zM68.7 100.9v-.7l-.4.2-.7 1.1c.8-.1.5-.2 1.1-.6zM63.3 102.1h.5l1.1-1.9-1.6 1.6v.3z"/><path class="st0" d="M68.9 100.9v.4c-1 .6-1.2 1.3-1.8 2.3h.4c.2-.4 2.2-2.9 2.3-3.1v-.4l-.9.8zM56.6 103.6h.3l.6-.9h.7c.1-.9 1.3-1.2 1.6-2.7-.9.6-1 1.6-2 1.8l-.1.6-1.2.8v.4h.1zM81.6 103.4l.2-.2-.2-.5-.5.2.5.5zM47.8 102.5c.7.6 0-.4.4.5l.4-.2v.5l1.1-.6-.6-.5-1.3.3zM75.3 103.2h.7c.4.6.8 1 1.6 1.3-.4-1.3-.9-.1-1.3-1.4l-1.1-.4v.5h.1zM122.9 100.7l.4.6-.2.3.3.4-.1.3.1.4c.3-.1.5 0 .5-.4 0-.2-.2-.1-.4-.7l2.9 1.8.8-.6.1.4.3-.1.6-.5c-.2-.7-.5-.9-1.4-.9l-1.8-.9h-.6l-.5-.4-1 .3zM59.3 103.4h.3l1.1-1.4v-.4c-1.3.9-.7.4-1.4 1.8zM83.3 103.6h.5c.3 0 .5-.1.5-.4 0-.2-.2-.4-.4-.4-.5.1-.5.4-.6.8zM131.5 103.9h.4v-.3h-.4v.3zM61.7 103.9h.4l1.3-1.8H63c-.4.6-.4.2-.8.7-.2.2-.4.9-.5 1.1zM49.4 103.6v.7h.3l.3-1.3c-.4.1-.6.1-.6.6zM128.4 103.2c0 .7.1.1-.2.5.3.2.7.5 1.1.5.3 0 .1-.4.7-.4h.7c-.1-1.1-.6-.7-1.1-.7-.4 0 .1.1-.3-.1l-.6.3v-.7h-.4v.6h.1zM115.3 104.3c.4.5-.1.3.7.3l-.2-.5-.5.2zM119.1 104.8h.5v-.5h-.5v.5zM125.6 104.5l1.1.2c-.1-.4 0-.5-.5-.5-.4-.1-.6 0-.6.3zM54.1 104.1h-.5l-.2.9h.3v-.5h.4v-.4zM56.6 106.8h.4c.7-1 2.1-2.3 2.3-3.4-1.1.8-2 2.1-2.7 3.4zM81.6 103.4h-.5c.1 1 .4.5.4.9 0 .2-.2.1-.4.7h.4v.4c.6-.4.3.1.2-.9h.3l.3.7.2-.1-.8-1.4v-.3h-.1zM65.6 105.6h.4l1.1-2-1.7 1.8.2.2zM122.5 105.4h.5v-.6h-.5v.6zM56.6 103.6c-1.2.3.1.7-1.3 1.1l-.2.9h.4c.1-.6.7-1.3 1.1-1.6v-.4z"/><path class="st0" d="M90.8 104.5c1.3 0 1.6-.7 1.8-.7 0 0 3.2 1.8 4.7 1.8 1.2 0 .9-.2 2.3 0 .3 0 2.3.3 2.5.3 1.4-.1 1.1-.3 1.6 1 .3.8.9 1.2 1 1.9-.5 0-1.6-.5-1.6-.5-.4 0-.8.4-1.1.5-1.4 0-2.9-.2-3.2.9l-2.9-.3c-.2.1-.2.2-.5.2-.2 0-2.8-1.1-3.3-1.2-1.6-.5-2-.4-3.6-1.1.5-.8 2.2-2.1 2.3-2.8zm-10.1-3.8h-.5c-.2-.6-.3-.5-1.1-.5l.4-.9c.8 0 1-.1 1.1-.9 1 0 2.2.1 3.2.2 1.8.2 1.5-.2 2.9-.2.1 0 2.2 1.3 2.5 1.4 1.8 0 2.9.5 2.9 2.3l-.6.9c-1 .1-.3.4-1 .4-.4 0-.9-.7-2.5-.7l-.2 1.1c-1-.1-.8-.8-1.3-1.5-.3-.4-1.1-.9-1.6-1.1-.7-.4-1.6-.4-2.4-.5-.9-.3-1.5-.6-1.8 0zm0 0c1.6.8 5.8.4 5.8 3.1 0 .3-.2.7-.4.9.6 2.4 1.2 2.9 3.4 3.8 1.6.7 3.7 1.5 5.6 1.7 2.3.3 4.1.4 6.4.8 1 .2 2.1.2 3.2.4.8.2 2.8 1 2.8 1 .5 0 .6-.3.7-.7-2.1-.6-4.3-6.4-5.2-7-3.5 0-9.1-.2-10.4-2.2 0-2.9-.9-2.8-3-3.7-1.1-.4-4.1-1.4-5.5-1.4h-1.8c-.9 0-3.6.5-4.1 1.1l.1.7.6-.2-.2.9h-.4v-.4h-.5v.4h-.5c.5.7 1.9 1.3 3.1 1.3.3 0 .3-.2.3-.5zM170.6 106.3c0 .1-1.1 3-1.4 3.6-.5.8-.5.9-.9 1.6-.2.3-1.1 1.6-.4 1.6.5 0 .7-.2 1.1-.4 0-.8.9-1.9 1.2-3 .2-.8.5-.9.6-1.4.2-1 0-.9.4-1.8l-.2-.5c.7-1.4.1-2.2.4-3.2h-.4l-.4 3.5zM154.7 105.6l.4.5c1.4-.3 1.8-1.3 2.6-2.3.8-1 1.7-1.9 2.3-2.7.8-1.1 1.3-1.6 2.3-2.6.7-.7 2.3-1.6 2.4-2.7-2.4.6-8.9 7.6-10 9.8zM51.7 106.4l.6.1-.1-.7-.5.6zM128.3 105.9l-2.7-.4c.3 1.1 4.9 1.1 5.6.7l.7.6c.9-.4 2.3-.5 2.5-1.4-.8.2-2 .6-3 .4-1.5-.3-1.7-.2-3.1.1zM107.4 103.6c.4-.2.5-.5.9-.5h.5c.4 0 .5.1.7.2.3-.1.3-.2.7-.2h2.3c-.2.7-1.4 1.9-2 2.3-1-.2-1.1-.5-2.3-.7-.8-.1-1.7-.5-1.8-1.3l1 .2zm-2.7-.2c.7 1.1 5.5 3.4 7.2 2.3l.9-1.7h.7v.7c0 .9.2 1.3.4 2 .9-.1 2.1-.8 2.5-.8l1.8.2c.1.1 1.8 1.1 1.8 1.1 1.2 0 3.5-.1 3.8-1l-.8-.2-2.9.2-1.3-.3c-.4-.6-1.5-.7-2.5-.7l-.5.3-1.6.2v-1.1c0-.6-.4-.4-.4-.7 0-.5.4-.7.7-.8l2.5-.2 1.1.5c.2-.7.7 0 1.4-.4.2.5-.3.4.5.2.2.7.8.9 1.4 1.1-.1-.7-.3-1.1-.8-1.3l-.1-1 1.1-.1h.7v-.4h.4l-.2-1.1c-.2.1-.2.2-.5.2h-.5v.4h-.4v-.9c-2.1 0-4.4 2.2-6.7 2.2h-.4l-2.2-.2c-.3-.2-.3-.4-.7-.4h-.1c-2.4 0-3.5.7-5.6.9l.1-.5V101l.1.1 1.4-2.4.2-1.1c-.1-.2-.2-.2-.2-.5 0-.1.5-1.2.7-1.5.4-.7.5-1.2.7-1.6.2-.3 2.2-2.4 2.2-2.5 0-.3-.1-.5-.4-.5-1.1 0-3.2 4.2-3.6 5.4-.7 2-1.9 4.3-1.9 7zM21.3 114.4l.5-.2.2.6-1.4-.4-.5.1-.4-.1v-.4c.6-.2.7-.2.7-.9l1.1.2-.2 1.1zm4.3-1.3v.6l-.6-.2.6-.4zm8.5-6.1c-1-.1-6.5 0-8.1.2-.6.1-2.1.7-3.4.9-.9.2-3.2.1-3.5 1l-.5-.2c-.2.6.3.3-.7.2v.5c-.5-.1-.3-.2-.7-.2-.1 0-1.9.7-2.1 1.2l2.1-.8.7.1 2.7-1 .1.2.3-.4.8.2.5-.4c.9 0 1.5.1 1.8-.5h1.1c.8 0 1.2-.6 1.6-.6l1.6.2c-.2.9-.7.7-1.4 1.1l.2.5h-.5c-.4 0-.4.1-.7.4h-.5c-.2.2-1.6 1.4-1.6 1.4-.2 0-.1-.2-.7-.4.1.2.5.6.5.7 0 .3-.4.1-.4.7v1.3H23l-.2-.5.2-.5h-.4v-.5c0-.6.6-.5-.4-.7 0 1-.2 1.6-1.3 1.6h-.7v.3l-.9.3-.6.9-.3.3c-.5-.1-.3-.2-.7-.2-.4 0-.4.5-.4.8l-.9.4-.7-.4v.7h-.8l-.6 1 .2.9c-1.1.6-1.8.6-2.4 1.7-.3.5-1.6 1.6-2.1 2.2-.7.8-3.9 3.6-5 3.6h-.4c-.4 0-.5-.1-.5-.5v-1.8c0-.9 2-1.2 2-2.7v-.7l.7-.7.6-1v-.9c.2-.3 2.1-1.9 2.6-2.3 2-1.7 1-.7 2.1-2.9L9.9 113c0 .6-1.1 1.4-1.5 1.5l-.4 1.1c-.8 0-3 1.5-3.7 1.9-1.2.8-2.7.9-3.3 2.2l.7 2.5c.5.4 1.6 3.9 1.8 4.7 1.8-.2 3.4-1.5 4.5-2.5.7-.6 1.2-1 2.2-1.4 1.1-.5.9-1.4 2-1.6l1.7-1.9c1 0 1.3-.8 2.2-1.3.5-.3 1.7-.9 2.3-1.1.7-.2 2-.9 2.4-1 1.2-.4 1.8.1 2.5-1h.7c.6-.4 1.6-1 2.3-1.3 1.1-.6 1.9-.2 2.2-1.5l-2.8.4.5-.5.4-1.1.4-1.1 1.6-.8c.3.1.3.2.7.2h.4c1 0 .7-1.3.9-1.6.1.1.4.4.5.4 1 0 .9-.5 1.4-.5h.5c0 1.9-3.3 2.9-3.5 4l-.5.6c1-.1 4-2.8 4.7-3.6 1.1-1.1 5.4-2.2 5.4-2.9 0-.7-.6-.6-1.1-.7v.4h.4l-.1.2-2.1.9-.5-.6c.5-1 2.5-4.9 2.5-5.9-.9 1-1.2 2.4-1.9 3.7-.4.9-1.9 1.9-2.2 3.2zM68.3 108.6c-.7 0-.3.1-1.1.2.2.7-.2.2.7.4l1.3-.7c-.4 0-.4.1-.9.1zM174 102.5l-.7 1.9-1.1 4.7.5.2c.9-.6.8-.7 1.2-1.9.1-.2.6-2.4.6-2.5 0-.5-.1-.5-.2-.9l.4-1.1-.2-.5.3-1.8c-.1-.6-.2-3.8-.7-3.8-.6 0 0 1.7 0 2.5.1 1.2-.1 1.9-.1 3.2zM51.6 108.8l.2-1.8c-1.1.3-.2 1.3-1.3.9l.2.5-.2.7-.4-.2v.5l1.3-.1-.2.7c.4-.1.5 0 .5-.5v-.5c.9-.2 2.3-1.4 2.4-2.2l.4-.6c-2.5 1.2-1 1.6-2.9 2.6zM154.2 109.3c0 .4.2 1.3.5 1.3.1 0 3.2-4.1 3.6-4.5.8-1 3.6-3.5 3.8-4.5-1.2.1-3.2 2.9-4 3.7-.4.6-3.9 3.8-3.9 4z"/><path class="st0" d="M73.7 104.5l-.9.6.1.1H72c-.4 1.1-2 .5-2.1 1.9l1-.8c.4.1.5.2 1.1.2h.5c.5 0 1.1-.7 1.3-1.1h.4c0 1.6-1.4 3.1-2.6 3.4l-.8-1.2-.2.1c.1 1.1.4.4.4 1.1v.5c-1.5.4-3.6 2.2-3.6 4.1v.2c0 2.4 4.2 2.9 5.8 3.6l.5-.2v-.5l-2.5-1c-1.1 0-1.4.1-2-.5-.2-.2-1-1.2-1-1.5v-.4c0-1 .3-1.4.9-1.8-.2-1.1.2-.5 1.2-1.1.6-.4 1.2-.7 1.6-1.1.6-.5 1-.5 1.6-1.1.8-.7.6-1.4 1.2-1.6l.4-1.2-.1-1.1-.5.2c-.8-.7-.5-1.5-1.3-2.1-.8-.7-1.1-1.2-1.9-1.7.3 1.7 2.4 1.9 2.4 4zM82.8 108.7l.4 2.4-.1.2-3.4-.6v-.4c.5-.1 1.3-.5 1.4-.5l.8-.1.9-1zm-2.8-3.3c-.7 1.4-.1 1.8-1.2 3.3-.7.8-1.9 1.2-2.2 2.3l.7.2.7-.3 5.8.8-.7-5-.9-.2-.8.2.2-1.1-.5.2c-1-1-.8-1.7-1.5-2.8-.2-.3-1.9-1.9-2.3-2 .2.9 1.1 1.3 1.7 1.9 1.2 1.1.5 1.3 1 2.5zM162.8 114.7c0 .2.2.4.4.4.6 0 1.6-1.4 1.6-2.2h.5v-.9c.6-.2 1.6-2.2 1.6-3.1l.3-.5.4-1.6c-1.5.1-1.7 2.6-2.4 3.9l-2.4 4z"/><path class="st0" d="M69.2 112.9c.9 1.2 2.9.9 4 1.4v-.3h.5c.1-1.2.5-.1.5-1.1v-.5h-.7c-.4 0-.5.1-.7.2-.3-.2-.3-.4-.7-.4-.7 0-.9.7-2.9.7zM82.5 116.4l.1-1.6 4.6 2.1c-.6.1-2.5.7-3.1.7H84c-.4 0-1.5-.7-1.5-1.2zm-5.2-2.9c-1.3 0-1.4-.5-1.6-.5-.3 0-.6.2-1.1.4v.4c.8.2 1.1.7 2.3 1 1.3.3 1.4-.6 2.2-.6.5 0 1.6.4 2 .5l-1 1 .2 1.2h.3l.2 1.8c-.2 0-5.6-2.5-5.6-1.3 0 .6 1.3.3 1.9.4.6.1 1 .4 1.5.7.4.2 2.6 1.6 2.9 1.6.3 0 2.5-1.7 3.5-1.9 1.5-.4 2.9-.3 4.3-1-.6-.8-4.3-2.7-5.8-2.7-1-.6-2.2-.9-3.8-.9-.8-.1-1.6-.1-2.4-.1zM52.5 118.8c.2.5-.1.9-1 1 0-1.1.7-1.4 1.7-1.5l-.7.5zm10.2-7.8c.2-.6 2-1.5 2-.7 0 .2-.5.7-.9.7h-1.1zm-1-7.1c-1.1.7-1 1.8-2.3 1.8l.1.2-2.1.9.1.2.4 1.3c-1.1.3-3 2.6-3.5 3.6-.7 1.4-.3 1.1-1.4 2.2-.6.6-1 1.9-1.5 1.9h-.2c-.3 0-.5-.1-.5-.4 0-.5 2.5-4.2 2.9-4.5.9-.9 1.1-1.7 1.6-2.2.7-.7 1.2-1 1.5-2.1-.7.5-4.7 5.2-4.9 5.9H51l-.5-1.1.7-.8c-.2-.4-.1.1-.1-.3l.2-.4c-.7.1-1.3.9-1.3 1.4 0 .3 1 1.4 1.3 1.8-.4.8-1.1 1.1-1.1 2v.2c0 .8 1.3.6 1.3 1.3 0 0-1.4 2-1.4 2.2 0 .8 1.1 1.8 2 1.8h.4c.5 0 2.4-4.2 3.4-4.7.2.1 1.8 1.1 1.8 1.1.5 0 1.5-2 1.7-2.6.8-1.6.4-1.5 2-2.3 1-.5 2-.7 3.2-1.1 1.4-.6 1.4-1.1 2.6-1.7l-.5-.4.1-.3-2.1.1-1.1.5.2-1.3c.4-.3 1.7-1.5 1.8-2.2-1.4.3-3.2 2.9-3.9 4.2-.7 1.4-.8 1.2-1.8 2.2-1.1 1-.2 2-1.9 2l-1.2 1.7c-.2-.1-.6-.3-.6-.8 0-.3.4-.5.7-.5l-.2-.5c.9-.6 3.4-4.5 4.4-5.7.4-.5.7-1 1-1.5.5-.8.6-.7 1.2-1.3.2-.2.9-1.1 1.1-1.4.4-.5.7-.9.9-1.6-.2.2-2.9 2.8-3.3 3.2-.6.6-.8 1.2-1.4 1.8-1.3 1.3-.5.5-1.3 2-.2.3-2.7 3.2-3 3.5-.9.7-1.8 4.1-2.3 4.1-.2 0-.4-.2-.4-.4 0-.5.8-1.3-.2-1.3h-.5v-1.1h.7c.2-.9 1.5-1.7 2-2.5.3-.5.5-1.1.9-1.4.6-.6.8-.1.9-1.3h.5v-.7c.8-.3 1.4-1.7 1.9-2.4.7-.7 1.5-.6 1.9-2.3z"/></svg>