<?xml version="1.0" encoding="utf-8"?>
<!-- Generator: Adobe Illustrator 21.0.0, SVG Export Plug-In . SVG Version: 6.00 Build 0)  -->
<svg version="1.1" id="Vrstva_1" xmlns="http://www.w3.org/2000/svg" xmlns:xlink="http://www.w3.org/1999/xlink" x="0px" y="0px"
	 viewBox="0 0 198.8 128.2" style="enable-background:new 0 0 198.8 128.2;" xml:space="preserve">
<style type="text/css">
	.st0{fill-rule:evenodd;clip-rule:evenodd;fill:#AF2324;}
</style>
<g>
	<path class="st0" d="M54.1,4c0.2,0.3,0,0.4,0.5,0.4H55c0.8-0.4,0.3,0,0.5-0.5h-0.9C54.4,3.9,54.1,4,54.1,4L54.1,4z"/>
	<path class="st0" d="M96.6,20.6l1.6,0.5c0,1.3-1,1.8,0.5,1.8c0-0.6-0.6-1.6,0-1.6c0.9,0,7.9,3.2,9.7,3.6c-0.2-0.7-4.1-2.5-5-2.9
		c-1-0.4-4.9-2.3-5.6-2.3h-0.7C96.5,19.7,96.6,20,96.6,20.6L96.6,20.6z"/>
	<path class="st0" d="M102.9,17.9c0,0.6,7,3.5,8.1,4.6c1.1,1.1,2.3,1.6,3.7,2.8c0.3,0.3,3.5,2.8,3.6,2.8c-0.6-2.1-12.3-11-15.1-11
		C103.1,17.8,102.9,17.7,102.9,17.9L102.9,17.9z"/>
	<path class="st0" d="M97.9,27.7c2.9-0.1,5.3,1.4,7.3,1.4c-0.9-1.2-5.6-2.3-7.9-2.5L97.9,27.7L97.9,27.7z"/>
	<path class="st0" d="M161,38.2c0.6-0.2,3.2-2.3,3.8-2.8c0.8-0.7,3.3-1.7,4.5-2.2c1.5-0.7,3.1-1.3,4.8-1.9c0.8-0.3,1.7-0.5,2.5-0.8
		c1.2-0.3,2.4,0.2,2.4-1l-1.3-0.4c-1.1,0.5-3.6,0.8-4.9,1.4c-1.5,0.7-2.8,1.3-4.4,2.1C166.2,33.9,162.3,36.3,161,38.2L161,38.2z"/>
	<path class="st0" d="M63.5,27.1l-3.6,0.4c0.2,0.9,1.4,0.3,2.5,1.1c1.6,0,3.6,0.3,4.8,0.7c0.8,0.3,1.4,0.2,2.3,0.5
		c0.3,0.1,2,0.9,2,0.9c0.3,0,0.5-0.1,0.5-0.4c0-0.7-1.3-1.4-1.9-1.7c-1-0.6-1.1-1.1-2.6-1.1c-0.7-0.5-1.9-0.7-3.1-0.7h-0.4
		C63.9,26.7,63.6,26.9,63.5,27.1L63.5,27.1z"/>
	<path class="st0" d="M63.5,32.1c-0.7,0-1.6,0-1.6,0.7c0,1.2,3.6,2.9,5.2,2.9c1.1,0,2.7,0,2.7-1.3c-1.5,0-2.3,0.6-1.4-1.3
		c0.5,0.3,1.1,0.9,1.8,0.9h0.7v-0.7c-1.4-0.3-2.5-2.2-4.5-2.2C65.6,31.2,63.9,31.8,63.5,32.1L63.5,32.1z"/>
	<path class="st0" d="M163.9,40.2c1.4-0.3,3-1.3,4.6-1.9c1.6-0.6,3-1.3,4.6-1.8c3.2-1,7-2,11.1-2c0-0.6-0.3-1.1-0.9-1.1h-0.7
		c-3.8,0-7.4,1.4-10.2,2.6C170.5,36.8,164.7,39,163.9,40.2L163.9,40.2z"/>
	<path class="st0" d="M115.1,22.6c0,0.1,4.3,3.9,4.7,4.3c0.8,0.7,3.8,4.6,4.5,4.7c0,0.6,1.6,2.6,2,3c0.8,0.8,1,2.4,1.9,3.1
		c0-1.9-4.1-7.6-5.3-8.8c-1.1-1.1-5.9-6.9-7.2-6.9C115.5,22,115.1,22.4,115.1,22.6L115.1,22.6z"/>
	<path class="st0" d="M103.1,36.4c0,0.5,0.3,0.5,0.5,0.7l5.1,0.6l0.5,0.4c1.5,0,2.3,0.1,3.6,0.2c1.1,0.1,1.9,0.6,3.1,0.7
		c-0.2-0.7-1.8-0.9-2.5-1.1c-0.9-0.3-2-0.5-3-0.8c-1.4-0.4-4.8-1-6.4-1h-0.4C103.3,36.1,103.1,36.2,103.1,36.4L103.1,36.4z"/>
	<path class="st0" d="M166.8,43.1l4.9-1.1c0.8-0.6,7-1.4,8.6-1.4h0.2c1.5,0,2.4,0,4,0c3.5,0,1.9-1.1,0.9-1.1h-4.1
		C178.2,39.5,167.8,41.8,166.8,43.1L166.8,43.1z"/>
	<path class="st0" d="M102.9,40.8l-0.4,0.7l1.1,0.4l3.4-0.1c2.7-0.1,3.9-0.1,6.3,0.2c1.1,0.1,2.1,0.5,2.9,0.6
		c1.1,0.1,2.1,0.1,3.1,0.4c-0.2-0.7-1.3-0.7-2.2-0.7l-0.5-0.4l-0.6,0l-0.5-0.3l-8.8-1h-0.2c-0.5,0-0.4,0-0.7,0.2l-0.3-0.1
		L102.9,40.8L102.9,40.8z"/>
	<path class="st0" d="M138.5,42.6c0,0.6,0.3,0.5,0.7,0.7l0.7-0.4c-0.1-0.3-0.4-0.9-0.7-0.9C138.9,42,138.5,42.3,138.5,42.6
		L138.5,42.6z"/>
	<path class="st0" d="M71.9,42.9c0,0.6,1.4,1,2,1.1l0.6-0.2l-0.4-1c-0.9-0.1-0.7-0.4-1.4-0.4C72.3,42.4,71.9,42.7,71.9,42.9
		L71.9,42.9z"/>
	<path class="st0" d="M148.2,45.8c1.1-0.7,3.3-3.6,4.4-4.8c0.8-0.9,1.3-1.6,2.3-2.4c1.2-0.8,1.4-1.5,2.3-2.3
		c0.5-0.5,2.1-1.3,2.8-1.8c1.1-0.8,1.4-1.2,2.7-2c1-0.6,5.2-2.6,6.5-2.9c0-0.5-0.1-0.9-0.7-0.9c-1.4,0-2.4,0.8-3.2,1.5
		c-0.7,0.6-2.2,0.9-3.2,1.5c-1.7,0.9-3.9,2.8-5.2,4.1c-0.5,0.5-1.9,1.8-2.5,2.2c-0.8,0.6-1.5,1.6-2.3,2.4c-1.2,1.2-1.1,1.3-2,2.7
		C149.6,43.9,148.3,44.5,148.2,45.8L148.2,45.8z"/>
	<path class="st0" d="M105,45.3c0,1.1,4.8,0.1,5.4-0.1l2.5,0.3c1.6,0.2,2.5-0.3,4.7,0.2c1.2,0.3,4,0.1,4.9,0.5l0.7-0.1v-0.4
		c-0.3,0-3.8-0.6-4.3-0.7c-1.2-0.2-3.9-0.2-4.7-0.5C112.9,44.1,105,44,105,45.3L105,45.3z"/>
	<path class="st0" d="M26,46.3c0,0.2,0.4,0.5,0.5,0.5c0.1,0,0.4-0.2,0.5-0.4C27,46.4,26.8,46,26.6,46C26.3,46,26,46.1,26,46.3
		L26,46.3z"/>
	<path class="st0" d="M162.1,48.5c1.4,0,4.1-1.1,5.6-1.2c2.2-0.3,3.6-0.9,5.9-0.9c2.2,0,4.3-0.1,6.1,0c0.8,0,2.1,0.4,3.1,0.4
		c1,0,2.9,0.4,2.9-0.4c0-0.9-3.2-1.1-4.3-1l-2.7,0c-1.8,0-3,0.2-4.7,0.2c-1.8,0-2.9,0.5-4.3,0.7C167.9,46.4,163,47.7,162.1,48.5
		L162.1,48.5z"/>
	<polygon class="st0" points="131.3,47.2 131.7,47.2 131.7,46.9 131.3,46.9 131.3,47.2 	"/>
	<path class="st0" d="M28,46.7v0.5c0.5,0.1,0.3,0.2,0.7,0.2c0.2,0,0.5-0.4,0.5-0.5C29.3,46.3,28,45.8,28,46.7L28,46.7z"/>
	<path class="st0" d="M70.1,47.2l4.1,0.2l1.3,0l1.6-0.2c-0.2,0.3-0.9,1.3-1.4,1.3h-3.2C72.1,48.5,70.3,47.5,70.1,47.2L70.1,47.2z
		 M71.7,45.9c-2.2,0.4-2.6-0.5-3.9-0.5c-0.3,0-0.4,0.2-0.4,0.5v0.2c0,0.7,1.7,1.4,2.4,2.1c0.8,0.9,1.2,2,2.5,2v0.4
		c2.1,0,3.4,0,4.3-1.3c0.4-0.5,2.4-2.7,2.4-3c0-0.9-0.7-0.3-1.3-0.4l-2-0.2l-0.2,0.6C73.8,45.9,74.1,45.6,71.7,45.9L71.7,45.9z"/>
	<path class="st0" d="M139.8,50.5c1.2-0.3,2.6-3.6,3.5-4.6c1.3-1.5,2.4-3,3.6-4.5c1-1.2,2.9-3,4.1-4c0.7-0.6,4.4-2.9,4.4-3.7V33
		h-0.7c-1.3,0-7.4,6.4-8.4,7.6c-0.5,0.6-1.3,1.6-1.7,2.3c-0.6,0.9-1.3,1.6-1.8,2.3c-0.4,0.6-1,1.9-1.3,2.7
		C141.2,48.2,140,50.1,139.8,50.5L139.8,50.5z"/>
	<polygon class="st0" points="98.6,50.5 99.1,50.5 99.1,49.9 98.6,49.9 98.6,50.5 	"/>
	<path class="st0" d="M166.4,51.2l-0.5,0.4c-1.9,0-4.2,1.2-5.8,1.8c-0.8,0.3-1.6,0.7-2.7,1.1c-0.7,0.3-2.2,0.7-2.4,1.4
		c0.1,0,6.6-2.5,7.3-2.8c2.2-0.9,5.7-1.2,8.4-1.7c1.3-0.2,3.3-0.3,4.6-0.4c1.7-0.1,3,0.4,4.7,0.4c1.9,0,2.8,0.2,4.7,0.4
		c1.4,0.1,2.8,0.7,4.3,0.7l0.5-0.4c-0.7-1.1-4.9-1.9-5.9-1.5l-3.2-0.3l-2,0.1l-2.5-0.1l-1.8,0L166.4,51.2L166.4,51.2z"/>
	<path class="st0" d="M92.8,52.6l0.4,1.1c0.4-0.1,0.5,0,0.5-0.5V53c0-0.3-0.1-0.5-0.4-0.5C93.1,52.5,92.8,52.6,92.8,52.6L92.8,52.6z
		"/>
	<polygon class="st0" points="40.4,54.4 41,54.1 40.4,53.9 40.4,54.4 	"/>
	<path class="st0" d="M100.4,54.8c0.4,0,0.9,0.1,0.9-0.4c0-0.6-0.3-0.5-0.9-0.5V54.8L100.4,54.8z"/>
	<path class="st0" d="M43.7,51.7c0,1.4-2,2.5-2.2,4h0.4c0.3-1,1.1-1,1.7-1.7c0.1-0.1,1.2-2.4,1.2-2.4v-0.2c0-0.7-1.7-2.5-2.9-2.5
		C42.3,49.5,43.7,50.3,43.7,51.7L43.7,51.7z"/>
	<path class="st0" d="M78.6,56.1L78,57.7l0.4,1.8c1.1-0.3,0.2-0.8,0.6-1.9c0.1-0.2,0.7-1.1,1-1.5c0.8,0,1.8,0,2-0.7
		C80,55.3,79.8,55.7,78.6,56.1L78.6,56.1z"/>
	<path class="st0" d="M114.6,55.3c0,0.6,0.7,0.9,1.3,0.9h0.5c0.6,0,0.7-0.7,1.1-0.7c0.4,0-0.1,0.3,0.9,0.3l0.2-0.5l-0.1-1.4
		c-0.4-0.7-1.3-0.8-2.3-0.5C115.9,53.5,114.6,55.2,114.6,55.3L114.6,55.3z"/>
	<path class="st0" d="M125.6,55.7c0,0.4,0.3,0.7,0.7,0.7h0.4c0.1-0.2,0.4-0.6,0.4-0.9c0-0.2-0.4-0.5-0.7-0.5
		C125.9,55,125.6,55.3,125.6,55.7L125.6,55.7z"/>
	<path class="st0" d="M17.6,56.4c0,0.2,0.2,0.4,0.4,0.4c0.3,0,0.5-0.1,0.5-0.4c0-0.2-0.2-0.4-0.4-0.4C17.8,56.1,17.6,56.2,17.6,56.4
		L17.6,56.4z"/>
	<path class="st0" d="M104.1,56.2v0.2c0,0.8,0.5,0.4,1.1,0.4v-0.5c0-0.4-0.1-0.5-0.5-0.5C104.3,55.7,104.1,55.8,104.1,56.2
		L104.1,56.2z"/>
	<path class="st0" d="M52.3,56.6c0,0.3,0.1,0.5,0.4,0.5c0.4,0,0.4-0.5,0.4-0.9C52.7,56.3,52.3,56.2,52.3,56.6L52.3,56.6z"/>
	<path class="st0" d="M171.1,53.9l-0.5,0.4c-0.9,0-1.2-0.1-1.4,0.5l3.6-0.5h5c2.6,0,5,0.5,7.3,1c1.5,0.3,5.9,1.9,6.6,1.9h1.4v-0.7
		c-1.5-0.8-7.9-2.3-10.1-2.5c-1.9-0.2-4-0.2-6.1-0.2c-1.1,0-2.1-0.3-2.9-0.2C172.9,53.7,172.8,53.9,171.1,53.9L171.1,53.9z"/>
	<path class="st0" d="M124.5,57.1c0,0.2,0.2,0.4,0.4,0.4c0.2,0,0.4-0.2,0.4-0.4c0-0.2-0.2-0.4-0.4-0.4
		C124.7,56.8,124.5,57,124.5,57.1L124.5,57.1z"/>
	<path class="st0" d="M95.5,54.1v0.2c0,0.2-1.2,2.1-1.4,2.3v1.3c0.2-0.2,2.7-3.5,2.7-3.6v-0.2c0-0.9-1.3-2.3-2-2.5
		C94.9,52.6,95.5,52.8,95.5,54.1L95.5,54.1z"/>
	<path class="st0" d="M66.9,56.8c0.4,0.6,2.5,1.6,3.6,1.6H71c-0.2-0.7-0.1-0.5-1.1-0.5L66.9,56.8L66.9,56.8z"/>
	<path class="st0" d="M18.3,58.4l0.2,0.7l0.5,0.2c0.2-0.3,0.5-0.8,0.5-1.1c0-0.3-0.1-0.5-0.4-0.5C18.7,57.7,18.5,58.1,18.3,58.4
		L18.3,58.4z"/>
	<polygon class="st0" points="145.4,59.1 146,59 145.4,58.6 145.4,59.1 	"/>
	<path class="st0" d="M31.4,55.7v1.1c0,1,1.2,2.5,2,2.7c-0.1-0.3-1.3-2.2-1.3-2.3c0-0.7,0.5-1.2,0.5-2.5v-0.7c0-0.6-1.3-3.4-1.6-3.8
		c0,1.1,0.6,1.7,0.7,2.7C32.1,55,31.4,54.5,31.4,55.7L31.4,55.7z"/>
	<path class="st0" d="M37.5,53c0,0.3,1.4,3.3,1.4,3.6v0.7c0,1-0.4,1-0.4,2.2c0.4-0.3,1.3-2.3,1.3-2.7c0-1.5-1.3-3-1.3-4v-0.2
		c0-1,0.3-1.3,0.4-2.2C38.4,50.6,37.5,52.4,37.5,53L37.5,53z"/>
	<path class="st0" d="M102.2,58.9c0,0.3,0.3,0.7,0.5,0.7c0.3,0,0.7-0.3,0.7-0.5c0-0.4-0.3-0.7-0.7-0.7
		C102.3,58.4,102.2,58.5,102.2,58.9L102.2,58.9z"/>
	<path class="st0" d="M34.7,55.7c0,0.7,0,0.5-0.2,0.9c0.1,0.4,0.2,0.5,0.2,1.1V58c0,0.5-0.1,0.4-0.5,0.6l-0.6,1.8c1.2,0,2-1.2,2-2.2
		v-0.4c0-0.4-0.4-2.4-0.5-2.9h-0.4V55.7L34.7,55.7z"/>
	<path class="st0" d="M99.1,59.7v0.2c0,0.6,0.5,0.6,1.1,0.7c0.4-0.2,0.9-0.7,0.9-1.3c0-0.2-0.5-0.7-0.9-0.7h-0.4
		C99.3,58.6,99.1,59.1,99.1,59.7L99.1,59.7z"/>
	<path class="st0" d="M142.8,60.6l0.8-0.2c-0.1-0.8-0.1-0.7-0.9-0.7L142.8,60.6L142.8,60.6z"/>
	<polygon class="st0" points="112.4,61.1 113,61.1 113,60.7 112.4,60.7 112.4,61.1 	"/>
	<path class="st0" d="M156.5,60c0.4,0.6,1.3,1.4,2.3,1.4c0.1-0.5,0.2-0.3,0.2-0.7c0-0.5-1.5-0.9-2.2-0.9
		C156.8,59.8,156.5,60,156.5,60L156.5,60z"/>
	<path class="st0" d="M14.7,60.9c-1.2,0-1.3,0.4-1.8,0.4c-0.5,0-0.7-0.1-1.1-0.2c-0.2,0.1-0.7,0.2-0.7,0.5c0,0.1,0.2,0.4,0.4,0.3
		l6.3-1l0.1,0.2l0.3-0.4c0.2,0.1,0.2,0.2,0.5,0.2h0.7c-0.1-0.4,0-0.5-0.5-0.5h-3.2C15.2,60.4,15,60.7,14.7,60.9L14.7,60.9z"/>
	<polygon class="st0" points="37.9,62.2 38.6,62.3 38.8,62.2 38.4,61.3 37.7,61.3 37.9,62.2 	"/>
	<path class="st0" d="M89.6,62.7V62c0-0.9-0.2-1.4-0.9-1.6l0.2,1.6c0.1,0.6,0.1,0.8,0.2,1.3C89.4,63.2,89.6,63.2,89.6,62.7
		L89.6,62.7z"/>
	<polygon class="st0" points="137.1,62.4 137.1,62.7 138.5,62.5 138.5,62.2 137.1,62.4 	"/>
	<path class="st0" d="M53.7,62.9v-1.1c0-0.9-0.6-2.2-1.4-2.3C52.4,60.4,52.9,62.7,53.7,62.9L53.7,62.9z"/>
	<path class="st0" d="M10.7,64.5c0.5,0.7,2.5-0.4,3.6-0.5v-0.5l0.9-0.1L15,63l1.9,0.2l-0.6-0.6l-1.8-0.2c-0.6,0.3-1.4,0.5-1.8,1.1
		C12.2,64,13,63.9,12,64.2C11.5,64.3,11.2,64.3,10.7,64.5L10.7,64.5z"/>
	<path class="st0" d="M197.2,63.3c0.7,0,0.1-0.9-0.2-1.2c-0.4-0.3-1.1-0.5-1.6-0.7c-1.4-0.6-1.8-0.7-3.5-1c-2.4-0.5-4.2-1.7-7.3-1.7
		c0.7,0.5,5.2,1.6,6.5,2.2C191.6,61,197,63.3,197.2,63.3L197.2,63.3z"/>
	<path class="st0" d="M115.7,64.9c-0.6,0.2-0.5,0-0.5,0.7h0.5V64.9L115.7,64.9z"/>
	<path class="st0" d="M168.9,66.7c1.3,0,4.9,0.4,5.2-0.9h-0.5C172.4,65.8,169.5,66.2,168.9,66.7L168.9,66.7z"/>
	<path class="st0" d="M66.3,62.2c0,0.5,0,0.4-0.2,0.7c0.6,1.2,0.7,1.7,1.4,2.9c0.5,0.8,0.5,0.6,0.9,1.2c0.7,0.9-0.1,1,0.9,1.3
		c0-2.1-1.8-3.8-1.8-4.5v-0.5c0-0.9,1.2-1.1,2.2-1.1h0.9l0-0.3L68,61.6h-1.6V62.2L66.3,62.2z"/>
	<path class="st0" d="M60.2,67.8c0,0.4,0.1,0.2,0.2,0.7c0.3,0,0.7,0,0.7-0.4c0-0.3-0.5-0.6-0.7-0.7C60.4,67.4,60.2,67.7,60.2,67.8
		L60.2,67.8z"/>
	<path class="st0" d="M197,68.7c0.1-0.2,0.4-0.6,0.4-0.9c0-0.9-5.4-2.7-6.3-3.2c-1.5-0.9-5-2.3-7.4-2.3c0.4,0.3,5.8,2.4,7,2.9
		c1.1,0.6,1.9,1.2,3.2,1.7C195.1,67.3,195.9,68.4,197,68.7L197,68.7z"/>
	<path class="st0" d="M180.1,69.6c0,0.2,0.2,0.4,0.4,0.4c0.3,0,0.5-0.1,0.5-0.4c0-0.3-0.1-0.5-0.4-0.5
		C180.5,69,180.1,69.4,180.1,69.6L180.1,69.6z"/>
	<path class="st0" d="M84.2,56.6l-0.3-0.9l-0.3,0c0,2-1.1,1.8-1.8,2.9l-0.1,1.1c0.1,0.7,0.2,1.6,0.3,2.3c0.1,0.9,0.5,1.2,0.5,2
		c0,3.9-2.1,4.8-2.5,6.7c0.8-0.1,1.5-1.4,1.8-1.9c0.4-0.8,1.2-1.8,1.4-2.4c0.3-0.8-0.1-5.7-0.4-6.7l0.4-0.5l0-0.7L84.2,56.6
		L84.2,56.6z"/>
	<path class="st0" d="M180.6,65.6c2,0.5,4.9,1.7,6.9,2.3c0.3,0.1,3,1.4,3.2,1.5c0.2,0.1,2.9,2.2,2.9,1c0-1.2-4.5-2.9-5.7-3.3
		c-1.6-0.5-5.6-2-7.2-2V65.6L180.6,65.6z"/>
	<path class="st0" d="M71.9,70.5h-0.4c0.1,1,0.5,1.9,1.6,2C73.1,71.1,72.2,71.1,71.9,70.5L71.9,70.5z"/>
	<path class="st0" d="M75.3,68.5c0-0.9,1.4-4.1,1.6-6.1c-1.1,0.3-1.2,2.2-1.7,3.2c-0.1,0.3-1.4,3.5-1.4,3.5c0,2.9,1.5,3.7,3.8,4.3
		c-0.4-1.3-2.3-1.9-2.3-3.8V68.5L75.3,68.5z"/>
	<path class="st0" d="M30.9,73.5c-0.1-0.5-0.3-0.9-0.9-0.9h-0.5C29.6,72.9,30.5,73.5,30.9,73.5L30.9,73.5z"/>
	<path class="st0" d="M31.2,73.9h1.4c0.7,0,0.1-0.1,0.6,0.2L33,73.5l-0.5,0.2c-0.2-0.2-0.3-0.4-0.7-0.4
		C31.4,73.3,31.2,73.5,31.2,73.9L31.2,73.9z"/>
	<polygon class="st0" points="33.3,73.8 33.9,73.9 33.8,73.3 33.3,73.8 	"/>
	<polygon class="st0" points="128.1,74.1 128.4,74.1 128.4,73.5 128.1,73.5 128.1,74.1 	"/>
	<path class="st0" d="M34.3,73.6c0.2,0.3,0,0.3,0.5,0.3c0.5,0,0.5,0.1,0.9,0.2c-0.1-0.9,0.2-0.3-0.5-0.7L34.3,73.6L34.3,73.6z"/>
	<polygon class="st0" points="158.1,74.4 158.5,74.4 158.5,74.1 158.1,74.1 158.1,74.4 	"/>
	<path class="st0" d="M129.5,74.8h0.5c0.7,0,0.8-0.1,0.9-0.7C130.2,74.1,129.7,74.2,129.5,74.8L129.5,74.8z"/>
	<path class="st0" d="M35.7,76c-0.2-0.6,0-0.5-0.7-0.5C35.2,76.2,35,76,35.7,76L35.7,76z"/>
	<path class="st0" d="M169.8,76.2c-1-0.9-2.1-1.6-3.6-2C166.6,74.8,168.9,76.1,169.8,76.2L169.8,76.2z"/>
	<path class="st0" d="M39.3,76c0,0.4,0.1,0.2,0.2,0.7c0.3-0.1,0.7-0.2,0.7-0.5c0-0.3-0.1-0.5-0.4-0.5C39.6,75.7,39.3,75.8,39.3,76
		L39.3,76z"/>
	<path class="st0" d="M115.7,77c0,0.6,0,0.6,0.7,0.7l0.2-0.5l-0.3-0.4L115.7,77L115.7,77z"/>
	<path class="st0" d="M44.7,76.9v0.4c0,0.4,0.3,0.7,0.7,0.7h0.2c0.4,0,0.5-0.1,0.5-0.5c0-0.6-0.2-1.1-0.7-1.1h-0.2
		C44.9,76.4,44.7,76.5,44.7,76.9L44.7,76.9z"/>
	<polygon class="st0" points="42.6,78.2 43.2,78.1 42.6,77.7 42.6,78.2 	"/>
	<polygon class="st0" points="47.4,77.8 48,78.4 48.1,77.6 47.4,77.8 	"/>
	<path class="st0" d="M33.8,76.8h-0.5c-0.3-0.9-0.1,0.1-0.8,0.6l0.2,0.5l-0.3,0.4c0.2,0.2,0.3,0.5,0.5,0.5c0.9,0,2.1-1.4,2.2-2.3
		c-0.6-0.2-0.5-0.4-0.7-0.4C34,76,33.8,76.5,33.8,76.8L33.8,76.8z"/>
	<path class="st0" d="M175.2,78.7c0-0.9,0-0.9-0.9-0.9C174.5,78.6,174.4,78.7,175.2,78.7L175.2,78.7z"/>
	<polygon class="st0" points="38.8,79.1 39.2,78.6 38.6,78.6 38.8,79.1 	"/>
	<path class="st0" d="M168.4,79.5c0-0.9,0.2-0.7-0.5-0.9C167.9,79.4,167.7,79.3,168.4,79.5L168.4,79.5z"/>
	<path class="st0" d="M26.4,79.6l0.5,0.2v0.7h-0.5V79.6L26.4,79.6z M25.1,79.9l-0.1,0.6l0.5,0.2l0.5-0.7l-0.2,0.7
		c0.7,0.2,0.2,0.3-0.2,0.9c-0.1-0.1-0.4-0.4-0.5-0.4c-0.8,0,0.5,1.2-1.7,0.7l0.8-0.5L24,80.6l0.2-0.3l0.4-0.8l1-0.4L25.1,79.9
		L25.1,79.9z M31.1,76.1l-0.3,0.1v-0.4c-0.7,0.2-0.7,0.2-0.7,1l-2,0L27.9,77l-0.3,1.4h-0.4v-0.5c-0.5-0.1-0.3-0.2-0.7-0.2
		c-1.3,0-5.5,4-6.7,4.8c-1.1,0.9-2.1,1.6-3,2.8c-0.5,0.8-0.4,1.2-1,1.9c-0.4,0.6-1,0.9-1.1,1.8c1.3,0,1.9-1.8,2.7-2.5
		c0.5-0.4,2.7-1.7,3.4-2c0.7-0.3,0.5-0.5,1.6-0.9c0.8-0.2,1.2-0.5,1.9-0.8c1.5-0.8,2-1.3,3.3-2.1c-0.2-0.3-0.4-0.3-0.4-0.7v-0.5H28
		V80h0.4c0.1-0.4,1-1.3,1.4-1.5c0.3-0.2,1.8-1,1.8-1l0.4-1.1h0.7v-0.8l-0.8-0.1L31.1,76.1L31.1,76.1z"/>
	<path class="st0" d="M29.8,80l0.2,0.2c0.5-0.3,0.7-0.3,0.9-0.9C30.1,79.3,30.1,79.5,29.8,80L29.8,80z"/>
	<path class="st0" d="M161.9,80.4h0.4c0.3,0,0.5-0.1,0.5-0.4c0-2.1-8.5-5.2-10.6-5.9c-1.1-0.3-2-0.6-3.3-0.9c-1-0.2-2.8-0.6-3.5-0.6
		c-1.4,0-6.7-0.3-7.7-0.5c0.2,0.9,1.6,0.3,3,0.6c0.8,0.1,3.1,0.5,3.7,0.5c2.6,0.1,4.9,0.6,6.8,1.5c0.9,0.4,2.1,0.7,3.1,1.1
		c0.9,0.3,1.6,1,2.7,1.5C157.7,77.5,161.7,80.4,161.9,80.4L161.9,80.4z"/>
	<path class="st0" d="M152.9,92.2c-0.1-1.5-0.9-1.8-1.8-2.5c-0.7-0.6-1.9-1.7-2.4-2.1c-0.8-0.6-1.9-1.5-2.7-1.8
		c-0.7-0.3-2.4-1.3-2.7-1.8l-5-2.8c0.7,0.9,6,3.9,7.5,5.3c1.2,1,2.2,1.9,3.3,3C149.8,90.1,152,92.2,152.9,92.2L152.9,92.2z"/>
	<path class="st0" d="M112.4,82.3c0.4,0,0.9,0.1,0.9-0.4c0-0.4-0.5-0.4-0.9-0.4V82.3L112.4,82.3z"/>
	<path class="st0" d="M102.2,81.8v0.4c0,0.6,0.3,0.5,0.7,0.7c0.2-0.1,0.9-0.4,0.9-0.7c0-0.6-0.5-0.9-0.9-1.1
		C102.5,81.3,102.2,81.2,102.2,81.8L102.2,81.8z"/>
	<polygon class="st0" points="108.8,82.9 109.4,82.9 109.4,82.3 108.8,82.3 108.8,82.9 	"/>
	<path class="st0" d="M146.8,91.3c0-1.2-6.8-5.5-8.1-6.3c-1.3-0.9-8.2-4.9-9.4-5.2c0.5,0.8,3.5,2.2,4.6,2.8c1.3,0.7,3.6,2.4,4.5,2.8
		c1.2,0.5,3.2,2.2,4.3,3.1c0.5,0.4,0.6,0.3,1,0.8c0.4,0.4,0.6,0.6,1,1C144.9,90.4,146.8,92.5,146.8,91.3L146.8,91.3z"/>
	<path class="st0" d="M78.9,82.2l-0.2,0.9c0.8-0.1,1.7-1.4,1.8-2.3c0.7-0.2,0.5-0.3,0.7-1.1C80.5,79.9,79.4,81.5,78.9,82.2
		L78.9,82.2z"/>
	<path class="st0" d="M98.6,83.6c0.3,0,0.5-0.1,0.5-0.4c0-0.6-0.3-0.5-0.9-0.5C98.2,83.1,98.1,83.6,98.6,83.6L98.6,83.6z"/>
	<path class="st0" d="M172.5,82.9c0,0.3,0.1,0.5,0.4,0.5c0.4,0,0.3-0.4,0.3-0.7l-0.5-0.2C172.7,82.5,172.5,82.9,172.5,82.9
		L172.5,82.9z"/>
	<polygon class="st0" points="100.2,84 100.9,84 100.9,83.4 100.2,83.4 100.2,84 	"/>
	<path class="st0" d="M125.6,84.5v-0.9h-0.7C124.9,84.4,124.8,84.4,125.6,84.5L125.6,84.5z"/>
	<path class="st0" d="M145,101.1v0.9c0,1.4-1.6,4.5-0.9,4.5c0.7,0,2.1-2.3,2.5-2.9l0.2-1.1l-0.1-0.3l0.6-1.8l-0.2-0.1l-0.3,0.8h-0.4
		l-0.1-0.6l-0.8,0.6l-0.1-1.1l0.2-0.7l-0.2-0.5c-0.8,0.2-1.6-0.6-2.1-1.3c-0.2-0.3-1.3-2.3-1.3-2.4c-0.8-0.2-1.2-1.7-1.9-2.6
		c-0.8-0.9-2.1-1.2-2.2-2.3l-0.9,0v-0.4h-0.5c-0.1-0.8-2.3-2.5-3.1-2.7c0.1-0.7,0.3-0.9-0.5-0.5c-0.9-0.6-3.2-1.5-3.4-2.5l-0.1,0.2
		l-1.4-0.9l0.1-0.2c0.6,0.2,2.3,1.2,3.1,1.6c0.7,0.3,2.6,1.4,2.7,2.1l0.9,0.1c-0.3-0.9-9.1-5.9-10.9-6l-1.7-0.5c0,0,6,3.5,6.8,4
		c2.1,1.4,4.6,2.9,6.3,4.7c0.9,0.9,1.8,2,2.7,2.7c1.4,1.2,1.5,1.4,2.7,2.7C141.3,95.2,145,100.2,145,101.1L145,101.1z"/>
	<path class="st0" d="M171.3,84.1c0,0.3,0.3,0.7,0.5,0.7c0.2,0,0.5-0.4,0.5-0.5c0-0.4-0.1-0.5-0.5-0.5
		C171.5,83.8,171.3,83.9,171.3,84.1L171.3,84.1z"/>
	<path class="st0" d="M119.6,86.3c0.5-0.3,0.5-0.2,0.5-0.9h-0.5V86.3L119.6,86.3z"/>
	<path class="st0" d="M125.7,85.9v0.2c0,0.6,1.3,1,1.3,0.2v-0.2c0-0.4-0.3-0.7-0.7-0.7C125.9,85.4,125.7,85.5,125.7,85.9L125.7,85.9
		z"/>
	<path class="st0" d="M132,99.4l0.5-0.2l0.2,0.7l-0.7-0.2V99.4L132,99.4z M131.9,98.2l0.5,0v0.5l-0.3,0L131.9,98.2L131.9,98.2z
		 M90.3,93h0.4v0.7h-0.4V93L90.3,93z M89.9,91.9h0.9c-0.3,0.9,0.4-0.2-0.4,0.5C89.5,91.9,90.3,92.4,89.9,91.9L89.9,91.9z M74.6,87.2
		l0.6,0l-0.3,0.6L74.6,87.2L74.6,87.2z M75.7,86.3c1,0.1,0.5,0.4,1.3,1.1l-0.7,0.2C76,87.1,75.8,87,75.7,86.3L75.7,86.3z M86.1,87
		l1.8-0.7C87.7,87.1,86.4,88.1,86.1,87L86.1,87z M74.4,85.9l-0.7,0.2c-0.3-0.5-0.5-0.6-0.5-1.3C74.2,84.9,73.7,85.2,74.4,85.9
		L74.4,85.9z M84.3,83.2l0.1,0.5l-0.8,1l-0.7-0.2l0,0.5l-1.1-0.2l0.2,0.5c-0.9,0-1.8,0.7-2.2,1.2l-0.6-0.2l-1.4,1.4l-0.7-0.1v-0.5
		h0.4l0-0.5l0.7-0.2L78.1,86l0.7-0.4c1.1,0,3.2-1.1,3.6-1.8c0.5,0.1,0.3,0.2,0.7,0.2C83.1,84,84.1,83.3,84.3,83.2L84.3,83.2z
		 M89.7,84.3c-0.2,0.7-0.7,0.6-1.5,0.9c-0.9,0.3-0.7,0.5-1.5,0.9c-0.9,0.5-2.5,1.2-2.8,2.1l-0.5-0.2c-0.3,0.2-1.3,1.1-1.6,1.1
		l-1-0.1l1.3-1.5l-0.2-0.2l-2.5,1.2l0.4,0.7l-0.5,0.2l0-0.8l-0.5,0.2c0-1,0.8-1.2,1.6-1.3c0.1-0.8,0.1-0.8,0.9-0.9l0.2-0.5
		c1.3,0.6,0.7-0.2,0.7,1.4c0.4-0.2,0.7-0.4,1.1-0.5c1-0.3,0.4-0.3,1.2-0.6c0.9-0.4,1.5-0.7,2.4-1c0.7-0.3,3.8-2.3,4.5-2.3
		c0.2,0,0.4,0.2,0.4,0.4C91.7,83.8,90.2,84.3,89.7,84.3L89.7,84.3z M84.3,83.2l0.7-0.6l-0.1,0.8L84.3,83.2L84.3,83.2z M179.9,80.7
		c1.5,0.4,0.5,2.2,2.2,2.3v1.8c-0.9-0.1-0.8-0.5-1.2-1.2c-0.4-0.6-1-0.4-1-1.2V80.7L179.9,80.7z M84.2,81.9l0.1,0.6l-0.6-0.1
		L84.2,81.9L84.2,81.9z M87.8,82.3l3.6-0.9l0,0.8c-0.8,0.2-0.3,0.4-1.5,0.7c-0.8,0.2-1.1-0.1-1.7,0.2l-0.5-0.4L87.8,82.3L87.8,82.3z
		 M93.5,82.5c0.1-0.9,0.7-1.1,1.4-1.3C94.7,82.1,94.1,82.1,93.5,82.5L93.5,82.5z M61.3,80.9l0.7,0l-0.2,0.5l-0.7,0.2L61.3,80.9
		L61.3,80.9z M97.7,80.2c0.5,0,0.5-0.1,0.9-0.2c-0.2,0.8-1.1,0.9-1.4,0.4C97.6,80.1,97,80.2,97.7,80.2L97.7,80.2z M177.8,81.1
		c0-0.6,0.9-1.7,1.4-2c-0.1,0.6-0.2,0.6-0.2,1.1l0.2,2l0.3,0v0.5c0,0.8,0.4,0.7,0.4,1.4v0.7h-0.4c-0.1-0.9-0.1-1.7-1.1-1.3
		c0-1.1,0.2-1.7-0.7-2V81.1L177.8,81.1z M182.8,78.6c0.3,1,1.3,1.2,2.3,1.4l0.6,2.4c-0.4-0.1-0.6-0.4-1-0.4c-0.4,0-0.3,0.4-0.4,0.7
		h0.4V84l-1.4-0.8l-0.1,0.7c-0.7-0.1-1.3-0.7-1.3-1.3V82c0-0.8,0.4-0.7,0.4-1.4v-0.2c0-0.8-0.4-0.6-0.4-1.8H182.8L182.8,78.6z
		 M179.7,79.6c0.2-0.4,1.1-0.9,1.6-0.9c0.3,0,0.3,0.3,0.4,0.5c-0.8,0.2-0.3,0.1-0.7,0.9l-0.4-0.3L179.7,79.6L179.7,79.6z
		 M140.3,78.5c0.6,0.3,0.7,0.3,0.7,1.2l-1.4-0.2l-0.3-0.3l0.2-0.7L140.3,78.5L140.3,78.5z M142.7,78.3l0.1,0.6l-0.6-0.1L142.7,78.3
		L142.7,78.3z M112.1,78.9v-0.4l3.4,0.3c1.1,0.6,3.1,0.6,3.4,1.7c-1.7-0.5-3.2-1.3-5.4-1.3l-0.4-0.3l-0.5,0.2L112.1,78.9L112.1,78.9
		z M175.4,84.3c-0.1-0.8-1.2-2.2-1.7-2.8c-0.4-0.5-1-2.2-1.4-2.9c1,0.4,1.4,1.5,2,2.3c0.8,1,1.4,0.8,1.4,2.9v0.5H175.4L175.4,84.3z
		 M184.1,77.7c0.6,0,2.3-0.7,2.9-0.7c0,0,1.2,0.9,2.2,0.9v0.4h-0.9c-0.6,0-0.3,0.4-0.9,0.4h-0.5l1.5,1.8l-1.3-0.2l-3.3-2.2l-0.1-0.2
		H184.1L184.1,77.7z M127,78c0,0-0.8-0.5-0.9-0.5l0.2-0.3c0.5,0.2-0.2,0.2,0.5,0.2h0.5C127.3,77.7,127.4,78,127,78L127,78z
		 M182.8,78.6V78l-1-0.9c-0.1,0.7,0.1,0.6-0.6,0.8l0.6-1.5l0.1,0.4h0.5l0.6,1.2l0.1,0.6H182.8L182.8,78.6z M102.9,76.8
		c0,0-0.2,0.4-0.2,0.4c-0.8-0.4-0.4,0.1-0.5-0.7C102.5,76.4,102.9,76.4,102.9,76.8L102.9,76.8z M131.5,77.5
		c-0.1,0.5-0.3,0.7-0.9,0.7c-0.1,0-3.1-1.4-3.1-2c0-0.2,0.4-0.5,0.7-0.5C128.4,75.7,129.3,77.4,131.5,77.5L131.5,77.5z M95.3,77.5
		c0.2-0.1,3-1.3,3.1-1.3c0.2,0,0.3,0.2,0.4,0.4h-0.4v0.5l-1.3,0.6c0.5,0.4,0,0.3,0.4,0.3c0,0,1.4-0.7,1.6-0.7h1.6
		c0.5,0,0.5,0.1,0.9,0.2c-0.3,1-2.5,1.6-3.8,1.6l-1.4,0.7l0,0.2c-1.1,0-1.3,0.9-3.6,0.9l0.9-0.9c1.4,0,3-1,3.3-2.1
		c-1.2,0.1-3.2,1.6-4,1.6h-0.7l-0.1,0.4l-0.1-0.7c1-0.2,0.6-0.4,1.4-0.7c0.7-0.3,1,0,1.1-1.1L95.3,77.5L95.3,77.5z M183,76
		c0-0.1,2.3-1.4,2.7-1.4h0.4c0.2,0,2.1,0.9,2.2,1.6c-1,0-1.5,0.4-2.5,0.4C185.1,76.6,183,76.5,183,76L183,76z M174.8,76l-0.5-0.5
		l0.6-0.1L174.8,76L174.8,76z M179.2,75.7c-0.5-0.2-0.5-0.2-0.6,0.6h-0.7l-0.4-0.9c0.4-0.8-0.1-0.9,1.1-0.9L179.2,75.7L179.2,75.7z
		 M174.3,74.8c0,0.3-0.1,0.3-0.2,0.5l-0.9-0.5c0.3-0.4,0.4-0.5,1.1-0.5V74.8L174.3,74.8z M112.1,75.5c0.1-0.8,1.3-1.1,2.2-1.1h0.5
		C114.5,75.2,113.1,75.5,112.1,75.5L112.1,75.5z M99.8,75.3l0.2-0.5l-0.2-0.7l0.6,0.2l-0.2,0.5l0.6,0.6l-0.5,0.7l-0.1,0.4l-0.5-0.2
		l0-0.3h0.4L99.8,75.3L99.8,75.3z M96,74.4V75h0.4v0.4h-0.7c-0.2,0-3.2,2.1-4.3,2.2L93,75l1.3,0.6l0.1-0.1l-0.4-1.2l1.6,0.3L96,74.4
		L96,74.4z M63.8,74.1c1.8,0,1.8-0.6,2.7-0.7c0.6-0.1,1.1,0,1.5-0.1c0.8-0.2,0.8-0.6,1-0.6c0.5,0,2.9,1.8,3.1,2.5
		c-1.1,0.3-0.2,1-1.2,1.7c-1.1,0.7-0.7,0.2-1.5,1.4l0.2,0.7l-0.3,0.4l0.2,0.5l-2,0l0-1.2c0-2.4-0.4-2.7-1.8-3.6
		C64.7,74.9,64.1,74.7,63.8,74.1L63.8,74.1z M176.4,72.7l0.3,1.4l-1.4,0.8l-0.3-1.3L176.4,72.7L176.4,72.7z M117.1,74.6
		c1.2-0.6,1.4,0.1,3.2-1.1c0.6-0.4,2.1-1,3.1-1c0.1,0,0.4,0.3,0.5,0.4l1.4-0.2c0.3,0,2.9,0.2,2.9,0.2c1.6,0.8,0.9,0.4,2.5,0.4
		c1.5,0,2.3,0.1,3.2,0.7c0.8,0,1.7,0,2.5,0c1.2,0,0.7,0.2,1.2,1.1c1.3-0.3,2.6,0.5,4.7,0.5l0.4,0.7l3.4,0.4c0.6,1.1,1.7,1.2,3.4,1.2
		l0.7,0.4c0,1.4-0.5,1.1-0.5,2.1v0.7c0,0.6,0.4,0.4,0.4,0.7c0,0.3-0.2,0.4-0.5,0.4c-0.5,0-0.8-0.6-1.1-0.9l0.2-0.7
		c-0.6-0.3-2.2-1.6-2.4-1.6c-1.3,0,0.1,1,0.2,1.8h-1.3c-0.2-0.7-0.7-1.6-1.4-1.8v-0.4c1.9-0.2,1.7,0,1.6-1.3
		c-0.4-0.1-0.4-0.2-0.9-0.2h-0.4c-0.6,0-0.5,0.3-0.7,0.7l-0.9-0.1l-0.4,0.5c-1.5,0-1.9,0.6-2.3-1.1l-1.3-0.3
		c0.1-0.6,0.2-0.4,0.2-0.8c0-0.2-0.2-0.4-0.4-0.4c-0.7,0-0.3,0.1-1.1,0.2v0.7l-0.7-0.1l-0.8,1.9c-0.9-0.2-0.4-2.3-2.1-2.3
		c-0.3,0-0.3,0.3-0.4,0.5h-0.5c-0.3,0-0.3-0.1-0.5-0.2l-0.5,0.4l-0.5-1.1c-0.3-0.1-0.3-0.2-0.8-0.2h-0.2c-0.5,0-0.4,0.1-0.5,0.5
		l-1.3-0.5c0-2-2.3-0.7-4.1-0.7c-0.6-0.4-0.7-0.7-1.8-0.7h-0.5v-0.4l-1.1,0.2l0,0.9l-0.2,0v-0.5h-0.5v0.4h-0.9
		c0.2,0.8,2.2,1,3.1,1.4l1.2-1.1l0.9,0.7l0.8-0.3l-0.2,1.5c-0.4-0.2-0.9-0.5-1.4-0.5h-0.9v0.4c-1,0-2.2-0.1-2.5-0.9
		c-1,0-1.6-0.1-2-0.7l-1.3-0.2c-0.3,0.2-0.3,0.3-0.7,0.3h-0.2c-0.7,0-0.9-0.2-1.1-0.7h1.3C116.8,74.4,116.8,74.5,117.1,74.6
		L117.1,74.6z M171.8,72.6c0.7,0.2,0.5,0,0.5,0.7C171.7,73.2,171.9,73.3,171.8,72.6L171.8,72.6z M173.1,72.6h1.1l-0.2,0.7l-0.9,0.4
		V72.6L173.1,72.6z M157.1,72.1v-0.4c1.9,0,3.5,0.7,4.1,2L157.1,72.1L157.1,72.1z M96,74.4l0.1-0.7l-1.9-1.6l-0.1-0.4
		c1.7-0.4,0.8-1.7,2.3-1.8V71c0,0.6-0.4,0.3-0.4,0.9c0,0.4,0.9,0.5,1.3,0.5c0.3,0,0.1-0.4,0.7-0.4h0.9v0.4h0.9v-0.4h0.7v0.4h0.4
		c-0.1,0.2-0.3,0.6-0.5,0.5l-1.3-0.1c0.2,0.4,0.4,0.4,0.4,0.8c0,0.4-1.9,0.5-2.3,0.5l-0.2,0.5l-0.7,0v-0.4H96L96,74.4z M105.2,71.7
		c0.2-0.6,1.2-1.4,2-1.4l-1.1,1.4L105.2,71.7L105.2,71.7z M90.3,69.5l-0.3,2.4c-0.8,0.6-0.1,0.8-1,1.1c0-0.6,0.7-2.2,1-2.5
		L90.3,69.5L90.3,69.5z M108,69.5l0.2,0.2l-0.7,0.4L108,69.5L108,69.5z M91.9,68.3c0.2,0.4,0.3,0.5,0.3,0.9c0,0.6-0.5,0.9-0.7,1.4
		c-1-0.3-0.3-1.1,0.1-1.5L91.9,68.3L91.9,68.3z M100.7,71.5l0.2-0.5c-0.8-0.4-2.8-1.2-2.9-2.2c0.1,0,0.7-0.2,0.7-0.2
		c1.1,0,2.3,1.1,2.7,1.1h1.1c-0.1,1.6-1.1,0.8-1.4,2h0.7c-0.1,0.3,0,0.5-0.4,0.5C101.1,72.3,100.9,71.7,100.7,71.5L100.7,71.5z
		 M112.1,73.5c2.1-1,9.4-4.9,11.7-4.9v0.5c-1.7,0.1-4.1,2-5.6,2c-0.3,0.7-2.8,1.6-4,1.6c-0.5,1-3.7,2.2-4.1,2l0.7-0.8l0.6,0.3
		l-0.2-0.6l0.2-0.3L112.1,73.5L112.1,73.5z M39.2,69.6c-0.9,0-3.1-0.1-3.1-0.9c0-0.4,3.8-0.3,4.4-0.1c1.2,0.4,2.5,1.1,3.9,1.1h1.1
		v-0.9l0.5-0.2c0.4,0.2,2,0.9,2.5,0.9h0.4c0.6,0,0.4-0.4,0.7-0.4l2.9,0.3c0.6-0.1,6.1,5.5,6.1,6c0,0.5-1.5,1.3-2,1.4
		c-0.9-1.7-4.4-3.7-6.1-4.9h-0.7l-0.5-0.4c-0.7,0-5.9-1.3-6.5-1.6C41.2,69.5,41.3,69.6,39.2,69.6L39.2,69.6z M30.9,69v-0.4h0.4V69
		H30.9L30.9,69z M134.7,68.8c0.7,0,1.1-0.5,1.8-0.4l1.4,0.2c-0.4,0.5-1.9,0.5-2.9,0.5h-1.3c-0.5,0-0.3-0.1-0.5-0.4l0.9-0.1
		C134.7,68.9,134,68.8,134.7,68.8L134.7,68.8z M85,66.8c1.8,1.1,0.7,3.8-0.7,4.7L85,66.8L85,66.8z M138.5,68.5v-0.4h1.1
		c2.6,0,9.6,1.8,10.6,1.3l3.6,1l0,0.4c-1.2,0-2.6-0.2-3.6-0.5c-0.2-0.1-3.5-0.5-4-0.5c-1.6-0.2-1.7-0.6-4-0.5
		C140.6,69.2,140,68.6,138.5,68.5L138.5,68.5z M132,67.9c0.2-0.7,2.5-1,3.2-1.1c1.3-0.1,2.7-0.2,4.1-0.2h4.3l6.7,0.5
		c1.2,0.8,6.4,2.7,6.7,3.8c-0.5,0-2.8-0.9-3.5-1.1c-1.3-0.4-2.3-0.6-3.8-0.9c-2.1-0.4-6.1-1.2-8.2-1.2L132,67.9L132,67.9z
		 M102.7,67.2c0.6,0,0.3-0.4,0.9-0.4c0.7,0,0.3,0.1,1.1,0.2c-0.1,0.7-0.9,2.3-1.4,2.3c-0.1,0-2.4-1.1-2.5-1.6l-1.6-0.2l0-0.3h0.7
		c0.7,0,1-0.2,1.4-0.4C101.7,67.1,102,67.2,102.7,67.2L102.7,67.2z M154,67v-0.4l2.3,0.2c0.7,0.1,0.3,0.5,1.8,0.5v0.4l-2.7-0.6
		L154,67L154,67z M133.8,66.4c-0.4,0.6-4.4,1.1-5.6,1.2l0-0.5L133.8,66.4L133.8,66.4z M110.3,72.8c0-0.4,6.2-2.8,7.1-3.2
		c1.2-0.5,5.7-3.2,6.8-3.3l-0.6,0.9l-0.7,0c-0.6,0.4-1.4,0.7-1.8,1c-0.3,0.2-1.3,1-1.6,1.1l-0.5-0.2c-0.5,0.5-3.1,1.6-4,2.2
		c-1.1,0.7-2.5,1.8-4.3,1.8C110.5,73.2,110.3,73,110.3,72.8L110.3,72.8z M134.2,66.7c0.2-0.9,4-1,4.3-0.5L134.2,66.7L134.2,66.7z
		 M111.9,65.7c-0.1,1-1.8,3.1-2.8,3.1L111.9,65.7L111.9,65.7z M91.4,66.5c0-0.8,0.3-0.6,0.4-1.4h0.4c0,1.1-0.4,0.8-0.4,1.6
		c0,0.7-0.2,0.9-0.7,1.1c0.2-0.8,0.4-0.3,0.4-0.9V66.5L91.4,66.5z M93.7,69.7c0.8-0.2,2.2-1.3,2.5-2c0.7-1.3-0.5-2.7,1.8-2.7
		c0.3,0,0.3,0.3,0.4,0.5c-0.9,0.4-0.3,2.1-1,2.7c-0.6,0.5-1.5,0.6-1.8,1.8l-3,0.7c0.1-0.7,0.5-0.9,0.5-1.4c0-0.5-0.6-1.8-0.7-2.5
		l0.2-0.7c0.7-0.2,3-1,3,0v0.4C95.5,68,93.9,69.1,93.7,69.7L93.7,69.7z M99.1,65.4c0-0.9,4.4-1.4,5.8-1.4h0.5c0.6,0,0.7,0.1,1.3,0.2
		c-0.1,1.1-0.9,2-1.6,2.5l-5.2-0.8l-0.7,0V65.4L99.1,65.4z M126.1,64.3c1-0.2,1-0.8,2-0.9v0.4h-0.4v0.4c-0.7,0.1-0.7,0-0.9,0.5h-0.7
		V64.3L126.1,64.3z M107.9,71.4c0.4,0,3.1-1.3,4.1-1.6c1.3-0.4,2.7-1.4,3.8-2c1.2-0.7,2.2-1.9,3.2-2.6c0.4-0.3,3.3-1.8,3.6-1.9
		c-0.6,1.7-6.8,5.2-8.7,6.2c-1.6,0.9-3.3,1.7-5,2.5c-1.3,0.6-1.3,0.7-2.3,1.5c-0.7,0.5-1.8,0.1-2.1,1.5h-0.7c-0.5,0-0.7,0.2-1.1,0.4
		l-0.4-0.2c-0.5,0.2,0.1,0.2-0.5,0.2c-0.2,0-0.4-0.2-0.4-0.4c0-0.3,0.3-0.3,0.5-0.4c0.2-2.1,0.8-1,1.6-1.1l1.4-0.2
		c0.2-0.5,0.5-0.5,1.3-0.5L107.9,71.4L107.9,71.4z M105.9,68.7l-2.7,1.9l-0.2-0.2l1.5-1.3l-0.2-0.5c1.4-0.9,3.1-5.2,3.8-5.2h0.7
		C108.6,64.9,106.4,66.6,105.9,68.7L105.9,68.7z M68.1,60.2c1.6,0,2.4,0.6,3.4,1.3c0.8,0.6,2.2,0.5,2.2,2.3V64
		c0,1.1-0.5,2.1-1.2,2.6c-1.5,1-0.3,1.5-2.2,1.5c-1.2,0.8-0.9,2.1-1.3,3.6h-2.2c0.3-1.2,1.1-1.2,1.1-3.1v-0.5c0-2.2-2.9-2.7-2.9-5.8
		c0-0.5,1.5-2.2,2.2-2.2H68.1L68.1,60.2z M154.8,61.7c0.1,0.7,0.6,1.4-0.3,1.4c-1.1,0-0.8-0.6-2-0.7V62l1.7,0.3L154.8,61.7
		L154.8,61.7z M180.8,62c-0.8-0.1-1.1-0.2-1.3-0.9C180.4,61.3,180.6,61.2,180.8,62L180.8,62z M136.7,59.8c0.7-0.2,0.4-0.4,0.9-0.4
		c0.3,0,0.5,0.1,0.5,0.4c0,0.7-0.6,0.8-1.1,1.1l-0.3-0.2L136.7,59.8L136.7,59.8z M155.3,59.3c1.1,0,2.4-1.3,2.7-1.3h0.5
		c0.2,0,2.5,1.3,2.5,1.4c0,0.4-0.4,0.3-0.7,0.4v0.4h0.5v0.4h-0.5l-0.3,0.9c0,0.6,0.1,1.1-0.6,1.1h-0.2c-1.5,0-1.4-0.7-2.9-0.9
		c-0.7-0.1-0.9-0.5-1.5-0.5c-0.6-0.1-0.8,0.2-1.6,0.2l-1.7-0.9l0,1.2l0.6,0v0.5h-1.1c-0.4,0-0.5-0.1-0.7-0.2
		c-0.3,0.1-0.3,0.2-0.7,0.2h-0.2c-0.4,0-0.5-0.1-0.7-0.2c-0.3,0.1-0.3,0.2-0.7,0.2c-0.3,0-0.7-0.2-0.9-0.4c-0.4,0.1-0.6,0.3-1.1,0.2
		l-1.6-0.2c0.6-0.8,4.1-0.6,5.4-1.2c0.7-0.4,1.4-0.9,2.1-1.1c0.5-0.2,2.2-1.1,2.2-1.1C154.6,58.4,154.4,59.3,155.3,59.3L155.3,59.3z
		 M118.4,61.3c-0.2,0-1.3-2.2-1.4-2.5h1.4l1.2,1C119.6,60.7,119.4,61.3,118.4,61.3L118.4,61.3z M173.3,58.4c0.3-0.1,1.3-0.7,1.6-0.7
		c0.3,0,0.6,0.8,0.7,1.1l5.2-0.2c-0.4,1.4-1.4,0.2-1.4,1.3v0.7c-1.1-0.1-0.2-0.7-1.8-0.7l0.4,1.4c-0.7-0.2-0.5-0.3-0.8-0.3
		c-0.1,0-0.4,0.3-0.5,0.4l-1.8,0c-0.6-1-1.1-1.8-2.7-1.8c-0.3,0-0.5,0.6-0.5,0.9l1.5,1c0.7-0.2,1.1,0.6,1.9,0.6
		c0.1,0,0.4-0.3,0.5-0.4c0.2,0.5,0.2-0.1,0.2,0.5c0,0.3-0.2,0.4-0.5,0.4c-1.4,0-2.6-1.6-4.1-1.6c-0.6,0-0.9,0.9-0.9,1.4h-0.7
		c-0.5,0-1.4-0.3-1.4-0.9c0-0.3,0.2-0.4,0.5-0.4h0.7c-0.3-1.1-1.8-0.3-1.8-1.1c0-0.4,0.1-0.2,0.2-0.7h0.9c0.4,0,0.4-0.1,0.7-0.4
		c0.3,0.1,0.3,0.2,0.7,0.2c0.1,0,2.1-0.9,2.7-1.1L173.3,58.4L173.3,58.4z M124.5,64.2c0.1-0.3,2.9-2.6,3.4-3.1c1.1-1.1,2-2.3,3.3-3
		c-0.1,0.2-2.7,3.3-3,3.5C126.8,62.6,126,63.4,124.5,64.2L124.5,64.2z M120.7,58.9c0-0.3,0.1-0.3,0.2-0.5l-0.2-0.7
		c0.2-0.1,0.6-0.2,0.9-0.2h0.2c0.6,0,0.8,0.8,1.1,1.3c-0.2,0.5-0.1,0.9-0.7,0.9h-0.9C121,58.9,120.7,59.4,120.7,58.9L120.7,58.9z
		 M56.4,68.1c0-3.5,3.8-4.6,3.8-5.6v-0.7c0-2.1-1.8-2.4-1.8-4.3c1.4,0.9,3.2,1.8,3.2,4.1c0,2.4-2.8,4.1-3.8,5.9
		c0.6,1.2,0.1,1.5,1.4,2.3c1,0.6,1.5,0.6,2.2,1.6c-0.6,0-0.6,0.2-1.3,0.2h-0.4c-0.3,0-3.4-2.3-3.4-3.1V68.1L56.4,68.1z M164.3,62.4
		c-0.6,0-1.3-0.1-1.3-0.7v-0.5h0.9v-0.7h-0.5c-0.4,0-0.5,0.1-0.7,0.2c-0.4-0.2-1.3-0.5-1.3-1.1c0-0.8,2.9-0.2,2.9-0.9
		c0-0.2-0.4-0.5-0.7-0.5c-0.5,0-0.9,0.2-1.3,0.4c0.3-0.7,1.7-1.2,2.7-1.3v1.1l2.9-0.7c0.2,0,0.5-0.2,0.6-0.2c0.3,0,0.6,0.2,1.1,0.4
		V58l-2.3,0.4l-0.4,0.8l-0.3,0v-0.4h-0.7l0.6,0.7l0.1,0.2c-0.8,0.1-0.9,0.1-1.1,0.7h0.4v0.4h-0.9v0.7
		C164.8,62,164.5,62.4,164.3,62.4L164.3,62.4z M93.2,64.7c0.3-1.1,0.9-2.7,1.2-3.8c0.4-1.1,1.2-2.3,1.5-3.4h0.4
		c0,0.6-0.2,0.6-0.2,1.3c0,1.1,1.9,3.3,2,4.7l-1.4,0.4l0-1.2c0-0.5,0.1-0.5,0.2-0.9c-0.9,0.3-1.3,1.9-1.8,2.7L93.2,64.7L93.2,64.7z
		 M62.4,62.2v-1.1c0-2.9-3.7-2.7-4-5.2c1.8,0.1,2.9,1.3,3.9,2c1.1,0.8,2,2,3.6,2.1v0.4c-0.7,0.1-1.5,1.1-1.8,1.6
		c-0.6,0.9-0.1,1.7,0.2,2.4c0.3,0.6,0.8,1.7,1.2,2.2c0.3,0.4,1.6,1.6,1.6,1.7c0,0.8-0.6,1.6-0.7,2.3L65,71.1L64.5,71l-1.5,0.6
		L62,71.3c-0.9-1.3-2.5-1.6-2.5-3.6C59.5,64.9,62.4,64.6,62.4,62.2L62.4,62.2z M141.9,55.7c-0.9,0-0.5,0.2-0.9-0.4l0.9-0.2
		L141.9,55.7L141.9,55.7z M109.4,55.3c1,0,0.6-0.5,1.6-0.5l-0.4,0.7l-0.9,0l-0.4,0.7l0.8,0c0.5,0,0.7-0.1,1.1-0.2
		c0.5,0.3,1.8,0.6,1.8,1.3c0,0.2-0.4,0.4-0.5,0.5c-1.6,0-1.6,0.7-2.2,0.7c-0.6,0-0.7-0.2-1.1-0.4l0.2-0.9c-0.3-0.6-0.9-1.3-0.9-1.4
		v-0.5H109.4L109.4,55.3z M134.4,53.9c-0.1,0.7,0.1,0.6-0.5,0.7c-0.1,0.7-1.8,2.7-2.3,2.9c0.1-1.1,2-2,2.2-3.4L134.4,53.9
		L134.4,53.9z M48.5,58.8c0-1.9,0.2-2.2,0.9-3.4c1-1.7,0.6-0.9,2.2-2c2.1,0.2,4.9,0.9,5.6,2.3c0.1,0.2,2,5.8,2,5.8l-0.2,1.8
		c-0.7,0.5-3.3,2.5-3.7,3.1l0.2,2.5l0.5,1.4c0.7,0.1,3.4,2.7,4.5,2.7c0,0,2.8-0.7,2.9-0.7l0.4,0.2c0.7-0.5,0.3-0.2,1-0.4
		c0.7-0.3,0.4-0.7,0.8-0.7c0.3,0,0.5,0.4,0.5,0.7l-0.1-0.2l-4.6,2.6c-1.2,0.1-1,0.6-1.6,0.6c-0.6,0-2.1-2.4-2.5-2.9
		c-0.4-0.5-2.3-2-2.9-2.5c-0.4-0.3-1.2-0.8-1.6-1.1c-0.9-0.5-1.4,0.1-1-1.3c0.8-2.5,0.7-1,0.7-3.8c0-2.2-0.3-1.3-0.5-3.2
		c-0.1-0.7-0.7-2.8-0.7-3.2c0-0.9,2.1-1.6,2.9-2c0.7,0.4,2,0.9,2.2,1.7c0.2,0.7,0,1.2,0.2,1.8c0.1,0.6,0.4,0.7,0.5,1.3
		c0.7,4-1.2,3.2-1.8,5.2c1.7-0.4,2.4-2.3,3.2-3.6c0-1.2-0.9-4-1.6-4.5v-0.9c-0.6-0.4-1.1-0.8-1.7-1.2c-0.9-0.6-1.5-0.2-2.3-0.6
		c-2,1-2.9,0.5-2.9,3.8v0.4c0,0.2,1.2,3.2,1.4,3.5c1.2,2.1,0,2.6,0.6,3.9l-0.6,2l-1.2-0.3c0.2-0.8,1.1-1.7,1.1-2.2v-0.4
		c0-2.6-2.5-5.2-2.5-6.1V58.8L48.5,58.8z M87,66.1l-0.4,0.3l4.2-0.1c-0.3,3.3-2.6,3-3.6,4.5c0.5,0.2-0.1,0.2,0.5,0.2h0.2
		c0.9,0,0.2-0.6,1.3-0.7c-0.1,0.6-0.3,2.2-0.9,2.2c-0.6,0-2.3-0.5-2.3-1.3c0-0.4,0.1-0.4,0.4-0.7c0-1.3,0.4-1.3,0.4-2.3v-0.4
		c0-0.7-0.2-1-0.4-1.4c-0.5-0.4-1.8-2.1-1.8-2.9v-0.5c0-0.8,1.2-2.2,1.4-3.6c0.2-1.5,0.3-3.2-0.7-3.9c0,1.5,0.1,3.2-0.4,4.3
		c-0.3,0.7-1,2.8-1,3.7c0,0.9,1.1,2.7,1.3,3.4h-0.5l-2.8,5.9l-0.4,0.1c-1,0-3.6-2.9-3.6-3.8v-2.5c0-1.6,1.4-2,1.4-3.6V62h-0.4v0.7
		c-0.8-0.2-0.3-0.4-0.9-0.4c-0.3,0-0.4,0.2-0.4,0.5v0.4c0,2,0.3,0.7-0.3,2.5c-0.2,0.6-0.6,1.9-0.6,2.7v0.7c0,1.6,2.3,2.7,2.3,3.4
		c0,0.4-1.5,1.7-1.8,2C76,75.5,75.7,75,74.1,75c-0.3-1-2.9-3.1-4.1-3.2v-1.4c0-2.1,0.7-0.8,1.9-2.2c0.7-0.8,1.4-1.2,2.1-1.9
		c2.1-2.3-1.1-5.4-1.1-5.5c0-1,0.3-3.2,1.1-3.2h0.2c0.7,0,2,1.6,2.3,2.2l0.3,2.4l0.6,0c0.4,0,0.5,0.1,0.7,0.2
		c0.3-0.2,0.7-0.4,0.7-0.9c0-0.4-1.2-1.5-1.4-1.8c-0.7-0.7-0.2-1.4-1.6-1.4l-0.4-0.9c2.4-0.6,1.2-2.1,4.1-2.6c1.4-0.2,4.5-0.7,6-0.7
		c0.3-0.2,0.3-0.4,0.7-0.4h0.2c0.4,0,0.4,0.1,0.7,0.4h2c0.5,0.3,2.7,3.1,2.7,3.6v0.2c0,0.8-1.4,3.1-1.4,5l1,1.7
		c0.1-1.2-0.2-0.9-0.2-1.7v-0.2c0-1.5,1.8-2.6,1.8-3.8v-0.5c0,0-0.9-2-1.1-2.4c-0.4-1-1.3-1.3-1.5-2c1.1-0.1,1.8-1.2,2.5-1.8
		c0.7-0.7,1-0.4,1.3-0.8c0.4-0.4,0.2-0.9,1-0.9c0.7,0,2.5,1.8,2.5,2.5c0,0.5-0.4,0.8-0.4,1.6c0,0.4,0.1,0.5,0.2,0.7l-1,1.5l-0.6-0.3
		c-0.1,0.3-2.9,5.3-3.1,5.7c-0.7,1-1,2-1.5,2.8c-0.3,0.4-2.5,1.1-3.3,1.1L87,62.4c0.3-0.7,0.9-2.2,0.9-3.2v-0.9c0-2.5-0.5-3.9-3.1-4
		c0.2,0.8,0.4,0.5,1.4,0.5c0.9,0.6,1.1,1.8,1.1,3.2c0,0.4-1.3,3.5-1.3,4c0,0.7,0.6,2.4,1.1,2.7C87.2,65.9,87.7,65.9,87,66.1L87,66.1
		z M81.8,53.4c0.2-0.2,0.7-0.7,1.1-0.7h0.9c0.5,0,0.4,0.1,0.5,0.5L81.8,53.4L81.8,53.4z M122.9,54.6c-0.8,1.2-1.3,2.7-3.2,2.7h-0.5
		c-0.1-0.4-0.4-0.7-0.9-0.7H118c-1.1,0-1.4,0.9-2,0.9h-0.5c-0.3-0.8-0.2-0.2-0.7-0.7c-0.3-0.4-0.2-0.7-0.4-1.1
		c-0.2-0.5-1.4-0.6-2-0.7c0-0.3,0-0.7,0.4-0.7c0.3,0,0.4,0.5,0.7,0.5c0.2,0,1.4-1.2,1.4-1.4c0-0.6-0.2-0.6-0.5-0.7l0.4-1l1.7,0.9
		l0-0.8c0.9-0.2,0.8-0.9,1.4-0.9h0.2c0.6,0,0.9,0.7,0.9,1.3v0.7h0.5c0.6,0,0.8,0.7,1.1,1.1l-0.7,2.3l1.7-1.1l0.1-1.1
		c-0.6-1.4-0.3-0.7-1-1.6c0.5-0.2-0.1-0.2,0.5-0.2C122,52.3,122.8,53.6,122.9,54.6L122.9,54.6z M37.7,48.3c0.6,0,1.3-0.4,2-0.5
		c0.8-0.1,1.2,0.1,2.1,0.1l3.4,2.2c0,1.3,0.4,1.1,0.4,1.9v1.4c0,0.5-2,1.9-2.5,2c-1.2,0.4-1.9,1-2.5,2c-0.4,0.7-0.8,2.8-0.6,3.8
		c0.2,1,1.3,2.2,1.4,2.9c-1.2,0-6.3-2.3-6.3-2.7c0-0.2,2.9-3.2,2.9-4.5c0-1.3-1.4-4-1.4-5.9C36.6,50.5,37.5,49.2,37.7,48.3
		L37.7,48.3z M134.2,52.1c0-0.8,0.1-1.1,0.7-1.3c-0.2,0.7-0.6,2-1.3,2.2l0.2-0.9L134.2,52.1L134.2,52.1z M56.7,52.5l-1.2-1.8
		c1,0,1.3,0.2,1.7,0.8L56.7,52.5L56.7,52.5z M18.5,52.1c0.8-0.2,3.3-1.6,3.4-1.6c0.3,0,0.3,0.3,0.4,0.5c-1,0.3-0.4,0.7-0.9,1.3
		c-0.3,0.5-0.9,0.3-0.9,1c0,0.4,0.1,0.2,0.2,0.7h1.3c0.6,0,0.1,0.2,0.9,0.4c0,0.8,0,0.9-0.7,1.1v0.5h0.4v0.4
		c-0.4,0.1-0.7,0.2-0.7,0.7v0.5C21.2,57.5,18.5,53.2,18.5,52.1L18.5,52.1z M113.5,50.3c-0.1,1.3-0.9,0.4-0.9,1.8
		c0,0.4,0.1,0.5,0.2,0.7l-0.2,0.5l-1.3-0.8l0.3-1.8l1.4-0.6L113.5,50.3L113.5,50.3z M44.5,59.3c0.3-0.7,0.3-1.4,0.6-1.9
		c-0.5,0.1-2.7,2.7-2.7,4c0,1.6,2.5,3.6,3.2,4.7c-1,0-2.9-0.7-3.3-1.2c-0.4-0.4-0.8-2.7-1.2-3.3l0.8-1.3c0.1-1.2,1-3,1.9-3.6
		c0.7-0.5,2.7-1.8,2.7-2.7c0-0.8-0.8-3.1-0.3-3.4c0,0,3.1-0.9,3.2-1c0.5,0.3,1,0.9,1.8,0.9c1.4,0,1.4-0.7,2-0.7h0.2
		c0.5,0,1.4,1.2,1.6,1.6c0.3,0.5,1.2,1.7,1.3,1.8L51,52.7c-2.3-0.3-3.6,3.5-3.6,5.9c0,0.6,0.2,0.8,0.7,0.9c0.1,1.3,2.2,3.7,2.2,5.8
		v0.2c0,0.6-0.6,1.5-0.9,2c-3.4-0.8-3.2-2.6-4-2.9c0-1.9-1.6-2.5-1.6-3.4C43.8,61.1,44.4,59.5,44.5,59.3L44.5,59.3z M123,51.2
		c0,0-0.5,0.9-0.7,0.9c-0.4,0-1.2-1.2-1.3-2h0.9C122.4,50.1,123,51.1,123,51.2L123,51.2z M79.8,51c1.4,0,1.6-0.7,2.9-0.7h0.4
		c0.5,0,0.5,0.1,0.9,0.2c-0.7,1-3.5,3.2-5.2,3.2L79.8,51L79.8,51z M86.9,53c0-1.4,0.9-3.3,2-3.6c0,1.1,0,3.8-1.1,3.8
		C87.3,53.2,87.3,53.1,86.9,53L86.9,53z M57.3,49.9c0,0.4-0.1,0.4-0.4,0.7c-0.8-0.4-1.4-0.6-1.4-1.8C56.2,48.9,57.3,49.3,57.3,49.9
		L57.3,49.9z M24.6,52.5l1.3,0.2l0.2-0.6l-1-3.2l0.4,0c0.3,1.2,1.7,4.6,2.3,5.4c1.1,1.4,1.8,3.5,2.9,4.9c0.6,0.8,3.8,2.6,4.4,3.3
		c0.6,0.7,1.1,1.5,1.9,2c0.8,0.5,1.9,0.5,2.7,1.1l4.2,1l0,0.4c-1.1,0-2.4-0.2-3.6-0.4c-1.1-0.1-1.6-0.9-2.9-0.9
		c-0.3,0-0.6,0.7-0.7,0.9l-2.2-0.4c-0.2,0.1-0.4,0.4-0.5,0.4c-0.2,0-0.4-0.5-1.3-0.5h-1.3l0.4,1.1c-0.5,0-4.5-2.9-4.9-3.4
		c-0.5-0.5-3.4-4.6-3.4-4.9c0-0.5,0.3-0.6,0.7-0.7v0.5l0.9,0.2l-0.3-1.1l0.3-1.1l1.3,0.2l0-0.9c0-0.6-1.1-2.3-1.8-2.5V52.5
		L24.6,52.5z M136,51.9c0.3-0.6,0.5-1.1,0.8-1.7c0.4-0.7,0.5-0.1,1.1-1.2l0.4,0.2C138,49.7,136.4,51.8,136,51.9L136,51.9z
		 M114.8,47.8c1.1-0.1,0.4-0.4,1.1-0.4c0.6,0,0.9,1.6,1.4,1.6c0.4,0,0.6-0.9,1.3-0.9h0.5c0.5,0,0.7,0.2,1.1,0.4l0.2,1.8l-0.4,0.5
		l-1.2-1.1l-0.1,0.2l-2.7-0.6c-0.3,0.7,0.1,0.8-0.9,0.8c0-0.3,0-0.7-0.4-0.7c-0.4,0-0.1,0.5-1.1,0.5L114.8,47.8L114.8,47.8z
		 M89.2,53.4c-1,0,0.6-4.2,2.5-4.7c-0.3,1.2-0.5,0.9-0.8,2.8C90.7,52.6,90.3,53.4,89.2,53.4L89.2,53.4z M51.6,49.6h-0.4
		c-0.4,0-1.9-1-2-1.8h1.1c1,0,1.9,0.8,2.2,1.6C52.1,49.5,52.1,49.6,51.6,49.6L51.6,49.6z M94.2,49c0-0.6,0.3-1.1,0.9-1.1h0.5
		C95.3,48.7,95.3,49,94.2,49L94.2,49z M33.6,50.3c0-0.5,1.7-3.1,2.3-3.1c0.1,0,0.9,0.5,1.3,0.5l-1.9,3.4c0.8,1.1,0.6,1.8,0.9,3.2
		c0.2,1,1.2,1.5,1.2,2.8c0,0.7-0.3,0.9-0.4,1.6c-1.3,0.3-1.6,1.8-2.2,2.9c-1.1-0.6-2.5-1.9-3.2-2.9c-0.4-0.6-1-1.2-1.3-1.8
		c-0.5-1.2-0.7-0.9-1.3-1.8c0.1-0.3,0.5-1.9,0.5-2.3v-0.9c0-0.5-0.1-0.3-0.4-0.5v1.1h-0.5v-1.1c0-0.6-0.4-0.4-0.4-0.7
		c0-0.1,0.6-1.4,0.7-1.6l2.9,0.2c0.1,0,1-0.3,1.3-0.4c0,0.6-0.2,0.6-0.2,1.3v0.7h0.5V50.3L33.6,50.3z M154.7,48.3
		c0.7-0.2,2-0.1,2.5-0.2c0.8-0.2,0.5-0.7,2-0.7c-0.1,1.1-2.6,1.4-3.8,1.4h-0.5L154.7,48.3L154.7,48.3z M45.5,49.4
		c-0.4-1.4-1.6-1.3-1.8-2.2l0.7,0.4c1.5,0,2.1,0.2,2.3,1.4L45.5,49.4L45.5,49.4z M97.7,48c-0.6-0.2-0.7-0.3-0.9-0.9
		C97.2,47.2,97.5,47.5,97.7,48L97.7,48z M80.4,50.1c0.4-0.8,1-1.9,1.9-2.2c1.1-0.3,1.9-1,3.1-1h1.1c-0.3,1.1-2.5,2.3-3.4,2.9
		L80.4,50.1L80.4,50.1z M37.8,45.9c0.6,0,1.6,0.6,1.7,1.2h-1.1c-0.6,0-0.7-0.1-1.3-0.2l0.1-0.5L37.8,45.9L37.8,45.9z M98.3,46.1
		l-0.3,1c-0.6,0-1-0.4-1-1.1c0,0,0.1-0.3,0.2-0.5L98.3,46.1L98.3,46.1z M47.4,48.9c-0.1,0-2-2.4-2.2-2.9c1.1,0.3,2.7,1,2.7,2.3
		C48,48.7,47.9,48.9,47.4,48.9L47.4,48.9z M51.6,46.2c0-0.3,0.3-0.7,0.5-0.7c0.3,0,0.4,0.2,0.4,0.5c0,0.4-0.6,0.6-0.9,0.7V46.2
		L51.6,46.2z M96.8,44.5v0.7h-0.4v-0.7H96.8L96.8,44.5z M88.8,44.2c0,0.6,0.1,0.9-0.5,0.9c-0.3,0-0.5-0.1-0.5-0.4
		C87.8,44.3,88.3,44.2,88.8,44.2L88.8,44.2z M160.3,45.1c0-0.5,1.8-1.2,2.5-1.3v0.5C162.8,45.2,160.3,45.8,160.3,45.1L160.3,45.1z
		 M97.7,43.8c0.6,0,1.1,0.3,1.1,0.9v0.5C98,45.1,97.7,44.7,97.7,43.8L97.7,43.8z M48.5,42.7c0.9,0.2,1.5,1.8,3.4,1.6l3.6-0.3
		c-0.2,0.8-0.5,1.4-1.4,1.4c-0.9,0-1.4-0.4-2.2-0.5c-0.6,0.4-1.2,0.7-2.2,0.7C48.8,45.6,48.5,43.9,48.5,42.7L48.5,42.7z M92.4,44.2
		c0.2-0.6,0.5-0.9,1.3-0.9c0.4,0,0.2,0.1,0.7,0.2c-0.1,0.5-0.5,0.9-1.1,0.9C92.9,44.4,93.2,44.2,92.4,44.2L92.4,44.2z M82.4,47.2
		c1.1-1.6,2-3.8,4.7-3.8C86.7,44.9,84.2,47.2,82.4,47.2L82.4,47.2z M96.8,43.8c0-0.8,0-0.9,0.5-1.1v0.5
		C97.3,43.8,97.2,43.7,96.8,43.8L96.8,43.8z M47.3,44.4c0-0.5,0.1-1.1,0.5-1.1c0,0,0.4,0.2,0.4,0.2C47.8,44.1,48,44.2,47.3,44.4
		L47.3,44.4z M95.7,43.8c0-0.4,0.5-0.9,0.7-1.1l-0.2,0.5l0,0.4v0.2v0.4L95.8,45L95.7,43.8L95.7,43.8z M36.1,43.1
		c0-0.7,0.7-0.9,1.4-0.9c0,0.6-0.5,2.3-0.9,2.3c-0.2,0-0.5-0.4-0.5-0.7V43.1L36.1,43.1z M53,42.4l0.2,0.7l-0.9,0l-0.2-0.5L53,42.4
		L53,42.4z M96.1,47.4c-0.8-0.1-1.8-0.6-1.8-1.3v-1.1c0-0.4,0.7-1.2,0.7-1.6c0-0.1-0.7-0.8-0.7-1.6v-0.2c0-0.5,0.2-0.7,0.4-1.1
		c0.5,0.1,1.3,0.5,1.3,1.1v0.2c0,0.9-0.7,1.3-0.7,2.3c0,1.6,2,4.3,2,4.3c0,0.4-0.6,0.7-1.1,0.7l-0.2-0.5L96.1,47.4L96.1,47.4z
		 M157.2,42.9c0.1-0.5,2.6-2,3.2-2v0.7c0,0.6-0.4,0.3-0.4,0.9c0,0.5,0.2,0.5,0.7,0.5v0.5l-2.5,0.2l-1,0.6l0.4,0.8l1.6,0.4l0,0.5
		l-1.6,0.2l-0.2,0.5c-1.1,0-0.8-0.5-1.6-0.5c-0.1,0-0.7,0.6-0.9,0.7c-0.5-0.2,0.1-0.2-0.5-0.2c-0.2,0-0.1,0.2-0.7,0.4l0.2,1.3
		l-2.7,0.9l-0.2-0.9c0.5-0.7,0.8-0.6,0.9-1.8h-1.4c0-1.1,0.7-1.4,1.6-1.6l0.2,0.9c0.7-0.1,1.1-0.2,1.9-0.3c1-0.1,0.5-0.3,1.1-1.1
		l-0.2-1.1c0.2-0.3,0.3-0.5,0.7-0.5H157.2L157.2,42.9z M57.9,45.4l-3.4-3.6l0.1-0.1c0.9,0.2,1.2,1.2,2,1.6
		C57.5,43.8,58.1,43.9,57.9,45.4L57.9,45.4z M50.3,41.3l0.4,0.7l-0.6,0.2l-0.5-0.7L50.3,41.3L50.3,41.3z M52.5,41.8L51.9,42
		c-0.5-0.3-0.7-0.3-0.7-1.1h0.9L52.5,41.8L52.5,41.8z M38.1,41.8c1.2-0.3,1.4-1.1,2.9-1.1c0.4,0,1.4,1.3,1.4,1.8l-0.1,0.2l-3-1.2
		c0.3,1.1,1.4,1.5,1.5,3c-0.8-0.4-2.7-0.7-2.7-2V41.8L38.1,41.8z M98.3,43.2l-2.2-2.3C97.4,41.4,97.8,41.9,98.3,43.2L98.3,43.2z
		 M85.2,40.2c0-0.9,1.3-0.4,1.3,0.2c0,0.4-0.5,0.5-0.9,0.5l-0.4,0.6C85.1,40.9,85.2,40.8,85.2,40.2L85.2,40.2z M29.4,41.7
		c0-0.7,0.1-0.9,0.6-1.2c0.2-0.1,1.2-0.4,1.2-0.4h1.4c-0.1,1-1,1.6-2.2,1.6H29.4L29.4,41.7z M48.6,39.3c0.6,0.1,1.1,0.5,1.1,1.1
		c0,0.6-0.3,0.5-0.9,0.5L48.6,39.3L48.6,39.3z M35,42.6c0.1-1.2,3.5-2.3,4.9-2.3L35,42.6L35,42.6z M130.1,45.6
		c0-0.7-0.8-3.1-1.4-3.1h-0.2c-0.7,0-0.5,1-1.8,1.1l-0.8-2.1l-1.2-0.4c-0.1-1.4-1.1-0.4-1.1-1.4v-1.1c0-0.5,0.1-0.5,0.2-0.9
		c0.9,0.1,1.8,0.6,2,1.5c0.4,1.4,0.7,1.4,1.2,2.4l1.8-0.2l1.5,1.6l-0.1,0.8c0.8,1.2,1.8,2.2,2,4.1h-1.1l-0.6-1.1l-1.4,0l0-0.2
		l0.9-0.3L130.1,45.6L130.1,45.6z M89.2,40.6c0-0.5,0.4-0.7,0.5-1.3h0.4c-0.1,0.8-0.4,0.8-0.4,1.3c0,0,0.1,0.3,0.2,0.5l0.8-0.6
		l0.8-0.1c0.1,0.4,0.2,0.4,0.2,0.9c0,0.2-0.5,0.7-0.9,0.7C90,42,89.2,41.4,89.2,40.6L89.2,40.6z M45.8,39.3c0.3,0,0.3,0.1,0.5,0.2
		c-0.2,0.3,0,0.4-0.5,0.4h-0.5v-0.5H45.8L45.8,39.3z M48.5,42.7c-1,0-2.2-0.2-2.2-1.1v-0.4c0-0.9,0.5-0.9,0.5-1.8v-0.7
		c1.3,0.1,0.5,0.4,0.5,1.3C47.4,41.3,48.3,41.9,48.5,42.7L48.5,42.7z M134.5,38.2l0.4,0.5l-0.6,0L134.5,38.2L134.5,38.2z M122,38.8
		c0,0.3-0.1,0.3-0.2,0.5l0.4,1.6c-1.1-0.5-3.2-1-3.5-2.1l1.1-0.2c-0.2,0.5-0.2,0.5,0.5,0.6v-0.5c0.6-0.1,0.6-0.2,1.3-0.2
		C121.8,38.4,122,38.6,122,38.8L122,38.8z M57.3,40.6c0,0-2.3-0.8-2.6-0.9c-0.6-0.2-1.4-1.1-1.8-1.7C55.4,38.1,56.9,38.7,57.3,40.6
		L57.3,40.6z M35.4,39.3c-0.6-0.2-0.8-0.8-0.9-1.4c0,0,0.3-0.2,0.4-0.2c0.3,0,0.5,0.7,0.5,1.1V39.3L35.4,39.3z M99.8,38.1
		c-0.5,0.1-0.3,0.2-0.7,0.2c-0.3,0-0.4-0.2-0.4-0.5c0-0.3,0.1-0.5,0.4-0.5C99.5,37.2,99.7,37.7,99.8,38.1L99.8,38.1z M46.4,37.9
		c1,0,2.4,0.2,2.7,0.9c-0.4-0.1-2.3-0.5-2.5-0.5c-1.8,0-1.3,0.2-3.1-0.1c-0.6-0.1-1.3,0.1-1.3-0.4c-0.1-0.5,0.5-0.7,1-0.7
		c0.8,0,1.8,0.4,2,1.1C45.7,38,45.7,37.9,46.4,37.9L46.4,37.9z M49.6,36.1c0.7,0.2,1,0.3,1.1,1.1l-0.5,0.2l-0.5-0.2V36.1L49.6,36.1z
		 M33.2,38.2H33c-1.1,0-1.5-0.6-1.6-1.6l2,0.2l1.1,0C34.4,37.2,33.7,38.2,33.2,38.2L33.2,38.2z M86.1,37.5c0,0,3-1.3,3.6-1.3h0.2
		c2.5,0,4.9,2.6,5.9,4.1c-1.5-0.1-3.1-3.4-5.9-3.4c0,0-4.3,1-4.3,1.1v-0.5H86.1L86.1,37.5z M39.5,36.8c-0.5,0-0.6-0.3-0.7-0.7
		c0.9,0,1.2,0,1.4,0.7H39.5L39.5,36.8z M97.3,34.5c0.6,0.1,0.7,0.2,0.7,0.9v0.7l-0.9-0.4L97.3,34.5L97.3,34.5z M32.7,34.8l0.4,0h0.7
		c0.4,0,0.5,0.1,0.5,0.5c0,0.1-0.4,0.6-0.5,0.5l-1.5-0.2L32.7,34.8L32.7,34.8z M47.3,36.1c0-0.8-1-0.1-1.3-1.1h0.7
		c0.7,0,1.8,1.2,1.8,2.2c0,0.3-0.5,0.4-0.7,0.5l-1.1-0.5l0-0.7C47,36.4,47.3,36.4,47.3,36.1L47.3,36.1z M34.8,35h1.1v0.4l-1.1,0.2
		V35L34.8,35z M51.9,34.6c1.7,0.4,3.4,1,3.6,2.9C54.3,36.9,52.1,36.3,51.9,34.6L51.9,34.6z M31.2,35.5c0.3-0.6,0-0.5,0.7-0.7
		C31.8,35.4,31.9,35.4,31.2,35.5L31.2,35.5z M92.1,35c0-0.7,0.3-1,0.7-1.3l0.4,1.1l-0.4,0.7l-0.7,0V35L92.1,35z M137.8,34.3
		c0.9,0,0.5-0.2,0.9,0.4c-1.2,0.1,0.1,0-0.9,0.4V34.3L137.8,34.3z M87.7,34.4l0.6,1.5c-1.3-0.1-2.1-0.9-2.2-2.2L87.7,34.4L87.7,34.4
		z M97.5,33.7c0.1-0.7,1.2-1.3,1.3-1.3c0.1,0,1.2,1.1,1.3,1.4c-0.4,0.1-0.4,0.2-0.9,0.2h-0.7C97.8,34.1,98.2,33.9,97.5,33.7
		L97.5,33.7z M81.8,34.1c-0.4,0-0.4-0.5-0.4-0.9l0.9,0.2C82.3,33.7,82.1,34.1,81.8,34.1L81.8,34.1z M43.1,34.1
		c0-0.7,0.1-0.7,0.4-1.1l0.7,0.4l-0.3,0.9L43.1,34.1L43.1,34.1z M35,34.1c0-0.9,0.1-1.1,1.1-1.1l-0.2,1.1L35,34.1L35,34.1z
		 M140.1,34.1c0-0.5-0.1-0.5-0.2-0.9l0.9,0.2c0.1,0.7,0.8,1.4-0.2,1.4c-0.4,0-0.5-0.1-0.5-0.5V34.1L140.1,34.1z M36.6,33.6
		c0-0.6,0.7-0.7,1.3-0.7l-1,1.7c-0.4-0.6-0.3,0.1-0.3-0.6V33.6L36.6,33.6z M95.3,35.4h-0.2c-1.9,0-1.4-2.2-2.3-2.2
		c-0.5,0-0.5,0.4-1.3,0.4h-0.7c-0.4,0-1.1-0.6-1.1-1.1v-1.1c0-0.5,0.1-0.5,0.2-0.9c0.9,0.6,2.5,2.9,4.5,2.9h2.7
		C96.9,34.2,96.4,35.4,95.3,35.4L95.3,35.4z M32.7,34.3c0.2-0.5,1.8-1.8,2.5-2L32.7,34.3L32.7,34.3z M85.6,31.4
		c0-0.3,0.1-0.5,0.4-0.5c0.5,0,0.8,1.2,0.9,1.6h-1.3V31.4L85.6,31.4z M42,32.5l-0.5,0.2l-0.4,0c-0.3,0-0.3-0.1-0.5-0.2
		C41,32,41.8,31.6,42,32.5L42,32.5z M38.1,32.3c-0.7-0.2-0.5,0-0.7-0.5h0.9L38.1,32.3L38.1,32.3z M95.5,32.1
		c0.2-0.8,0.5-1.3,1.4-1.3h0.4c0.4,0,0.5,0.1,0.5,0.5C97.8,32,96.3,32.1,95.5,32.1L95.5,32.1z M92.6,32.5c-0.5-0.6-0.8-0.3-1.1-1.3
		c0.7,0.2,1.8,0.8,2,1.4L92.6,32.5L92.6,32.5z M87.8,31.6c0.2-0.8,0.5-1.2,1.4-1.3C89.1,31.3,88.8,31.6,87.8,31.6L87.8,31.6z
		 M93.9,29.6c1,0,0.9,0.1,1.1,1.1L93.9,31V29.6L93.9,29.6z M93.5,31.6c-0.6,0-1.7-0.6-1.7-1.1c0-0.3,0.2-0.4,0.5-0.4h0.9L93.5,31.6
		L93.5,31.6z M47.3,32.8c0.3-0.5,1.1-0.8,1.1-1.1c0-0.7-1.8-0.2-2.2-1.4l1.8-0.2c0.7-0.1,2.7,1.5,2.7,1.7c0,0.2-2.4,1.3-2.9,1.3
		C47.4,33,47.5,33,47.3,32.8L47.3,32.8z M39.9,29.7c0.3,0.1,1.1,0.2,1.1,0.6c0,0.7-1.1,1.8-1.1,2.2v0.2c0,0.6,0.5,0.5,0.5,1.4
		c0,0.7-0.7,1.3-1.4,1.3h-0.9c0,1.1-0.5,2.3-1.4,2.3h-0.2c-0.8,0-1.4-0.3-1.4-1.1c1.9,0,4.3-2.3,4.3-3.8v-0.7c0-0.4-0.1-0.5-0.2-0.7
		c0.6-0.3,0.4-0.3,0.4-1.6L39.9,29.7L39.9,29.7z M31.4,32.8c0-1.8,1.2-2.2,1.3-3.2l0.6,0.5C33,30.5,33,30.2,33,30.7l0.2,1.4
		c-0.6,0.9-0.6,1.5-1.8,1.8V32.8L31.4,32.8z M114.8,30.5c-0.3-0.2-0.5-0.2-0.5-0.7v-0.5C114.7,29.6,114.7,29.7,114.8,30.5
		L114.8,30.5z M35.7,32.3c0.1-0.9,2.3-2.1,3.1-2.5C38.5,30.7,36.6,31.8,35.7,32.3L35.7,32.3z M116,35.6c-0.2-0.7-1-1.1-2-1.1
		c-0.8-0.5-2.8-1.4-2.9-2.3l1.3-0.2l0.1-0.2l-2.5-1.4l-0.7-0.1l-0.9-0.4l0-0.3l1.7-0.9c0.2,1,0.9,1.4,1.8,1.5c0.1-0.4,0-0.5,0.5-0.5
		c0.4,0,0.5,1.2,0.5,1.6c0.5,0.8,0.6,1.4,1.8,1.4c0.1,0.5,0.7,1.3,1.3,1.3c0.9,0,1-2.3,1.4-2.3c0.8,0,1.8,3.1,2.5,3.6
		c0.3-0.1,0.3-0.2,0.7-0.2c0.6,0,1.2,1.8,1.3,2.5c-1.5,0-0.8-0.8-2-1.6c-0.4-0.2-0.9-0.4-1.1-0.7c-0.3-0.4-0.3-1.1-0.7-1.1l-1.4,0.1
		c0,0.9,0.5,2.6,1.4,2.6h0.5l0.2,1.1l-0.1,0.2l-2.5-1.4c-1-0.1-1.4-0.2-1.6-1L116,35.6L116,35.6z M96,30.5h-0.4
		c-0.2-0.4-0.4-0.5-0.4-1.1v-0.5c0.4,0.5,1.2,0.9,1.3,1.6H96L96,30.5z M92.4,28c0.4,0,0.5,0.1,0.5,0.5v0.5c-0.6,0-1.3,0.5-1.3-0.4
		c0-0.4,0.1-0.2,0.2-0.7H92.4L92.4,28z M36.6,28.7c0,0.5-0.3,0.7-0.5,0.9c-0.1-0.5-0.1-0.9-0.7-0.9l-0.8,0l0.5-1l0.7,0
		C36.2,27.6,36.6,28.2,36.6,28.7L36.6,28.7z M87.9,27.6c0-0.5,0.1-0.5,0.2-0.9h0.5c0.7,0,0.8,2.2,0.9,2.9c-1,0-1.6-0.6-1.6-1.6V27.6
		L87.9,27.6z M54.6,30.5v0.7c-0.8-0.2-2.1-2.1-2.2-3.2C52.8,28.2,54.6,30.1,54.6,30.5L54.6,30.5z M39.5,29.2
		c0.1-0.4,2.7-2.2,3.1-2.2h1.1c3.2,0,7,2.7,8.3,4.7c-1.5-0.1-2-2.5-4-2.5c-0.5-0.3-2.5-1.6-3.2-1.6h-2
		C41.8,27.6,40.6,28.9,39.5,29.2L39.5,29.2z M58.8,26.2c1,0,6.3-1.4,6.9-1.8c0.9-0.6,1.4-1.4,2.6-1.7c1.3-0.4,2.6-0.2,4-0.3
		c2.1-0.2,5.4,0.4,7.1,1.2c0.8,0.4,2.7,0.8,3.1,1.2c0.8,0.6,1.5,1.5,2.6,1.8v2.2c0,1.7-1,3-1.1,4.3h-0.4l-0.1-0.7
		c-0.5,0.1-0.3,0.2-0.8,0.2c-1.4,0-1.7-1.5-4.1-0.2c0.2-2,4.2-3.2,4.7-5c-2,0-3.8,0.6-4.7,1.8c-0.2,0.2-1.1,1.8-1.2,2
		c-0.3,0.7-0.2,2-0.5,2.7l0.6,4.2c0.7,0,1,0,1-0.6v-0.2c0-0.9-0.2-1.3-0.4-2c0.9,0,1.2,0.4,2.2,0.4c2.3,0,2.1-1.4,3.4-1.8
		c0,0.6,0.2,0.6,0.2,1.3c0,0.5-3.5,3.2-3.8,4.3c1.2-0.3,3.4-3.1,4-3.1c0.2,0,0.4,0.2,0.4,0.4c0,0.3-6,5.1-6.3,6.1
		c1.6-0.1,5.2-4.6,6.5-4.7c-0.3,1.4-5.5,4.3-5.9,5.9c1-0.1,2.2-1.5,2.8-2c0.9-0.7,1.8-1.3,2.7-1.9c0,1.9-4.2,3.1-4.7,5.2l4.1-2.9
		c-0.3,1.3-4.2,3.5-4.5,4.7l0.1,0.2l3.1-2.1c-0.2,0.9-1.5,2.1-2.1,2.9c-0.9,1.2-1.2,1.8-1.9,3.1c-1.2,2.1-1.3,5.5-4.4,5.5H73
		c-4.4,0-7.5-3.4-8.8-3.4c0.1,1.4,2.4,2.2,3.5,3c0.2,0.1,1.9,1,2.2,1.1c0.7,0.2,2.6-0.2,2.6,0.6c0,0.6-0.6,2.7-1,2.6
		c-0.5-0.1-1.5-1.3-2.3-1.3h-0.7c-0.9,0-1,0.4-1.8,0.4c-0.5,0-1.3-0.7-2.3-0.7c-0.1-0.4-2.1-2.1-2.6-2.4c-1.1-0.7-2.3-0.9-3-1.9
		h-0.9l-0.4-0.5c0.4-0.8,1.2-3.6,1.3-4.7c1.3,0.9,1.9,2.4,3.8,2.9c-0.1-1.2-1.1-1.1-1.4-2.2l2.4-2.6c-1.4,0-2.3,2.1-3.2,2.1
		c-0.2,0-0.4-0.2-0.4-0.4c0-0.5,4.2-4,4.5-5.4l-5,4.3l0-0.7l5.4-6l-0.1-0.1c-1.8,0.5-3.9,4.4-5.6,4.5c0.5-1.7,5.5-5.5,5.6-6.8
		l-5.5,4.8c0-2,5-5.2,5.1-6.8c-1.4,0.4-4.4,4.5-5.6,4.9c0-1.6,4.2-4.6,4.3-5.9c-1.5,0.3-3.6,4-4.9,4.1l3.3-4.4c-1.9,0.3-2.7,2.9-4,3
		c0-1.6,2.2-2.5,2.5-4c-0.8,0.2-2.8,2.7-3.1,2.7c-0.6,0-0.1-1.2-1.3-1.8c0-2.1,0.1-3.3,0.4-5.6C56.2,29,58.2,26.6,58.8,26.2
		L58.8,26.2z M98,30.5c-0.5-0.1-2.4-1.8-2.9-2.3c-1-0.9-2.7-0.4-3.6-1.7C94.2,26.5,97.5,28.6,98,30.5L98,30.5z M51.9,28.7
		c-1.7-0.4-3.2-0.9-3.6-2.5h0.9C50.5,26.2,51.8,27.6,51.9,28.7L51.9,28.7z M111.2,27.1c-0.4-0.4-0.6-0.5-0.9-0.9
		c0,0,0.3-0.2,0.4-0.2c0.2,0,0.4,0.4,0.5,0.5V27.1L111.2,27.1z M32.5,28c0.2-0.6,2.7-2,3.4-2.2C35.6,26.7,33.5,27.7,32.5,28L32.5,28
		z M53.3,26.5L52,25.2l5.1,0.4l-1.6,2.2L53.3,26.5L53.3,26.5z M88.8,26c-1,0-1.8-0.4-2-1.3l4.1,1.4l0,0.2l-1.6,0L88.8,26L88.8,26z
		 M40.6,24.3L40.4,26l-0.8,1.1C39.4,26.8,39,26.3,39,26l0-1.1L40.6,24.3L40.6,24.3z M42,25c-0.6-0.2-0.9-0.5-1-1.1
		c0.2-0.1,0.6-0.2,0.9-0.2h0.4c0.9,0,1.8,1.2,2.2,1.8c-0.5,0.1-0.3,0.2-0.7,0.2C43.4,25.6,42.4,25.2,42,25L42,25z M87.9,23.8
		c2.1,0,1.8,0.6,2.9,0.9v-0.5c0-0.6-0.4-1.8,0.2-1.8c0.6,0,1.4,2,1.4,3.1l2-2.1c0.1,1,0.2,2.8-0.6,2.8c-1.6,0-2.1-0.5-3.3-0.8
		C89.1,25,88.6,25,87.9,23.8L87.9,23.8z M58.2,25.1c-2.2,0-4.9-1.4-5.8-2.7l1.6,0.2l0.5,0c1.5,0,2.7-0.4,3.8,0.1
		c0.7,0.4,2.1,1.1,2.5,1.7C60.4,24.5,58.5,25.1,58.2,25.1L58.2,25.1z M40.1,22.9c2.6,0,4-2.5,7.7-0.5c1.7,1,4.2,2.8,4.4,5.2
		c-0.6-0.4-2.3-2.5-2.3-3.4h-0.5c-0.1,0-2-1.6-3.6-1.6c-4,0-7.1,1.6-9.5,3.2C36.2,24.6,39.1,23.6,40.1,22.9L40.1,22.9z M86.9,21.5
		c0-1,0.9-0.3,0.9,0.4c0,0.4-0.5,0.5-0.9,0.5V21.5L86.9,21.5z M85.8,21.5v0.9c-0.5-0.2-0.7-0.6-0.7-1.3v-0.5
		C85.7,20.7,85.8,20.8,85.8,21.5L85.8,21.5z M83.7,23.3l-0.4-2.2c0.5,0.2,2.3,2.1,2.3,2.9c0,0.4-0.1,0.5-0.5,0.5
		C84.9,24.6,83.8,23.6,83.7,23.3L83.7,23.3z M64.2,22.6c0-0.8,0.3-1.9,0.9-2.2l-0.4,2.1L64.2,22.6L64.2,22.6z M46.4,20.1
		c0-0.8,0.4-0.6,0.4-1.8h0.5v2.9c-0.5-0.1-0.9-0.2-0.9-0.7V20.1L46.4,20.1z M37.5,21.3c0-0.6,0.7-0.9,1.1-1.1l-0.2,1.1l-0.8,0.6
		L37.5,21.3L37.5,21.3z M77.8,19.4c0.3,0.8,1,1.3,1,1.9c0,0.6-0.6,0.2-1.1,0.2h-0.5L76,20.2L77.8,19.4L77.8,19.4z M89.7,19.7v0.5H89
		C89,19.7,89.2,19.7,89.7,19.7L89.7,19.7z M73.5,19.5l0.9,0.4l-0.4,0.1v0.4l-0.8,0L73.5,19.5L73.5,19.5z M74.6,18.8
		c0-0.4,0.5-0.9,0.9-0.9c0.7,0,1.6,0.7,1.6,1.4C76.2,19.3,74.6,19.9,74.6,18.8L74.6,18.8z M65.4,21.9c0.3-1.4,1.5-4.1,2.9-4.1
		c0.2,0,0.9,0.7,0.9,1.1c0,0-1.4,1.6-1.6,1.8C67.1,21.3,66.6,21.8,65.4,21.9L65.4,21.9z M52.8,19.3c0-0.6,0-0.9,0.5-0.9h0.4
		c0.5,0,0.4,0.1,0.5,0.5h-0.7C53.2,19.5,53.7,19.3,52.8,19.3L52.8,19.3z M71.4,19.2c0-0.6,0.3-1.4,0.7-1.4c0.2,0,0.8,0.9,0.9,1.1
		c-0.4,0.2-0.5,0.4-1.1,0.4H71.4L71.4,19.2z M47.8,19.5c0-0.9,0.7-3.4,1.4-3.6l0.2,2.3c0,0.5-0.9,2.4-1.5,2.5
		c-0.1-0.4-0.2-0.4-0.2-0.9V19.5L47.8,19.5z M81.1,19.2c0.2-0.3,0.6-0.9,1.1-0.9h0.9c-0.3,0.4-0.8,1.1-1.4,1.1
		C81.6,19.3,81.3,19.2,81.1,19.2L81.1,19.2z M61.5,23.5c-1.6-0.1-5-4-5-5.4v-0.5c0,0,3.4,1.5,3.6,1.7c0.8,0.6,1.5,2.1,1.5,3.6V23.5
		L61.5,23.5z M73.9,18.1c-0.6,0-1.3-0.5-1.4-1.1c1,0,2-0.1,2.2,0.7C74,17.9,74.1,18.1,73.9,18.1L73.9,18.1z M69.2,17.5
		c0-0.3,0.7-0.5,1.1-0.5h0.9l-1,1.1C69.8,17.9,69.2,17.9,69.2,17.5L69.2,17.5z M62.7,19.3c0.8-1.7,1-2.3,3.6-2.3
		c-0.3,1.2-2.8,2.6-2.9,5.9l-1.2,0.6c0.1-1.6,1-1.5,1-2.4C63.3,21.1,62.8,19.7,62.7,19.3L62.7,19.3z M59.9,16.8
		c0-0.6,0.3-0.5,0.9-0.5l0.2,0.5l-0.2,0.5l-0.9,0V16.8L59.9,16.8z M82,17c-0.3,0-0.4-0.5-0.5-0.7l0.1-0.4l0.7,0v0.5
		C82.4,16.8,82.2,17,82,17L82,17z M54.3,15.9c0.2-0.4,1.1-1.3,1.6-1.3h0.4c0.8,0,1.2,0.5,2,0.7v0.4c-0.8,0.2-1.3,0.5-2.2,0.5h-0.7
		C54.8,16.3,54.6,16.1,54.3,15.9L54.3,15.9z M83.1,16.3l-0.2-1.1c1.2,0.1,1.8,1.1,1.8,2.5l-0.1,0.1L83.1,16.3L83.1,16.3z M65.6,15.9
		v0.5c-1,0-1.6-0.4-1.6-1.4C64,14.2,65.6,15,65.6,15.9L65.6,15.9z M71.4,15c0.5-0.3,1.8-1.4,2.2-1.4c2.1,0,2.3,1.1,3.1,2.5
		c0.5-0.1,0.9-0.4,1.4-0.4c2.1,0,2.3,1.7,2.3,4c0.5,0.3,1.4,0.9,1.4,1.6v1.1c-1-0.1-1.1-1.2-1.5-2.1c-0.4-1-0.8-1.2-1.5-1.9
		c-1.5-1.5-2-1.9-4.4-2.5c0.2,0.7,1.3,0.8,1.9,1.1c0.8,0.4,1,0.7,1.6,1.2c1.3,1,1.6,1.9,2.4,3.4h-0.7l-0.8-1.8
		c-0.2-0.1-1.9-1.9-2.2-2.2c-0.8-0.8-2.5-0.7-2.7-1.6l0.4-0.1c-0.3-0.1-2.7-0.6-2.7-0.6h-0.2c-2.5,0-3.8,1.4-4.9,1.4v-1.1
		c0-0.5,1.1-1.8,2-1.8H69C69.7,13.9,70.9,14.7,71.4,15L71.4,15z M76.8,14.7c0-0.7,0.8-1.2,1.3-1.4l0.2,0.5L78,14.7
		c-0.6,0.5-0.2,0.5-1.2,0.5V14.7L76.8,14.7z M70.8,12.1c0.4,0.1,0.7,0.4,0.7,0.9v0.2c0,0.5-0.1,0.5-0.2,0.9c-0.4-0.1-0.5,0-0.5-0.5
		V12.1L70.8,12.1z M49.6,13.8c0.2-1.5,2.2-0.7,3.2-1.3c0.3,0.1,0.3,0.2,0.7,0.2h0.9c-0.1,0.5-1.3,1.1-1.6,1.1H51H49.6L49.6,13.8z
		 M56.6,13.8c0.2-0.8,2.9-2,4-2c1.1,0,2,0.7,3.4,0.7v0.4c-0.7,0.2-2.1,1.7-3.6,1.4L56.6,13.8L56.6,13.8z M49.4,20.2
		c0-0.1,1.5-2.8,1.6-2.9c0.4-0.5,0.5-0.5,1-1.2c0.4-0.5,0.5-1,0.8-1.4c0.8-0.8,4.2-2.9,5.5-3.2c-0.2,0.3-2,1.4-2.6,1.9
		c-0.8,0.7-1.2,1.6-2,2.3c-1.3,1.1-1,1.1-2,2.4C51.2,18.8,50.3,20.2,49.4,20.2L49.4,20.2z M63.5,10.1c-0.1,0.5,0,0.5-0.5,0.6
		l-1.6,0.2l-0.4,0c-0.5,0-0.7,0.2-1.1,0.4c0.2-0.6,1.1-0.8,1.8-0.9L63.5,10.1L63.5,10.1z M52.1,10.5c0.9-0.2,0.5-0.7,1.8-0.9
		c0.4-0.1,1.7,0.3,1.7,0.8c0,0.3-1.7,0.7-2,0.7h-0.2c-0.6,0-0.7-0.1-1.3-0.2V10.5L52.1,10.5z M81.5,12.1c-0.1-0.6-0.4-1.2-1.1-1.2
		C80.2,10.1,80,10.6,80,10V9.1l1.2,0.4l1.2,2.8L81.5,12.1L81.5,12.1z M79.6,10.3l-0.5,0V9.8h0.4L79.6,10.3L79.6,10.3z M66.5,10.3
		c-0.5,0-0.2-0.1-0.9-0.2l0-0.4l1.3-0.2l0,0.4c1.3-0.1,1.3-0.3,3.3-0.3c0.8,0,2.4-0.1,3.6-0.1l0.5,0.4c1.3,0,3.5,0,3.8,0.9h0.5
		c0,0,3.6,2,4,2.2c0.8,0.4,2.8,2.3,2.9,3.2c-0.9-0.6-0.6-0.9-1.9-1.6c-0.8-0.4-1.2-0.9-2.3-1c-1-0.7-1.7-1-2.7-1.8
		c-2-1.5-0.8-0.6-3.3-1.2c-1.2-0.3-7.5-0.4-8-0.7C66.7,10.3,66.9,10.3,66.5,10.3L66.5,10.3z M55.5,8C56.8,8,57,7.6,58,8.2
		c0.7,0.4,1.3,0.7,2.2,0.9v0.4l-2.7,0.4c-0.4,0-3-0.8-3.2-1.2L55.5,8L55.5,8z M75.9,8c-1.1,0-2.1-0.2-2.3-1.1l1.6,0.2L75.9,8L75.9,8
		z M68.5,9.1c-0.9,0-2.6-1.6-4.5-1.8c0-0.4,0.1-0.5,0.5-0.5c1.7,0,4,1.2,4.7,2.2C68.7,9,68.9,9.1,68.5,9.1L68.5,9.1z M69.6,7.1
		C69.8,6.3,70.7,6,71.7,6c0,0,0.6,0.3,0.9,0.4C72.4,7.2,70.6,7.1,69.6,7.1L69.6,7.1z M39.3,95.5l0.5,0.2v-0.7h-0.4l0.1-0.8l0.7,0.4
		c-0.1-0.9-0.4-0.7-0.4-1.4c0-2.4,0.5-2.9,1.9-4c0.7-0.6,2.7-2.6,3.5-2.3l0.4-0.5c0.9,0.2,2.1-0.4,2.2-1.7l0.5,0.2
		c1.2-0.6,1.9-0.4,3.1-0.1L50.3,85c-0.3,1.2-0.3-0.1-0.9,1c-0.5,0.9-0.5,0.5-1.2,1c-0.8,0.5-1.7,1.1-2.3,1.9
		c-1.3,1.6-1.2,4.4-1.7,6.7h0.4v0.7c0,0.4-0.1,0.5-0.5,0.5h-0.4c-0.4,0-0.5-0.3-1-0.5l0.6,0.7l-0.2,0.5l0.7,0.2
		c0,0.3-1.1,3.5-1.2,3.8c-0.7,1.5-2.3,2.4-2.4,2.8l0.3,0.2l-0.9,0.2v0.7c1.2-0.3,3-2.3,3.5-3.5c0.3-0.7,0.6-1.9,0.9-2.7
		c0.2-0.7,0.9-1.8,1.1-2.5c0.5-1.9-0.3-3.9,0.7-6.5c0.8-2.2,3.4-2.2,3.8-3.4l1.9-0.8l0.2,0.5l0.4-1.8l1.4-0.2l0.6,1.8l-0.2,0.6
		l0.5-0.2v0.4l0.6,0l0-0.7l-0.3-0.4l-0.5,0.2L54,85.7l0.6-0.3v-0.7h0.5c0.2,0.8,0.7,0.6,1.4,1.1c3.2,0,4.4,1.8,5.4,1.8
		c0.4,0,0.5-0.1,0.5-0.5c0-0.9-0.9-0.3-1.7-0.8c-0.5-0.3-1.1-0.8-1.6-1c-0.4-0.2-3.1-0.7-4.1-0.8V84l-0.6-0.1l0.6-0.1l-0.4-0.9
		c-1.7,0-4.5,0.1-5.8-0.2l-0.7,0.6c-0.8,0-0.6-0.2-1.3-0.2c-1.6,0-1.4,0.5-2.7-0.1l-0.7,0.2l-0.2,0.7c-1-0.7-0.8,0-1.1-1.1
		c-0.2-0.8-0.7-0.5-1.8-0.5c0.3-0.4,2.6-1.5,3.2-1.6c1.8-0.2,2.8-0.3,4.5-0.2c0.1,0,4.5,0.4,4.6,0.5c1.1,0.3,2.6,1.1,3.6,1.5
		L56.4,82h0.7c-0.3-1-0.4-0.3-1.4-0.6c-0.5-0.2-0.6-0.4-1.5-0.7c0.2-2.1,4.8-3.5,5.2-5.2c0.9-0.1,1.1-0.4,2.2-0.4h0.5
		c1.2,0,1.9,0.6,2.9,0.9c1.1,0.4,1.6,0.5,1.6,2.1c-1.1-0.1-0.4-0.4-1.1-0.4l-0.4,0L63.1,78l-1.3-0.5l-1.2,0.6l0.1-0.2l-1.3-0.5
		l-0.7,0.1v1.1c0.6,0.2,0.6,0.4,1.3,0.4l0.5,0l0.2-0.4v0.4l0.7,0l1.6-0.2l-0.3,1.1c-0.9,0-1.7,0.4-1.9,1.1l-2.3,1l0,0.4l2.7-0.4v0.5
		l-0.3,0l0.2,0.6l-3.6-0.6c0.4,0.5,2.5,1.2,3.3,1.5c1.1,0.4,2.3,1.7,3.3,1.2c0-2-1.5,0-2-1.6l0.6-0.4l0.8-0.1l0.5,0.6
		c-0.3-1.6-1.2-0.6-0.8-2.3c-0.6-0.4-0.4-0.9-0.4-1.6l2-0.8l1.6-0.3c0.5,0,0.4,2.8,0.4,3.6h-0.4c0.1,0.8,0.3,0.6,0.4,1.8l0.2,2.2
		l-0.5-0.4l0,0.7h-0.5v-0.5c-1-0.1-0.7-0.8-1.4-1.3L64,85.4l-0.9,0.5v0.9l1.6,0l0.2,0.7c-1,0.2-1.5,0.6-1.9,1.3
		c-0.2,0.3-1,1.8-1.1,2.1l0.7,0l0.3-1l1.2-1.3l3.6-0.8l-0.1-0.7c0.1-0.2,0.2-0.3,0.1-0.7l-0.3-3.6l0.2,0l-0.5-3l0.5,0.4
		c0,0.2-0.2,3.3,0.4,3.3c0.3,0,0.3-0.6,0.6-1.2c0.3-0.5,0.6-0.8,0.8-1.4h0.7V80c0-0.3,1.5-1.4,1.6-1.4c0.2,0,0.4,0.2,0.4,0.4
		c0,0.8-0.3,1.2-0.4,2h0.5v0.4l-0.5-0.2l-0.1,0.7l0.2,0.3l0.5,0v0.5c0.8,0.1,0.9,0.1,1.1,0.7l0.5-0.2c-0.1-0.2-0.4-0.4-0.4-0.5
		c0-0.7,0.4-1.2,1.1-1.3v0.4l0.8-0.6L74.9,81l-1.1-0.1c-0.2,0-0.2,0.2-0.7,0.3l0.6-1.2l-0.1-0.4l0.4,0v0.7l0.5-0.2l0,0.6
		c0.7-0.1,1.3,0.1,1.3-0.5c0-0.1-0.3-0.4-0.4-0.5c1.8-0.4,0.1-1.5,2.3-2c0-0.3,0-0.7-0.4-0.7c-0.6,0-1.8,0.5-2.5,0.8
		c-1.1,0.3-1.3,1.2-1.8,1.4v1.1c-0.7-0.1-0.7-0.2-0.7-0.9v-0.5c0-0.4,0.1-0.4,0.4-0.7c0-0.6-0.2-2.2,0.4-2.2l0.9,0.1l0.2,0.4
		c1-0.1,2.5-0.1,3.3-0.9c0.6-0.5,1.4-2.5,2.2-2.5c0.5,0,0.5,0.3,1.3,0.4c-0.1,1.1-1.8,3.1-2.5,4.2c-0.5,0.9-1.5,4.2-2.2,4.4
		c0,1.1-0.7,1.2-0.7,2.3c0,0.1,0.3,0.4,0.4,0.5l0.4-0.2L76.2,84c0.6-0.1,1.1-0.1,1.1-0.7v-0.7H77V82l0.5,0.4
		c0.3-1.1,0.8-1.1,1.4-1.7c0.8-0.9,0.4-1.3,1.2-1.9c0.4-0.4,2.3-3.1,2.3-3.8v-1.1l1-1.1l-0.8,4l-1.3,2.7l0.2,0.1l1.1-1.6l0.3-0.1
		v0.7l1.9-1.1l0.2-0.7l-0.2-1.2c0.8,0.3,0.3,0.5,0.8,0.5c0.3,0,0.1-0.4,0.7-0.4H87v-0.5c0-0.6-1.3-0.9-2-0.9h-1.3l0.4-1.4l1.5-1
		c0.3,0.6,0.8,1.5,1.5,1.5h1.1v0.7c0,0.7-2.2,4.1-2.2,4.7c0,0.4,0.5,0.5,0.9,0.5c0.3-1.1,1.6-1.7,1.6-3.2c0.7-0.3,1.7-3.2,2-4.1
		c1.1-0.1,0.4-0.4,1.1-0.4h1.1c0,1.6-1,2.3-1.6,3.2c-0.4,0.7-0.7,0.8-1,1.3c-0.5,0.8,0.1,1.1-1,1.4v0.7L88.7,78
		c-0.2,0.3-0.5,1.1-0.6,1.2c-0.3,0.2-0.6-0.5-0.7,0.6c1.2,0,0.6-0.4,1.3-0.4h0.5v-0.5l1.4-0.2l0,0.7l-0.7,0.1l-0.5-0.2l0,0.8
		c-0.3-0.1-2.3,0.5-2.5,1.3l1.6-0.4l0-0.3h0.7c0.5,0,1-0.5,1.1-0.9L91,80c-0.3,1.1-2.4,1.2-3.2,2.3H87l-1.4,0.8l-0.1-1l0.5,0.2
		l0.6-0.7l-1.8,0.1c0.5-0.8,1.1-0.7,1.1-1l-0.1-1.1c-0.7,0.1-1.4,1-1.6,1.6c-0.9,0.1-2.1,1-2.5,1.6h-0.9l-1.4,1.3l-0.8-1
		c-0.2,1.3-1.2,0.7-1.2,1.5v0.7L76.8,86l0-0.6h-0.7c-0.6,0-0.6,0.4-0.7,0.9h-0.7l0.7-1.1l0.4-0.2l-0.6-1.3l-0.8,0.8l0-0.6H73v-0.4
		h-0.4l0.3,0.7l-1,0.2c-0.2,0.9-0.9,1.2-1.6,1.6l1.8-3.2l-1.6,0.6L70.3,84c0.2,1.1,0,1-0.5,1.8c-0.3-0.2-0.3-0.4-0.7-0.4
		c-0.8,0-1.1,1.7-1.1,2.5l0.7,0l0.5-0.4l0.2,0.5l1.6,0.2v0.9c-0.4,0-2.3-0.4-2.3,0.5c0,0.5,0.9,0.2,0.9,0.7c0,0.6-0.3,0.3-0.6,1
		l-1.2,0.6c0.9,0.3,0,0.3-0.4,0.7C67,93,66.9,93.6,66.7,94c0.9-0.2,1.2-1.1,1.6-1.8l1.5,0l0.5-0.6l-0.1-0.6l0.6,0.9l-0.7,0.6
		c0.9,0.3,0,0.3-0.4,0.7c-0.3,0.3-0.4,0.9-0.7,1.3c0.7-0.2,1.3-0.9,1.4-1.6c0.5,0.1,1.6,2.4,2.9,3.2c0-1.8-2-2-2-3.4
		c0-0.5,0.2-0.7,0.4-1.1l1.1,0.2c0-1.5-0.2-1.2-1-1.6l-1,0.9l-0.1-0.5l1.3-1.7l-0.4-0.5l0.7,0.3l0.2-0.5l-0.8-0.4l-0.2-0.7h0.5
		c-0.3,0.6,0.4,0.7,1.3,0.7l0.2,0.9l-0.7-0.6l0.2,0.5L72.5,89l0.8,1.1l1.2,0.9l0.5-0.5h-0.4v-0.5c0-0.5,0.3-0.5,0.6-0.7l0.7,0.6
		c0.9-0.1,1.4-0.4,1.3-1.1H78c-0.2,1.2,0.5,1-0.9,0.9C77,89.9,77,90,77,90.4V91h-0.4l0-0.4l-1.8,0.6c0.2,0.8,2.2,3,2.2,3.4v0.2
		c0,0.7,0,0.5-0.2,0.9l0.2,0.5c-0.2,0.3-0.4,0.3-0.4,0.7c0,0.5,0.1,0.4,0.5,0.5l0.3-2.5l0.7-0.4l8.6,0.5c0.4-0.3,1.1-1.3,1.6-1.3
		h1.6c1,0,1,0.4,2,0.4l1.1,0l2.2-0.2c1-0.7,1.1-0.6,1.4-2c1.7,0,4.4-0.3,6.1-0.6c1.1-0.1,1.8-0.3,2.3-1.1c1-1.5,0.1-0.7,1.7-1.7
		l5-0.7v-0.4h-0.9c-1,0-3.4,0.1-4.4,0.6l-2.7,0.9h-1.3c-0.2,0.1-0.5,0.3-0.5,0.5c0,0.1,0.2,0.4,0.4,0.5c-0.7,0.2-1.1,0.7-1.3,0.7
		c-0.4,0-0.3-0.4-0.4-0.7h-0.4c-0.1,1.6-2.9,1.4-4.5,1.4c-0.4,0.8-0.2,1.8-0.9,1.8h-0.9c-1.5,0-1.5-1.8-2.7-1.8h-4.7
		c-0.9,0-1.6,0.3-2.2,0.6l-1.6,0.6c-1,0-1.4-0.1-1.6,0.8l2-0.4c0.5,0.2,1.1,0.4,1.8,0.4h1.4v0.4l0.4,0l-0.4,0.8l-3.8-0.5
		c-0.5-0.1-0.7,0.1-1.1,0.2c-0.3-0.2-1.4-0.4-2-0.4l-1.8,0c0.5-0.6,2.9-1.8,3.6-1.6c0.6-0.9,3.5-1.3,4.7-1.8
		c0.9-0.3,1.3-0.7,2.5-0.8c1-0.1,1.9-0.3,2.5-0.7c1,0,5.1-0.4,6.2-0.6c2.1-0.4,4.8,0,6.6-0.4c-0.7-0.9-7.2-0.1-7.7-0.3l-4,0.3h-1.4
		l0,0.3l-1.1,0.2l-0.4-0.2L89,88.8l-0.5-0.2c-0.4,0.6-2.3,0.9-3.5,0.8l-0.9,1l-0.7-0.3l-6.6,2.6c0.1-1.1,0.5-0.5,0.5-1.3V91l0.5,0
		l-0.1-0.8l0.3,0.6h0.4c0.3-0.9,0,0,0.5,0c1,0,1.5-0.5,2.5-0.5l0-0.7l1.3,0.2c0.3-0.8,1.6-0.9,2.7-1.1c0.4-0.1,0.8-0.4,1.2-0.6
		c0.7-0.3,1,0.1,1.7-0.3c1.7-0.9,3.8-1.4,6.3-1.4c0.1,0.1,1.3,0.7,1.3,0.7c0.5,0,0.4,0,0.7-0.2l0.4,0.2c0.2-0.1,0.2-0.2,0.5-0.2
		c0.7,0,0.1-0.1,0.5,0.2l5.4-0.9l0.9,0l2.7,0l4.4,0.5l0.4,0.7c0.2-0.1,0.4-0.1,0.4-0.4c0-0.5-2-1.4-2.5-1.6
		c-0.3-0.1-3.4-0.7-3.6-0.7l-1.8-0.1l-7.9,0.6L95.9,85c-0.4,0.2-5.5,1.3-6.3,1.3c-0.3,0-0.5-0.1-0.5-0.4c0-0.5,4.2-2.3,5-2.3
		c0.1-0.9,1.8-1.2,2.6-1.4c1.6-0.4,1.9-0.9,3-1.2c1.6-0.4,4.9-1.2,6.9-1.2l3.4-0.1l7.4,0.9l2.6,1.7l0.6,1.4
		c-0.9,0.5-2.2,0.8-2.2,2.2c0,0.4,0.1,0.2,0.1,0.7l-0.1,1.1l0.5-0.6l-0.2-1.6c-0.1-0.4,1.8-1.4,2.3-1.4l0.1-1.7l1.4,1v0.9
		c0.1,0.1,1.5,1.6,1.5,1.8l0.5,2.2l0.2-0.1l1.8,0.3l1.3,0.9h1.4c0.4,0,1,0.5,1.4,0.5h0.5c0.2,0.6,1.5,0.9,2.2,2.1
		c0.6,0.9,1.1,1.7,1.7,2.6v0.9c0.2,0.3,2.5,5.7,2.5,5.8v0.4c0,0.5-1.9,1.1-2,1.1c-0.6,0-0.7-0.1-1.3-0.2V102l-0.4,0l0.4-0.5
		l-0.9-1.2l0.2-0.5l-0.2,0.1l-1.3-2.2c0-1.1-0.1-1.8-1.3-1.8l0.6,2.7c-0.1,0.3-0.2,0.3-0.2,0.7c0,0.7,0.2,1,0.4,1.4l-0.2,0.4
		c0.6,1.3,0.1,0.9,1.4,1.8v-0.5c1.2,0,0.6,0.2,1,0.8c0.3,0.4,0.9,0.3,1.5,0.5l1.5-0.3l-1,1.2c0.9-0.2,2.2-2.1,2.2-2.5
		c0-1.1-0.3-2.2-0.7-2.9l0-0.5l-1.2-2.7v-0.7c-0.5-0.4-1.9-2.8-2.6-3.7c-1-1.2-2-2.4-4-2.4c-0.1-0.1-0.5-0.4-0.5-0.4l-2,0.2
		c-0.2-0.9-0.8-0.7-1.7-0.9c-1-0.2-0.7-0.8-0.6-2.1L123,84l-0.1,0.1v-0.5c0-0.7-1.5-2.3-1.9-2.7c-0.6-0.6-2.2-1.4-3.1-1.8
		c-2.1-0.9-6.6-0.7-8.1-1.4c0,0-0.3,0.2-0.4,0.2l-1.3,0l-1.1-0.1c-0.3,0.2-0.3,0.4-0.7,0.4c-1.3,0-0.6-0.6-1.7-0.6l1.2,1.7h-1.3v0.4
		l-1.4,0l-1.6,0.2c0.1-0.8,0.1-0.8,0.7-0.5l0-0.3l2.1-0.2l-0.4-0.9l-1.1,0.2l1.1-1.2c-0.7,0.2-0.7,0.4-0.9-0.4L104,76
		c0.2-0.7,2.8-2,3.9-1.8l-0.7,0.5l-2.3,1.6l0.6,0.3l0.8-1l0.5,0.1l2.5-0.4l0.3,0.2l0.7-0.1v0.4c-0.6,0-1.9,0.7-2,0.7
		c-0.7,0-0.1,0.1-0.5-0.2c-0.9,0.4-1.2-0.1-1.4,1.2l3.4-1l0.5,0.1l5.9-0.6h1.1c0.5,0,5.4,1.9,6,2.2l0.7-1c1,0.1,2.2,1.6,3.2,1.6
		l0.7,0l0.2-1.1c1.4,0.1,1.5,1.4,3.1,1.4c0.5,0,0.5-0.1,0.9-0.2c0-0.5,0-0.7,0.5-0.7c1,0,2.3,1.3,2.9,1.3h0.4c0.7,0,0.6-0.8,0.7-1.4
		l0.3,0.1l0.8,0.4c0.3,1,1.8,2,3.1,2c0.5,0,0.5-0.2,0.5-0.7c1.5,0.1,2.3,2.2,4,2.2c0.6,0,0.5-0.3,0.5-0.9c1.1,0.3,1.5,1.6,4,2.2
		c0.6-0.3,1.1,0,1.1-0.7v-0.2c0-0.4-0.7-2-0.9-2.3c0.5-0.3,2.3-1,2.3-1.6v-0.5c0-0.8-1.5-1.1-2.3-1.1h-2.3c0-1.9-2.5-1.3-4-1.3
		l-0.6,0l0.2-0.5l-0.4-0.7l-2-0.2l-0.5,0l-1.6,0.2c0.1-0.5,0.2-0.3,0.2-0.7c0-0.1-0.2-0.4-0.4-0.5l-1.4-0.2
		c-0.7-0.1-1.8,0.5-2.9,0.5v-1.1c-1,0-2-0.2-2.7-0.2c-0.8,0.1-1.7,0.5-2.4,0.5l0.2-0.7l-0.2-0.5c-1.3,0-1.9,0.5-3.2,0.5h-0.4
		c-0.5,0-0.4-0.1-0.5-0.5h-0.7c-0.4,0-0.4,0.1-0.7,0.4l-0.9-0.2l0-0.4l0.9-0.2v-0.4c-1.4,0-4.8,1.1-5,2.3l1.6-0.8L121,72l1.7-0.5
		c-0.5,0.5-1.7,0.9-2.5,1.3c-1,0.6-1.3,0.9-2.4,1.3l-1.8-0.3l-0.9,0.3l-0.2-0.7l4.1-1.4c0.2-0.8,3.5-1.8,4.5-2.3l0.5,0.2l0.2-0.5
		l3.4-0.6c0.1-0.1,0.4-0.4,0.5-0.4c1,0,1,0.4,2,0.4h2.3v0.4h-0.7c-1.5,0-6.9,0.8-7.9,1.3l0.2,0.4l0.5-0.4l13-1l1.4,0l9,1.3l0.5,0.4
		c3.2,0,4.9,1,7.5,1.5c1.7,0.3,5.6,1.5,6.4,2.8c1.2,1.9,1.9,3.9,3.2,5.8c0.7,1,2.5,5.5,3.4,5.8c-0.1-0.9-0.5-2.2-0.8-3
		c-0.2-0.5-0.2-0.9-0.4-1.4c-0.2-0.7-0.4-0.7-0.7-1.3c-0.5-1.3-0.5-1.6-1-2.8c-0.3-0.7-1.1-2-1.3-2.7c1,0.2,5.3,2.6,6,3.2
		c1.5,1.4,3,3.4,3.6,5.6c-0.7,1.5-0.4,1.2-1.7,2.3c-0.8,0.7-1.6,1.1-2.2,2.1l0.8,0.5c-0.5,0.7-3.4,2.1-3.4,3.2
		c0,0.5,0.1,0.4,0.6,0.6l-2,1.2v1.1c0,1-0.7,0.9-0.9,1.6c1.3-0.1,0.4-0.9,2.4-0.8l0.5-0.8h-1.4v-0.7c0.5-0.3,0.9-0.7,1.6-0.7h0.9
		v0.7h0.4c0.1-0.9,0.5-1.1,0.5-1.6c0-0.2-0.2-0.4-0.4-0.4c-0.6,0-0.4,0.4-0.7,0.4c-0.1,0-0.7-0.6-0.7-0.7c0-1,3.6-2.2,3.6-2.9
		c0-0.6-0.4-0.3-0.4-0.9c0-0.6,0.3-0.5,0.7-0.7c0.1,0.4,0,0.5,0.5,0.5c0.8,0,1.1-1.2,1.5-1.8l-0.2-0.7l1.3-0.7v0.5
		c0,0.7-0.7,0.7-0.7,1.4c0,0.3,0.2,0.3,0.4,0.4l-0.4,0.5l0.3,0.7l-0.5,0.4l-0.1,0.8l-0.8,1.1l-1.1,0l-0.6,2.6
		c0.1,0.3,0.2,0.3,0.2,0.7v0.2c0,0.1-1.5,1.4-1.7,1.5c-1,0.7-0.8,0.8-0.7,2.5l-1.5,0.8l-0.6,1.2h-0.5c-1,0-2.3,2.6-2.5,3.6
		c-0.3-0.1-0.5,0-0.5-0.4c0-0.7,0.5-0.4,0.5-1.1v-0.7l-0.4,0l0.2-0.7c0.9-0.1,2.3-1.2,2.3-2l-2.3,0.5l-0.9-0.1l0.2-0.5
		c-0.4,0.1-0.5,0-0.5,0.5v0.7c0.3,0.1,0.5,0,0.5,0.4c0,0.3-1.4,1.3-1.7,1.5c-0.5,0.3-1.7,2.2-0.6,2.1l1.4-0.2l0,2.2h0.7v0.5
		c0.7-0.1,0.9-0.5,1.1-1.2l0.9,0.4l0.9-0.2c0-1,0-1.4,1.1-1.4l0.5-1.6l0.7,0l0.8-2l0.2-1.6l0.3,0l0.2,0.7l0.1,0.2l0.9-1.1l0.6-3.2
		c0.6,0.2,0.5,0.4,0.7,0.4c1,0,1.2-4.1,1.6-5l1.1,0.3c0.2-1.1,0.7-1.6,0.6-3.1l0.3-3.4c-0.9-1.9-0.1-3.2-1.9-5.1
		c-1-1-2.3-2.8-3.9-3.1l1,1c-2-0.5-4.4-3.1-7.1-3l-1-1.3l0.1-0.2l2.1,0.5c-0.9-0.8-1.9-0.7-2.6-1.4c-1.2-1.3-0.6-0.8-2.3-1.7
		c0.3,1.2,1.5,0.4,1.9,2.1c0.4,1.6,0.3,1.7,1,3c1,1.7,1.8,3.5,2.7,5.2c-0.7-0.2-3.7-6.2-4.3-7.2c-0.7-1.2-1.6-2.2-3-2.8
		c-0.8-0.3-3.1-1.7-3.4-2.4l5,2.3c-0.4-1.4-4.7-2-5.6-3.3l2.7,0.8c2.8,0.1,8.2,2.6,10.4,3.6c2,0.9,2.9,0.9,4.3,2.7
		c1.8,2.4,1.8,1.8,5.1,1.8h0.4c0.6,0,0.7,0.1,1.4,0.3l-1.2,0.9l-1.6,0.2v0.7h0.7c0.7,0,0-0.3,1.1-0.4c-0.3,1.1-1.4,1.5-1.4,2.9
		c0,0.7,1.1,4.3,1.5,4.5l0.3-1.4c0.6,0.5,0.7,2,1.3,2c0.4,0,0.5-0.1,0.5-0.5v-1.1c1.1,0.3,0,0.9,1.6,0.9l0.2-0.9l1.8,0.9v-1.1
		c2.5,0.6,2.5,0.4,1.4-1.6c0.6,0,1.1,0.3,1.1-0.2c0-0.9-0.5-1.1-0.5-2.2c0.6,0.1,0.6,0.4,1.3,0.4c0.6,0,0.7-0.1,1.4-0.3l-1-2.1h0.7
		c0.5,0,1.6-0.5,1.6-0.9c0-0.6-1.6-0.9-2.2-1.2l1.5-0.8c-0.5-0.8-2.5-1.3-2.5-1.6c0-0.2,1.3-0.9,1.3-1.3c0-0.7-0.9-0.6-1.5-1
		l-0.8,0.7l0.1,0.2l1.7,0.3l-1.5,0.7l-3.1,0.4c0.3-1.2,1.8-1.3,2-2.2l-1.2,0.2l0.2-1.3c-1.1,0.4-1.1,2.3-2.8,3.2l-0.2-2.2
		c0.5-0.8,2.6-1.5,2.7-2.9c2.7-0.6,1.1-0.3,1.1,1.3h0.4l0,0.8l2.3-0.4l0.1,0.8l0.8-1.7h-1.6c-0.6,0-0.7-0.1-1.3-0.2
		c0.1-0.1,0.5-1.1,0.5-1.1c0-0.3-0.2-0.4-0.5-0.4H185c-2.7,0-3.8,1.8-4.3,4c-0.7-0.5-0.5-2-1.8-2c-0.4,0-0.7,0.3-0.7,0.7v0.2
		c0,0.4,0.1,0.5,0.5,0.5l1.1,0l0.2,1.6v0.7h0.4V75h-0.5c-1.2,0-1-2.4-3.1-3c-0.8-0.2-4.4-0.2-5.6-0.2l-0.5-0.4l0.2,1l-1.2-0.6v-0.4
		h0.4l0-0.3l-1.3-0.4l0.2,0.7l-1.3-0.3l0-0.3l0.5-0.2l-1.4-0.6l0.4,0.5l-0.1,0.2l-3.2-1.1c-1.2,0-4.6-1.2-5-1.8c2.9,0,4,1.6,6.3,1.6
		c-0.5-0.6-3.3-1.5-4.3-1.6v-0.4c3.1,0.1,6.4,1.2,9.5,1.3c1.7,0.1,6-2.5,8.3-2.7v-0.4h-1.6c-0.5,0-0.4,0.1-0.5,0.5l-1.8,0.2
		c-0.8,0.5-0.8,0.4-1.6,0.7c-0.4,0.2-1.1,0.8-1.5,1.1c-1.2,0-6.9-0.7-7.4-1l0.9-0.2c0.3,0.1,0.3,0.2,0.7,0.2h1.8
		c0.5,0,0.5-0.1,0.9-0.2l0-0.4l-2,0.2h-3.2c-1.5,0-2.5-0.2-3.8-0.3c-1.2-0.1-2.9,0.1-4.1,0c-2.2-0.2-5.1-0.7-7.4-0.9l0.2-0.5
		c-0.9,0.1-3.9,0.4-3.6,1.1h-3.2c0.2-0.9,0.9-0.7,2-0.7l0.5-0.3l2.9-0.2l0.5-0.4l1.4,0l-0.1,0.6l1.2-1h-2.5c-1.9,0-4.2,1.1-6.8,1.1
		c-2.5,0-5,0.4-7.6,0.4c0.6-0.6,4.7-1.3,6.1-1.3c0.3-0.8,4-0.9,4.9-1c1.2-0.2,4.6-0.6,5.5-0.6c1.6,0,3.4,1.3,5.4,1.3h0.4
		c0.7,0,1-0.3,1.3-0.7l-0.4-0.9c1.8,0,2.4,1.1,4.3,1.1h0.4c0.3,0,0.5-0.1,0.5-0.4c0-0.7-0.3,0-0.4-1.1c0.7,0.3,3,1.4,3.8,1.4h0.9
		c0.4,0,0.4-0.1,0.7-0.3l-0.3-1.1c1.6,0.4,3.2,1.4,4.7,1.4h0.2c0.8,0,1.5-0.5,1.3-1.1c0.8,0.1,2.4,1.1,3.6,1.1h0.7
		c0.5,0,0.5-0.1,0.9-0.2l-0.2-1.3c1.2,0,2.4,0.9,3.6,0.9h0.4c0.5,0,0.7-0.4,0.9-0.7c-0.4-0.7-2-1.6-2-2c0-0.6,2-0.7,2-2.7
		c-0.7-0.1-0.4-0.2-0.9-0.2c-1.7,0-3,0.7-4.1,0.7v-0.7c0-0.3-0.3-0.7-0.5-0.7c-1.6,0-3.8,0.6-4.9,1.1l0-1.2l-1.4-0.2
		c-0.8-0.1-2.7,0.9-4,0.9c0-0.6,0.1-0.9-0.5-0.9h-0.4c-3,0-2.9,1.4-4.5,1.8l0.2-0.9c-0.2-0.3-0.2-0.5-0.7-0.5h-0.4
		c-1.7,0-3.3,1.8-4.1,2v-0.5c0-0.4-0.3-0.7-0.7-0.7c-2.4,0-4.2,2.4-5.9,3.1c-1,0.4-6.3,1.2-7.8,1.2l-0.5,0.4c-0.8,0-1.6,0.1-1.8,0.7
		l3.2-0.7v0.4c-1.2,0.1-4.1,1.6-5.2,1.1c-1.1,1-4.4,1-4.5,2.3l-0.9,0.2c0.1-0.3,0.3-0.7-0.2-0.7c-2.3,0-3.9,1.3-5.8,1.3
		c0.2-1.5,4.2-1.6,5.4-2c1-0.3,1.8-0.5,2.8-0.8c0.8-0.3,2.6-0.2,2.8-1c-1.6,0-5.4,1.6-5.9,0.9c0.9-0.2,1.6-1.3,3.1-1.4
		c1.3-0.1,3-0.4,4.2-0.3l1.2-1.1c-0.1-0.3-0.2-0.3-0.2-0.7c0-1.4,4.7,0.4,4.7-2.2c0-0.5-0.1-0.4-0.5-0.5v-0.4l2.4-0.2l0.5-0.4
		c0.6,0,1.8-0.4,1.8-0.9c0-0.3-1.1-0.6-1.1-1.1c0-0.6,5.2-0.1,5.2-1.6c0-0.6-0.3-0.3-0.5-1.1l-0.9,0c-0.5,0.1-0.3-0.4-1.1-0.6v0.4
		c-0.6-0.2-0.5-0.4-0.7-0.4c-0.1,0-0.4,0.3-0.5,0.4c-0.8,0-2,0-2,0.7v0.7h0.5c0.5,0,0.3,0.1,0.5,0.4c-0.4,0.1-1.4,0.3-1.4,0.7
		c0,0.4,0.5,0.3,0.5,0.9V55c0,0.6-0.5,0.7-1.1,0.7h-0.9l0.5-0.8l0.1-0.6c-2.9,0-1.7,0.2-4.1,0.7l0.1,1.4c0.4,0.4,1.5,1,1.5,1.8
		c0,0.4-1,0.5-1.4,0.5c-0.4,0-0.2-0.1-0.7-0.2c0.2-1-0.8-1.3-2-1.3c-0.7,0-1.4,0.2-1.4,0.9h0.9l-1.4,1.7l-2.8,0.1l-0.4,1.1l-0.5,0
		c-0.1,0.9-1.1,1.1-1.9,1.5c-0.5,0.2-1.9,0.9-2.4,0.9c0-0.1,2.2-1.9,2.3-2c1.7-1.1,1-0.3,2.2-2h0.9c0.6-0.9,0.7-2,1.1-2.5
		c0.8-1.1,2,0.2,2.2-1.3l0.1-0.1l0.7,0.9c1,0,1-0.6,1.5-1.2c-0.1-0.1-0.5-1.1-0.5-1.1c0-0.4,0.6-0.7,1.1-0.7c0.1,0.4,0,0.5,0.5,0.5
		h0.2c0.8,0,0.9-1.2,1.7-1.7c0.8-0.5,1-1.2,1.7-1.5c0.9-0.4,1.5-0.3,2-1.2c0.3-0.4,1.3-1.2,1.7-1.5l1.4,0.2l0-0.4h0.5l-0.4,1.6
		l-0.5,0l-0.1,0.1l0.8,0.9c0.7-0.4,3.3-1.2,4.1-1.2c0.4,0,1.3,0.2,1.3,0.5c0,0.6-2.7,0.1-3.1,1.6c2.1,0,4-0.3,4.7-1.6l-0.4-0.7h0.7
		c1.7,0,3-0.7,3.6-1.8l-0.7-0.7l0.5-0.4c1.5,0,4.3-0.5,4.3-1.6c0-1.4-2.9-1.2-3.6-2.3c0.3-0.5,0.7-0.9,0.7-1.6V40
		c0-0.4-0.1-0.5-0.5-0.5h-0.2c-1.3,0-2.9,1.8-3.8,2.3c-0.3-0.1-0.3-0.2-0.7-0.2h-0.2c-1.4,0-2.8,2.4-2.9,2.4l-1.5-0.3L149,46l-0.4,1
		c-0.6-0.2-0.5-0.4-0.7-0.4c-1.5,0-3.2,2.1-3.4,3.2l-0.3,0l-0.2-0.7c-1.7,0.1-2.5,3.1-3.8,3.4v-0.7c-0.4-0.1-0.4-0.2-0.9-0.2h-0.2
		c-0.6,0-2.4,3.1-2.9,3.8c-0.3-0.2-0.3-0.4-0.7-0.4c-1.1,0-2.1,2.6-2.7,3.1l0.2,0.5c-0.9,0.1-1.5,1.4-2,1.9c-0.7,0.7-1.6,1-2.5,1.5
		c0-0.1,4.9-5.8,5.5-6.4c1-1.1,4.9-5.5,4.9-6.9c1.5-0.6,4.9-8.3,4.3-11c1.4-2.7,0-1.5,2.5-3.5c0.9-0.7,2.7-2,2.7-3.4
		c0-0.5-0.2-0.7-0.3-1l0.8-2c-0.5,0.1-1.8,1.3-1.8,1.8v0.5c0.4,0.1,0.5,0,0.5,0.5V31c0,0.6-1.2,1.1-1.6,1.8c-0.5,0.7-0.9,1.4-2,1.4
		v-0.4l-0.3,0l0.3-1.4c-0.2-0.4-0.6-1.3-1.3-1.3h-1.4c-0.4,0-2.4,1.2-2.9,1.4c-0.7,0.4-1.6,1.7-1.6,2.7c0,0.7,0.7,1.4,1.1,1.4
		c1.1,0,1.2-0.6,1.4,0.4c-0.6,0.1-1.8,0.7-1.8,0.7h-0.5c-0.2,0.6-0.8,0.7-1.6,0.7c0.5-0.7,1.6-0.5,2-1.8c-1.2-0.3-2.3-2.1-4-1.3
		l-1.6-0.2l0.8,1.4h0.7l0,0.3l-1.8,0.2c-0.3-0.2-0.5-0.2-0.5-0.7v-0.7c0-1,2.1-1.9,3.2-2v-0.5c-1.1-0.1-0.9-1.1-0.5-1.8
		c-0.2-0.2-0.4-0.3-0.4-0.7c0-1.1,1.7-0.7,2.3-0.7c0.5,0,0.5-0.3,0.7-0.5c-0.1-0.4-0.2-0.4-0.2-0.9c0-0.5,2.3-2,2.3-2
		c0.5,0,1.8,1.7,1.8,2.2v0.9h0.4c0.3-1.4,1.3-4.5,2.7-4.5h1.1c0.5,0,0.5,0.3,0.7,0.6l-1.6,3c0.9-0.2,2.5-2.9,3.8-2.9
		c0.9,0,1.1,0.8,1.9,1.1l-0.6-1.1l-1.4-0.4l-1.3,0.2c-0.3-1.1-1.7-0.6-2.9-0.8l-1.1,0.2l-0.2-0.1l-1.1,2.2c-0.6-0.4-0.8-1.1-1.8-1.1
		c-0.7,0-3.4,1.4-3.4,2.2v1.3h-1.4c-0.6,0-2.5,2.3-2.5,2.9v0.2c0,0.7,0.2,0.9,0.7,1.1v0.4c-0.9,0.2-2.2,0.8-2.2,2v0.4
		c0,1,0.4,1.2,0.5,2.1l2.4-0.1l-0.6,0.7l0.2,1.1c0.6,0,0.6,0.2,1.3,0.2c0,0,2.9-0.8,3.5-1c0.9-0.2,1.1-0.5,1.6-0.6
		c0.3-0.1,1.3,0.1,1.9,0.1c0.3,0.2,0.5,0.2,0.5,0.7V40c0,0.8-0.5,1-0.5,2.2c-0.6,0.9-1,2.3-1.7,3.2c-0.7,0.9-1.6,1.8-1.6,3.3
		l-0.9,0.4l0-0.8l-0.9,0.2l-0.4,1.6h-0.9c0.2-0.9,1.1-5,2-5c0.7,0-0.2,1.5-0.2,2.3v0.7h0.4l0.3-0.9c0-1.2,0.4-0.9,0.4-1.8v-0.2
		c0-1.4-3.9-4.4-4.9-5.2l-0.6,0.1l2.1,3.8l0.5-0.2c0.1,1.1,0.5,0.8,0.7,1.5c0.1,0.4-0.1,1.2-0.1,1.9c-0.6,0.9-0.6,1.5-0.9,2.5
		c-0.3,1.1-0.7,1.3-1,2.4c-0.6,1.8-1.6,3.1-2.4,4.6c-1,1.9-1.8,2.3-3.3,3.8c-0.8,0.8-2.8,3-3.9,3.1c0.1-0.4,2-2.3,2.5-2.9
		c0.9-1,1.6-2,2.4-3.2c0.8-1.2,1.5-2.2,2.2-3.4c0.8-1.3,1-2.5,1.8-3.7l-0.2-1.6c0.1-0.2,0.2-0.2,0.2-0.5c0-2.2-2.8-8.3-4.3-8.3
		c-0.5,0-0.7,0.2-1.1,0.4c-1.5-1-0.5-2.9-3.2-4.3l-0.5,0.2v0.5c0,0.5-0.1,0.3-0.4,0.5c-0.4-1.6-1.3-3.6-2.8-4.4l-0.4,1
		c-0.8-0.6-1.3-3.4-2.9-3.4c-0.2,0-0.5,0.4-0.5,0.7v0.5h-0.4c-0.4-1.5-1.4-3.6-3.1-3.2c-1.1-0.8-1.1-3.1-3.1-3.1
		c-0.3,0-0.5,0.1-0.5,0.4l0,2.8l-3,0.6c0,2.1,2.3,2.1,4,2.5l0,0.3l-0.7,0.2v0.7c0,0.7-0.1,0.1,0.2,0.5c0.8,0.6,3,1.4,4.3,1.4
		c-0.3,1.1-0.9,0.1-0.9,1.1c0,1.6,3.6,2,4.7,2.5l-0.5,0.4l0,0.5c0,1,2.3,1.7,3.1,2.2h0.7l0.4,0.7c-0.1,0.3-0.2,0.3-0.2,0.7
		c0,0.8,2.7,1.6,3.8,1.6l0.4,0.5c-0.2,0.3-0.2,0.3-0.2,0.7c0,1,3.4,1.8,4.3,1.8c0.6,0.4,1.3,0.6,1.3,1.6v0.2c0,0.8-0.4,0.6-0.4,1.8
		c-1.1,1.6-1.8,3.1-2.7,4.8c-0.2,0.3-3.1,3.8-3.4,4c-0.4,1.4-2.7,1.8-3.1,3.2c-2.4,0.1-3.8,3.3-5.6,3.4c-0.2,0.8-2.9,1.9-3.9,2.2
		c-1.5,0.5-2.9,1.9-3.8,2.1c0.1-0.3,2.2-2,2.7-2.4c0.5-0.4,0.9-0.6,1.4-1.2c0.5-0.5,0.3-0.7,1-1.5c0.7-0.8,1.3-2.1,1.8-3.2
		c0.2-0.5,0.7-1.4,0.7-1.8c0.2-1.3-0.2-1,0.4-2.1c0.7,0.5,0.7,1.4,1.1,2.3c0.2,0.5,1.1,1.7,1.6,1.7c0.8,0,1.4-1.9,2.3-2
		c0.7-0.1,1.4,0.1,2.1-0.1c1.1-0.2,0.5-0.3,1.1-0.8v-1.3c-0.6-0.3-2.2-1.4-2.2-2.2c0-0.2,1.4-0.9,1.7-1.2c0.9-0.7,0.3-1.1,0.3-2.2
		l-0.8-0.6c0.2-0.7,0.5-0.4,0.5-1V51c0-1.1-0.7-2-1.6-2c-0.7,0-0.4,0.5-1.3,0.7v-1.3c0-1.1-1.2-1.8-2.3-1.8h-0.2
		c-1.3,0,0,1.1-1.4,1.3v-0.7c-0.4-0.2-0.9-0.5-1.4-0.5h-0.9c-1.2,0-1.6,1.7-1.6,3.1l-1.8-0.2c-0.5,0.4-1.1,0.8-1.1,1.7v0.7
		c0,0.7,0.9,0.7,0.9,1.4c0,0.8-0.5,0.4-1.1,0.4h-1.1c-0.7,0-1.8,0.9-1.8,1.4c0,0.6,0.8,1.7,1.1,2.2c0,1.8,0.3,3.4,2.3,2.8
		c1.2-0.3,1.9-1.9,3.1-1.9h0.9c0,2.5-0.8,3.2-1.6,4.9c-1.2,2.4-0.9,2-2.8,3.7c-1.3,1.2-1.8,2.1-3.4,3.1c-0.9,0.6-2.8,2.3-3.9,2.4
		l0.4-1.6l0.3,0.5l1.4-1.3l-0.1-0.1c0.7-0.1,1.1-0.5,1.3-1.1c0.7-0.2,4-5.2,4.1-5.9c-0.7-0.4-3.9-0.7-5-0.5l-5.9,0.7
		c-0.1-1.1-2.2-4-2.2-4.3v-0.2c0-1.2,1.2-1.2,1.8-2.3c-0.2-1,0-2.8-0.4-3.7c-0.3-0.7-1.7-2.2-1.7-2.2c0-0.2,3.3-3.3,3.6-3.4v-0.9
		c0,0-1.6-3.5-1.6-3.8v-0.5c1.5-0.6,3.4-3.9,3.4-6.1c0-1.4-0.4-1.8-0.9-2.7l9,1.4l-0.2-0.5c-1.5-0.1-3-1.2-4.2-1.4
		c-1.5-0.3-3.2-0.6-5-0.6l-0.2,0.5h-0.4c-0.3-1.3-1.5-2.2-2.4-3c-0.9-0.9-0.9-2.7-1.1-4.3c-0.4-2-0.4-2.6-1.8-3.6
		c-0.6-0.4-2.6-2.4-3.2-2.4h-1.1c-1.4,0-2.1,0.5-3.6,0.5c-0.5-2.1,0.1-2.1-1.1-3.8c0-2.1,0-3.1-0.7-4.6l1.4,1.5l0.1-0.1
		c-0.1-1.3-1.3-1.6-1.6-2.7c1.4,0.3,1,1.7,2.7,1.8c-0.1-1.7-0.9-1.2-1.3-2.3c-0.4-1-0.7-1.6-1.8-1.9c-1.1-0.3-2.1-0.4-2.6-1.1
		c-0.5-0.6-1.3-1.4-2.2-1.6c0,2.7,4.2,3.1,4.5,4c-0.5-0.1-0.3-0.2-0.7-0.2c-0.4,0-0.3,0.4-0.4,0.7l0.8,0.3l0.7,1h-1.1l-2.2-1.6
		L80,8.4c-0.8-0.6-1.6-0.9-2.5-1.5c-0.8-0.5-2.1-0.9-2.7-1.3L70.3,5l-0.5-0.5l-7.5,0.4L59,5.7c-1,0.7-2.2,0.8-3.3,1.4
		c-1.2,0.6-1.9,1-3,1.7c-1.5,0.9-3.9,3.2-5,4.6c-0.4,0.5-0.8,0.6-1,1.3c-0.4,1-0.1,0.7-0.7,1.6c-0.7,1-1.2,1.9-1.9,2.8
		c-1,1.4-0.2,2.2-2,2.6c-0.6,0.2-1.4,0.2-1.9,0.5c-0.6,0.4-0.9,0.7-1.7,0.8c0.1-2.5,3.3-3.1,3.6-4.5l-2.7,0.9c0.2-0.7,0-0.5,0.9-0.6
		l0.4-0.9c0.8-0.1,2.9-1,3.1-1.6c-1.7,0-3,1.1-4,1.8c0.1-0.9,0.6-1.2,1.4-1.3L41,16.7l1-1.3c0.8-0.1,2.1-0.4,2.3-1.1l-1.3,0.2
		c0.1-0.6,2.3-1.7,2.9-1.8v-0.4h-0.7v-0.5c0.6-0.2,1.5-1.3,1.6-2l2.5-0.3c-0.1-0.4,0-0.5-0.5-0.5h-1.6c0.5-1.4,2.7-1.6,4.5-1.6
		c0.9-0.6,1-0.1,1.3-0.9l-1.6,0.2l0-0.3l1.8-0.6V5.3h-0.9c0.3-1.2,1,0,1.1-1.4l-1.6,0.4V3.9C52.9,3.6,52.6,3,54.1,3
		c0.7,0,1,0.2,1.4,0.4l0.4-0.2c0.3,0.2,0.3,0.4,0.7,0.4h1.8c0.3,0,1.2-0.9,3.1-0.9h0.9c1.4,0,2.4,0.2,3.2,0.7c1.8,0,2,0.8,3.2,1.1
		c-0.1-1-0.6-1.2,0.6-0.8c0.5,0.1,1.7,0.2,2.1,0.3c2.5,0.4,2.3,1,3.6,1.3l-0.4-1l1.2,0.6c2.5,0.1,1.9,1.8,4.1,2V6.4
		c-0.7-0.1-0.9-0.7-1.1-1.4l0.7,0.1V4.2c-0.4-0.1-2.2-0.4-2.5-0.6c-0.8-0.5-1-0.8-2-1L75,3.2l-3.5-1.9l-0.1,0.2l0.1,0.3l0.4,0.6
		l-3.1-1.1c-0.3,0.1-0.5,0.2-0.7,0.2l-1.6-0.2c-0.1,0.1-0.5,0.4-0.5,0.3L62,1c-0.5,0.9-2.1,0.8-3.4,1.1c-0.3-0.2-1.2-0.5-1.6-0.5
		h-0.5c-1.5,0-3.9,0.4-4.7,1C51.1,3,50.8,3.4,50,3.7c-0.5,0.2-2.4,0.2-2.4,0.7c0,0.3,0.4,0.3,0.7,0.5l-1.1,0l0.2,0.9L46,6.2
		c0.1,1.1,0.6,0.7,1.8,0.7c-0.4,0.4-1.5,0.5-2.4,1.2c-0.4,0.3-1.9,1.2-1.9,1.7v0.7c-0.9,0.2-2.7,0.8-2.9,1.6h1.3
		c1.3,0,1.2-0.5,2.5-0.5c-0.6,0.9-2.9,1.7-4.4,1.9l0.8,0.8c-0.7,0-2-0.1-2,0.5c0,0.6,1.8,0.2,2.5,0.2l0.1,0.2l-3,2.2
		c-0.5,0-1.3-0.1-1.3,0.4c0,0.7,0.9,0.5,0.9,1.1c0,0-2.5,4.5-2.5,4.7c0,0.3,0.1,0.5,0.4,0.5c0.4,0,0.7-0.8,1.4-0.5
		c-0.5,0.7-2.4,1.8-3.4,2.2c-1.7,0.7-2.3,0.9-3.1,2.5c-0.8,1.7-1.4,1.5-1.3,4.3c0.1,1.6,0.4,3.7,0.5,5c-0.4,0.6-1.6,3-1.6,3.8v0.9
		c0,2.9,3.2,5.2,3.2,5.2c0,0.9-1.9,0.7-2.9,0.7c-0.6,0.4-0.9,0.9-0.9,2L27.1,51c-0.4-0.7-1.4-2.2-1.4-3.2v-0.5
		c-0.2,0-6.5,3.3-8.3,3.8v0.7c0,0.8,1.5,3.3,1.9,4.1c0.3,0.6,0.7,1.3,1.1,1.7c0.4,0.4,0.5,0.2,0.8,0.6c0.4,0.6-0.1,0.7,0.7,0.9
		l0,0.9l-2.3,0.3l0,0.3l2.1,0.2l0.2-0.5c0.5,0.3,2.9,2.2,2.9,2.5c0,0.7-1.3,0.7-2,0.7l-0.3,0.3L20.1,64v0.4
		c-0.4-0.1-0.4-0.2-0.9-0.2h-0.4c-1,0-1.4,0.2-2,0.5l-2.5,0.4l-0.2,0.5c-1.3,0-2.9,0.1-3.1,1.3c1.6-0.1,1.6-0.7,4.2-0.7l0.5-0.4
		c0,0,0.3,0.2,0.4,0.2l1.3,0.1l0.7-0.6c0.7,0.3,3.1-0.3,3.9-0.6c1.1-0.4,2.8-0.1,4.4-0.1c0.2,0.2,6.4,3.8,4.3,3.8h-0.4
		c-0.7,0-1.7-1.2-2.7-1.3c-0.1,1.5-2.1,1.5-3.6,2c-0.6,0.2-1.2,0.5-1.9,0.8c-0.9,0.4-0.8,0.7-1.7,1.2c-0.2-0.1-0.2-0.2-0.5-0.2
		c-0.5,0-1.2,0.9-1.3,1.4c-1.2,0.3-2,0.9-2.8,1.7c-0.4,0.4-0.6,1.1-1,1.3c-0.6,0.4-0.9,0.5-1.4,0.9c-1.6,1.4-4,2.3-5,4.2
		c0.8,0,1.5-0.5,1.6-1.1c0.8-0.1,3.4-2.3,3.8-2.7l3.7-1.2c1.1-0.7,1.6-0.4,2.6-1.4c0.6-0.6,0.5-0.3,1.3-0.6c0.7-0.3,0.7-0.6,1.2-1
		c0.6-0.5,1.8-1.1,2.5-1.5c0.8-0.5,1.4-1.6,2.5-1.6c-0.1,0.3-0.9,3.4-0.9,3.4c0,0.9,1.7,0.7,2.3,0.7l0.1-0.2l-1.8-1.1l0.4-1.6
		c0.2,0.1,1.6,1.3,1.6,1.3c0.2,0,0.1-0.2,0.7-0.4c0.1,1,1.2,1.1,2,1.4l1-0.3l0.8-0.4c-0.1-0.1-0.9-1.1-1.1-1.1
		c-0.1,0-0.4,0.2-0.5,0.3l-0.8-0.8l0.4,0l-0.4-0.7l0.4-1.3l0.7,0.4c2.4,0.1,4.4,1.1,6.3,1.6c2.1,0.6,4.6,0.7,6.9,1
		c3.2,0.5,3.3,1.4,5.8,2.2c1.1,0.3,4.2,2.7,4.5,3.6c-0.7,0.2-1.2,1.1-1.8,1.1c-0.4,0-3.2-2.1-4-2.5c-2.1-0.8-2.8-0.8-5.3-1.2
		c-1.9-0.3-2.8-1.1-4.9-1.6c-2.2-0.5-2.4-1.9-4.9-0.8l-1.1-0.4l0.3,1.1H35v-0.4h0.4v0.4c0.5-0.1,0.3-0.2,0.7-0.2
		c0.4,0,0.2,0.1,0.7,0.2l0,0.3l-0.9,0.1l0,0.3l1.3,0.1l0.5,0.4c1.9,0,5.8,0.7,6.8,1.4c1.3,0,9.4,2.6,9.4,3.6c0,0.5-0.4,0.7-0.7,0.8
		L48,79.3h-1.1c-1.5,0-2,0.5-3.1,0.5l-0.5,0.4c-1.1,0-2.6,1-3.3,1.6c-0.9,0.7-2.1,1.3-3.3,1.8c-1.2,0.5-5.9,3.3-6.8,3.3h-1.6v0.4
		l-0.5,0l-1.8,0c-0.2,0.1-0.3,0.2-0.7,0.2l-2.7-0.2c0.2,0.6,2.3,2.4,3,3.3c0.2,0.3,2.9,3.4,2.9,3.4l2.5-0.6l-0.2-0.6l0.8,0.1
		l-0.6-0.8l-2.9,0.5v-0.7c0-0.1-0.8-1.6-0.9-2.2c0.3-0.1,0.5,0,0.5-0.4c0-0.7-0.5-0.4-0.5-1.1c0-0.8,2-0.7,2.8-1
		c1.1-0.3,1.7-0.9,2.7-1.3c1.7-0.6,4.4-1.7,6.4-1.2v-0.4h0.5c0.2,0.5,1,0.9,1.6,0.7l4.5-0.4l-0.2,0.5c-1.4,0-6.8,2.8-7,3.7l2.7-1.1
		l-0.2,0.5c-1.5,0.1-2,3.1-2,4.9v1.3C39.2,95.1,39.2,95.1,39.3,95.5L39.3,95.5z"/>
	<path class="st0" d="M120.5,87.6h0.5c-0.1-0.7-0.1-0.7-0.5-0.5v-0.4H120C120,87.2,119.9,87.6,120.5,87.6L120.5,87.6z"/>
	<path class="st0" d="M165.3,87.7V87c0-1.6-7.5-6.4-9.4-6.8c0.6,0.8,3.7,2.5,4.8,3.6C161.6,84.6,164.4,87.7,165.3,87.7L165.3,87.7z"
		/>
	<path class="st0" d="M51.8,86.7l-0.3,0.2l-0.1,0.7l0.1,0.4c0.5-0.3,0.7-0.5,0.7-1.3H51.8L51.8,86.7z"/>
	<path class="st0" d="M177.4,88.1l0.7,0.2c-0.1-0.3,0-0.5-0.4-0.5C177.6,87.7,177.4,87.9,177.4,88.1L177.4,88.1z"/>
	<polygon class="st0" points="56.6,89.2 57.3,89.2 57.3,88.6 56.6,88.6 56.6,89.2 	"/>
	<path class="st0" d="M117.4,87.8c-1.1-0.1-2.4,1-3,1l-0.8,0.1l-1.2,0.7l0.1,0.2l3.6-1l0.6-0.3l1.6-0.7l0-0.4L117.4,87.8L117.4,87.8
		z"/>
	<path class="st0" d="M37,89.4l-1.3,1l0.9,0.2c0.2-0.8,1.1-0.5,1.8-1.7L37,89.4L37,89.4z"/>
	<polygon class="st0" points="139.1,90.4 140,90.7 138.9,89.9 139.1,90.4 	"/>
	<path class="st0" d="M163.5,91.3l0.4,0.2c1-0.5,1.7-1.4,2.6-1.9c0.8-0.4,2.8-0.9,2.9-1.6C168.1,88.4,163.6,90,163.5,91.3
		L163.5,91.3z"/>
	<polygon class="st0" points="123.9,91.5 124.6,91.4 123.9,91 123.9,91.5 	"/>
	<path class="st0" d="M117.3,90.6l-0.5-0.2l0.1,1.7l0.9-0.6l-0.2-0.7l0.7-0.4l-0.2,0.7l0.9-0.2v-0.4h-0.5v-0.5h0.5v0.4l0.5,0
		l0.8-1.4C117.5,89,118.5,89.8,117.3,90.6L117.3,90.6z"/>
	<path class="st0" d="M156.9,91.9c0.2,0,0.4-0.2,0.4-0.4c0-1.6-3.8-3.5-4.5-4.3c-0.7-0.8-1.4-1.6-2.3-2.2c-0.4-0.2-2.8-1.6-2.9-1.6
		c0.5,0.7,3.9,3.3,4.8,4C153,88,156.6,91.9,156.9,91.9L156.9,91.9z"/>
	<path class="st0" d="M162.3,92.1c0.2,0,0.5-0.4,0.5-0.5c0-0.7-1.1-1.9-1.5-2.5c-0.2-0.3-0.6-0.8-0.9-1.1c-0.6-0.6-0.8-0.5-1.2-0.8
		c-1.7-1.7-2.2-2.4-4.4-3.5c0.1,0.5,3.2,3.4,3.8,4.1C159.1,88.1,162.2,92.1,162.3,92.1L162.3,92.1z"/>
	<path class="st0" d="M56.4,92.1l0.5,0.2V93C56.2,92.8,56.5,92.9,56.4,92.1L56.4,92.1z M55.1,92.3L55,92.9l0.5,0.2l0.5-0.7l-0.2,0.7
		c0.7,0.2,0.2,0.3-0.2,0.9c-0.1-0.1-0.4-0.4-0.5-0.4c-0.3,0-0.5,0.6-0.5,0.9l-1.1-0.3l0.8-0.5L54,93l0.2-0.3l0.4-0.8l1-0.4
		L55.1,92.3L55.1,92.3z M61.5,88.1l-0.2,0.5h-0.4v-0.4c-0.7,0.2-0.7,0.2-0.7,1l-2,0L58,89.4l-0.3,1.4h-0.4v-0.5
		c-0.5-0.1-0.3-0.2-0.7-0.2c-1.3,0-5.5,4-6.7,4.8c-1.1,0.8-2.2,1.6-3,2.8c-0.5,0.8-0.4,1.2-1,1.9c-0.4,0.6-1,0.9-1.1,1.8h0.7
		c0.3-0.6,1.8-2.4,2.3-2.7c0.6-0.3,1-0.5,1.6-0.9c0.4-0.2,0.4-0.4,0.7-0.6c0.4-0.3,0.5-0.1,1.1-0.4c1.3-0.8,2.1-0.9,3.4-1.6
		c1.5-0.8,2-1.3,3.1-2.1c-0.2-0.3-0.4-0.3-0.4-0.7v-0.5h0.5v0.5h0.4c0.1-0.4,1-1.3,1.4-1.5c0.3-0.2,1.8-1,1.9-1
		c0.4-1.9,1.1,0.1,1.1-1.9L61.5,88.1L61.5,88.1z"/>
	<path class="st0" d="M33,93v-0.4h0.7v-0.4h-1.6C32.2,93,32.2,92.9,33,93L33,93z"/>
	<path class="st0" d="M106.1,93.1c0.3,0,0.7,0,0.7-0.4c0-0.3-0.1-0.5-0.4-0.5C106.1,92.2,106.1,92.7,106.1,93.1L106.1,93.1z"/>
	<path class="st0" d="M114.9,92.6c0,0.5,0.3,0.6,0.7,0.7l-0.2-0.5l0.4-0.2h-0.4v-0.4C115.2,92.3,114.9,92.3,114.9,92.6L114.9,92.6z"
		/>
	<path class="st0" d="M61.4,92.4c1,0.3,0,0,0,0.6c0,0.7,0.2,0.8,0.5,1l0.8-0.4l0.2-1.4h-0.4l0-0.7L62,91.2L61.4,92.4L61.4,92.4z"/>
	<path class="st0" d="M66,91.9l-0.8,0.7l-2.8,1.8v0.7c1.2-0.1,1.6-2.2,3.1-1.6c0-2.1,1.7,0.3,2.2-1.7L66,91.9L66,91.9z"/>
	<path class="st0" d="M128.6,92.8c0.1,0.8,0.5,1.1,1.3,1.3c0-1.3-1.2-1.9-2.2-2.3C127.9,92.4,127.9,92.6,128.6,92.8L128.6,92.8z"/>
	<polygon class="st0" points="130.2,94.4 130.6,94.4 130.6,93.9 130.2,93.9 130.2,94.4 	"/>
	<polygon class="st0" points="68.1,94.6 68.5,94.6 68.5,94.2 68.1,94.2 68.1,94.6 	"/>
	<path class="st0" d="M29.3,95.1c0.2,0.7,0.1,0.8,0.9,0.9l0.2-0.4c-0.1-0.2-0.2-0.7-0.5-0.7C29.6,94.9,29.3,95.1,29.3,95.1
		L29.3,95.1z"/>
	<path class="st0" d="M65.3,96h0.4c0.2-0.8,0.8-0.8,1.1-2C65.8,94.7,65.7,95,65.3,96L65.3,96z"/>
	<path class="st0" d="M94.9,96.6c0.3-0.1,0.6,0,0.6-0.3c0-0.3-0.2-0.3-0.4-0.4L94.9,96.6L94.9,96.6z"/>
	<polygon class="st0" points="69.5,96.8 69.6,96.2 68.9,96.3 69.5,96.8 	"/>
	<path class="st0" d="M78.4,96.4c0.2,0.1,0.2,0.2,0.6,0.2c0.3,0,0.5-0.1,0.5-0.4c0-0.6-0.3-0.5-0.9-0.5L78.4,96.4L78.4,96.4z"/>
	<polygon class="st0" points="35.4,96.9 35.9,96.9 35.9,96.2 35.4,96.2 35.4,96.9 	"/>
	<path class="st0" d="M62.6,96.7h0.4c0.6-1,0.8-0.5,0.9-1.4c0.6-0.2,0.6-0.2,0.7-0.9l-1.7,1.5L62.6,96.7L62.6,96.7z"/>
	<polygon class="st0" points="67.4,96.9 67.8,96.9 69,94.6 67.7,96.1 67.4,96.9 	"/>
	<path class="st0" d="M89.2,96.4c0,0.4,0.1,0.2,0.2,0.7h0.7v-0.5c0-0.3-0.1-0.5-0.4-0.5C89.4,96,89.2,96.1,89.2,96.4L89.2,96.4z"/>
	<path class="st0" d="M70.3,96.6h0.5c0.5,0,0.6,0.3,0.7,0.7l-0.7,0.2c-0.1-0.3,0-0.5-0.4-0.5c-0.3,0-0.3,0.2-0.4,0.4l0.6,0l-0.2,0.3
		l0.7,0.2l0.9-0.1c-0.1-0.9-1.6-2.2-1.8-2.9C69.3,95,70.1,95.7,70.3,96.6L70.3,96.6z"/>
	<path class="st0" d="M72.6,96.9c0.8,0.2,0.9,0.7,0.9,1.7v1.6c0.3-0.2,0.5-0.2,0.5-0.7c0-0.7-0.2-0.4-0.2-1.3c0-0.6-0.4-0.3-0.4-0.9
		v-0.2l0-0.3l-0.4-0.4L72.6,96.9L72.6,96.9z"/>
	<path class="st0" d="M39.3,95.5H39v0.7c0,0.6-0.5,0.5-0.5,1.4l0.1,0.6l0.8-1.7V95.5L39.3,95.5z"/>
	<polygon class="st0" points="67.4,98.4 68,98.5 68,97.8 67.6,97.8 67.4,98.4 	"/>
	<path class="st0" d="M64.9,100.2h0.4c0.3-0.4,1.2-1.5,1.3-2c0.6-0.2,0.7-0.6,0.9-1.3c-0.8,0.5-0.7,0.9-1.4,1.5
		C65,99.3,65.5,99,64.9,100.2L64.9,100.2z"/>
	<path class="st0" d="M157.2,98.5c0,1.5,2.1-0.7,2.3-0.9c0.9-0.8,1.9-1.1,2.5-2c1.3-1.7,4.6-3.1,5-3.8
		C165.5,92,157.2,97.5,157.2,98.5L157.2,98.5z"/>
	<path class="st0" d="M165.7,97.1c-0.7,0.3-0.3,0.6-0.2,1.2l-1.1,0.5l0.1,0.2l2.1-0.2l1.6-0.9v-0.7c-0.9,0.2-0.6,0.7-1.3,0.7h-0.7
		C165.6,98,165.7,97.7,165.7,97.1L165.7,97.1z"/>
	<path class="st0" d="M68.3,99.3l0.4,0l1.3-1.8C68.8,97.8,68.8,98.3,68.3,99.3L68.3,99.3z"/>
	<polygon class="st0" points="77.5,99.3 78,98.9 77.5,98.7 77.5,99.3 	"/>
	<path class="st0" d="M62.6,99.4h0.4c0.7-1,2.1-2.3,2.3-3.4C64.1,96.8,63.2,98.2,62.6,99.4L62.6,99.4z"/>
	<path class="st0" d="M75.7,97.8c-0.8-0.4-0.6,0.1-1,0.9l0.1,0.9c0.9-0.1,1-0.2,1.1-1.1l0.9,0.4l-0.6-0.7c0.1-0.1,0.4-0.4,0.4-0.5
		c0-0.2-0.2-0.4-0.4-0.4C76,97.3,75.8,97.7,75.7,97.8L75.7,97.8z"/>
	<path class="st0" d="M146.8,99.6c-0.1-1.2-1.9-3.9-2.9-4.1c-0.1-0.8-2.3-3.2-2.9-3.6c0.1,0.5,2.1,3.2,2.5,4.1
		C143.9,96.9,146,99.1,146.8,99.6L146.8,99.6z"/>
	<path class="st0" d="M114.9,96.6l0.7,1.3c-0.3,0.2-1.1,0.7-1.1,1.1c0,0.7,0.7,0.8,1.3,0.9c1-0.5,1.4-1,1.4-2.5
		c0.5-0.8,1.2-1,1.3-2.3l0.9-2c-0.4,0.1-1.8,1.3-2.3,1.7C115.7,95.6,116,95,114.9,96.6L114.9,96.6z"/>
	<path class="st0" d="M59.9,100h0.4c0.7-1.1,2-1.8,2.3-3.2c-0.8,0.5-0.7,0.9-1.4,1.5C60,99.3,60.6,98.5,59.9,100L59.9,100z"/>
	<polygon class="st0" points="70.9,99.9 71.6,99.5 71.5,99.4 70.9,99.9 	"/>
	<path class="st0" d="M69.8,100.2l0.4,0l1.3-1.8C70.2,98.7,70.2,99.2,69.8,100.2L69.8,100.2z"/>
	<path class="st0" d="M54.1,104.1c1.2-0.6,3.1-3,4-4.1c0.6-0.8,3.3-4.1,3.4-4.9h-0.4c-0.2,0.8-2.7,3.7-3.3,4.6
		c-0.5,0.7-1.2,1.6-1.7,2.2C55.4,102.6,54.2,102.9,54.1,104.1L54.1,104.1z"/>
	<path class="st0" d="M123.5,93.5l-0.5,0.1l-0.8,1.2c0.6,1.2-0.4,1.1-0.4,1.8v0.7c0.6,0.2,0.3-0.3,0.2,0.7c0.8,0.2,1.3,1.6,3.8,1.6
		v0.5c0.7,0.2,0.9,0.5,1.6,0.5h0.2c0.8,0,0.8-0.2,1.1-0.7c-1.1-0.6-0.2-0.7-2-1.1V98c0-0.6-1.1-1.2-1.6-1.4c0.2,0.6,0.4,0.5,0.4,0.7
		c0,0.7-1.1,0.7-1.8,0.7h-0.4c-0.5,0-0.5-0.1-1-0.2l0.6-0.8l-0.1-1l1.1-0.8c-0.2-0.3-0.4-0.3-0.4-0.7c0-0.6,1.1-1,1.6-1.1
		c-0.1-1-0.6-0.9-1.3-0.7v-0.5c0-0.5-0.5-1-0.9-1.1L123.5,93.5L123.5,93.5z"/>
	<path class="st0" d="M53.9,101.1l0.5-0.2c0.2-0.8,0.3-0.2,0.4-1.1C54.3,100.2,54.1,100.3,53.9,101.1L53.9,101.1z"/>
	<path class="st0" d="M114.4,92.1c-1.2-0.6-0.2,0.7-1.5,1.1l0.4-0.9l-0.8,0.2l-0.1,0.9l-0.5-0.2l-0.6,0.2l-1,0.8l0.2,1.2l-0.9-0.4
		c-0.3,0.7-1.2,1.5-0.7,2.5l-0.6,0.2l-0.9,3.4l0.7,0.2l2.5-0.5c1.2-0.8,0.9-1.3,1.4-2.5l-0.1-1l1.4-0.8l0.2-1.1
		c0.8-0.2,0.6-0.5,0.9-1.3c0,0-0.2-0.3-0.2-0.4c0-0.3,0.2-0.6,0.4-1.1l-0.3-0.2l0.7-0.2C114.3,91.2,114.6,91.8,114.4,92.1
		L114.4,92.1z"/>
	<path class="st0" d="M65.3,102.7l2.7-2.3l0.4-1.1c-0.8,0.6-1,1.2-1.6,1.7C65.2,101.9,66.1,101.1,65.3,102.7L65.3,102.7z"/>
	<path class="st0" d="M176.5,94.6c0.2,1.6-0.7,3-0.8,4.7l-0.7,1.5l0.2,0.5c1.1-0.3,1.1-1.3,1.6-2.2v-1.4c0.2-0.3,0.4-0.3,0.4-0.7
		l0-1.6l-0.2-2.2l-0.8-0.5L176.5,94.6L176.5,94.6z"/>
	<path class="st0" d="M60.8,101.6c0.7-0.2,0.8-0.1,0.9-0.9c0.6-0.2,0.7-0.6,0.9-1.3l-1.8,1.8V101.6L60.8,101.6z"/>
	<path class="st0" d="M68.7,100.9l0-0.7l-0.4,0.2l-0.7,1.1C68.4,101.4,68.1,101.3,68.7,100.9L68.7,100.9z"/>
	<polygon class="st0" points="63.3,102.1 63.8,102.1 64.9,100.2 63.3,101.8 63.3,102.1 	"/>
	<path class="st0" d="M68.9,100.9v0.4c-1,0.6-1.2,1.3-1.8,2.3h0.4c0.2-0.4,2.2-2.9,2.3-3.1v-0.4L68.9,100.9L68.9,100.9z"/>
	<path class="st0" d="M56.6,103.6l0.3,0l0.6-0.9h0.7c0.1-0.9,1.3-1.2,1.6-2.7c-0.9,0.6-1,1.6-2,1.8l-0.1,0.6l-1.2,0.8V103.6
		L56.6,103.6z"/>
	<polygon class="st0" points="81.6,103.4 81.8,103.2 81.6,102.7 81.1,102.9 81.6,103.4 	"/>
	<path class="st0" d="M47.8,102.5c0.7,0.6,0-0.4,0.4,0.5l0.4-0.2l0,0.5l1.1-0.6l-0.6-0.5L47.8,102.5L47.8,102.5z"/>
	<path class="st0" d="M75.3,103.2h0.7c0.4,0.6,0.8,1,1.6,1.3c-0.4-1.3-0.9-0.1-1.3-1.4l-1.1-0.4V103.2L75.3,103.2z"/>
	<path class="st0" d="M122.9,100.7l0.4,0.6l-0.2,0.3l0.3,0.4l-0.1,0.3l0.1,0.4c0.3-0.1,0.5,0,0.5-0.4c0-0.2-0.2-0.1-0.4-0.7l2.9,1.8
		l0.8-0.6l0.1,0.4l0.3-0.1l0.6-0.5c-0.2-0.7-0.5-0.9-1.4-0.9l-1.8-0.9l-0.6,0l-0.5-0.4L122.9,100.7L122.9,100.7z"/>
	<path class="st0" d="M59.3,103.4l0.3,0l1.1-1.4v-0.4C59.4,102.5,60,102,59.3,103.4L59.3,103.4z"/>
	<path class="st0" d="M83.3,103.6h0.5c0.3,0,0.5-0.1,0.5-0.4c0-0.2-0.2-0.4-0.4-0.4C83.4,102.9,83.4,103.2,83.3,103.6L83.3,103.6z"
		/>
	<polygon class="st0" points="131.5,103.9 131.9,103.9 131.9,103.6 131.5,103.6 131.5,103.9 	"/>
	<path class="st0" d="M61.7,103.9l0.4,0l1.3-1.8h-0.4c-0.4,0.6-0.4,0.2-0.8,0.7C62,103,61.8,103.7,61.7,103.9L61.7,103.9z"/>
	<path class="st0" d="M49.4,103.6v0.7l0.3,0L50,103C49.6,103.1,49.4,103.1,49.4,103.6L49.4,103.6z"/>
	<path class="st0" d="M128.4,103.2c0,0.7,0.1,0.1-0.2,0.5c0.3,0.2,0.7,0.5,1.1,0.5c0.3,0,0.1-0.4,0.7-0.4h0.7
		c-0.1-1.1-0.6-0.7-1.1-0.7c-0.4,0,0.1,0.1-0.3-0.1l-0.6,0.3v-0.7h-0.4V103.2L128.4,103.2z"/>
	<path class="st0" d="M115.3,104.3c0.4,0.5-0.1,0.3,0.7,0.3l-0.2-0.5L115.3,104.3L115.3,104.3z"/>
	<polygon class="st0" points="119.1,104.8 119.6,104.8 119.6,104.3 119.1,104.3 119.1,104.8 	"/>
	<path class="st0" d="M125.6,104.5l1.1,0.2c-0.1-0.4,0-0.5-0.5-0.5C125.8,104.1,125.6,104.2,125.6,104.5L125.6,104.5z"/>
	<polygon class="st0" points="54.1,104.1 53.6,104.1 53.4,105 53.7,105 53.7,104.5 54.1,104.5 54.1,104.1 	"/>
	<path class="st0" d="M56.6,106.8H57c0.7-1,2.1-2.3,2.3-3.4C58.2,104.2,57.3,105.5,56.6,106.8L56.6,106.8z"/>
	<path class="st0" d="M81.6,103.4h-0.5c0.1,1,0.4,0.5,0.4,0.9c0,0.2-0.2,0.1-0.4,0.7h0.4v0.4c0.6-0.4,0.3,0.1,0.2-0.9l0.3,0l0.3,0.7
		l0.2-0.1l-0.8-1.4V103.4L81.6,103.4z"/>
	<polygon class="st0" points="65.6,105.6 66,105.6 67.1,103.6 65.4,105.4 65.6,105.6 	"/>
	<polygon class="st0" points="122.5,105.4 123,105.4 123,104.8 122.5,104.8 122.5,105.4 	"/>
	<path class="st0" d="M56.6,103.6c-1.2,0.3,0.1,0.7-1.3,1.1l-0.2,0.9h0.4c0.1-0.6,0.7-1.3,1.1-1.6V103.6L56.6,103.6z"/>
	<path class="st0" d="M90.8,104.5c1.3,0,1.6-0.7,1.8-0.7c0,0,3.2,1.8,4.7,1.8c1.2,0,0.9-0.2,2.3,0c0.3,0,2.3,0.3,2.5,0.3
		c1.4-0.1,1.1-0.3,1.6,1c0.3,0.8,0.9,1.2,1,1.9c-0.5,0-1.6-0.5-1.6-0.5c-0.4,0-0.8,0.4-1.1,0.5c-1.4,0-2.9-0.2-3.2,0.9l-2.9-0.3
		c-0.2,0.1-0.2,0.2-0.5,0.2c-0.2,0-2.8-1.1-3.3-1.2c-1.6-0.5-2-0.4-3.6-1.1C89,106.5,90.7,105.2,90.8,104.5L90.8,104.5z M80.7,100.7
		h-0.5c-0.2-0.6-0.3-0.5-1.1-0.5l0.4-0.9c0.8,0,1-0.1,1.1-0.9c1,0,2.2,0.1,3.2,0.2c1.8,0.2,1.5-0.2,2.9-0.2c0.1,0,2.2,1.3,2.5,1.4
		c1.8,0,2.9,0.5,2.9,2.3l-0.6,0.9c-1,0.1-0.3,0.4-1,0.4c-0.4,0-0.9-0.7-2.5-0.7l-0.2,1.1c-1-0.1-0.8-0.8-1.3-1.5
		c-0.3-0.4-1.1-0.9-1.6-1.1c-0.7-0.4-1.6-0.4-2.4-0.5C81.6,100.4,81,100.1,80.7,100.7L80.7,100.7z M80.7,100.7
		c1.6,0.8,5.8,0.4,5.8,3.1c0,0.3-0.2,0.7-0.4,0.9c0.6,2.4,1.2,2.9,3.4,3.8c1.6,0.7,3.7,1.5,5.6,1.7c2.3,0.3,4.1,0.4,6.4,0.8
		c1,0.2,2.1,0.2,3.2,0.4c0.8,0.2,2.8,1,2.8,1c0.5,0,0.6-0.3,0.7-0.7c-2.1-0.6-4.3-6.4-5.2-7c-3.5,0-9.1-0.2-10.4-2.2
		c0-2.9-0.9-2.8-3-3.7c-1.1-0.4-4.1-1.4-5.5-1.4h-1.8c-0.9,0-3.6,0.5-4.1,1.1l0.1,0.7l0.6-0.2l-0.2,0.9h-0.4v-0.4h-0.5v0.4h-0.5
		c0.5,0.7,1.9,1.3,3.1,1.3C80.7,101.2,80.7,101,80.7,100.7L80.7,100.7z"/>
	<path class="st0" d="M170.6,106.3c0,0.1-1.1,3-1.4,3.6c-0.5,0.8-0.5,0.9-0.9,1.6c-0.2,0.3-1.1,1.6-0.4,1.6c0.5,0,0.7-0.2,1.1-0.4
		c0-0.8,0.9-1.9,1.2-3c0.2-0.8,0.5-0.9,0.6-1.4c0.2-1,0-0.9,0.4-1.8l-0.2-0.5c0.7-1.4,0.1-2.2,0.4-3.2l-0.4,0L170.6,106.3
		L170.6,106.3z"/>
	<path class="st0" d="M154.7,105.6l0.4,0.5c1.4-0.3,1.8-1.3,2.6-2.3c0.8-1,1.7-1.9,2.3-2.7c0.8-1.1,1.3-1.6,2.3-2.6
		c0.7-0.7,2.3-1.6,2.4-2.7C162.3,96.4,155.8,103.4,154.7,105.6L154.7,105.6z"/>
	<polygon class="st0" points="51.7,106.4 52.3,106.5 52.2,105.8 51.7,106.4 	"/>
	<path class="st0" d="M128.3,105.9l-2.7-0.4c0.3,1.1,4.9,1.1,5.6,0.7l0.7,0.6c0.9-0.4,2.3-0.5,2.5-1.4c-0.8,0.2-2,0.6-3,0.4
		C129.9,105.5,129.7,105.6,128.3,105.9L128.3,105.9z"/>
	<path class="st0" d="M107.4,103.6c0.4-0.2,0.5-0.5,0.9-0.5h0.5c0.4,0,0.5,0.1,0.7,0.2c0.3-0.1,0.3-0.2,0.7-0.2h2.3
		c-0.2,0.7-1.4,1.9-2,2.3c-1-0.2-1.1-0.5-2.3-0.7c-0.8-0.1-1.7-0.5-1.8-1.3L107.4,103.6L107.4,103.6z M104.7,103.4
		c0.7,1.1,5.5,3.4,7.2,2.3l0.9-1.7h0.7v0.7c0,0.9,0.2,1.3,0.4,2c0.9-0.1,2.1-0.8,2.5-0.8l1.8,0.2c0.1,0.1,1.8,1.1,1.8,1.1
		c1.2,0,3.5-0.1,3.8-1L123,106l-2.9,0.2l-1.3-0.3c-0.4-0.6-1.5-0.7-2.5-0.7l-0.5,0.3l-1.6,0.2v-1.1c0-0.6-0.4-0.4-0.4-0.7
		c0-0.5,0.4-0.7,0.7-0.8l2.5-0.2l1.1,0.5c0.2-0.7,0.7,0,1.4-0.4c0.2,0.5-0.3,0.4,0.5,0.2c0.2,0.7,0.8,0.9,1.4,1.1
		c-0.1-0.7-0.3-1.1-0.8-1.3l-0.1-1l1.1-0.1h0.7v-0.4l0.4,0l-0.2-1.1c-0.2,0.1-0.2,0.2-0.5,0.2h-0.5v0.4h-0.4v-0.9
		c-2.1,0-4.4,2.2-6.7,2.2l-0.4,0l-2.2-0.2c-0.3-0.2-0.3-0.4-0.7-0.4H111c-2.4,0-3.5,0.7-5.6,0.9l0.1-0.5l0-1.1l0.1,0.1l1.4-2.4
		l0.2-1.1c-0.1-0.2-0.2-0.2-0.2-0.5c0-0.1,0.5-1.2,0.7-1.5c0.4-0.7,0.5-1.2,0.7-1.6c0.2-0.3,2.2-2.4,2.2-2.5c0-0.3-0.1-0.5-0.4-0.5
		c-1.1,0-3.2,4.2-3.6,5.4C105.9,98.4,104.7,100.7,104.7,103.4L104.7,103.4z"/>
	<path class="st0" d="M21.3,114.4l0.5-0.2l0.2,0.6l-1.4-0.4l-0.5,0.1l-0.4-0.1V114c0.6-0.2,0.7-0.2,0.7-0.9l1.1,0.2L21.3,114.4
		L21.3,114.4z M25.6,113.1l0,0.6l-0.6-0.2L25.6,113.1L25.6,113.1z M34.1,107c-1-0.1-6.5,0-8.1,0.2c-0.6,0.1-2.1,0.7-3.4,0.9
		c-0.9,0.2-3.2,0.1-3.5,1l-0.5-0.2c-0.2,0.6,0.3,0.3-0.7,0.2v0.5c-0.5-0.1-0.3-0.2-0.7-0.2c-0.1,0-1.9,0.7-2.1,1.2l2.1-0.8l0.7,0.1
		l2.7-1l0.1,0.2l0.3-0.4l0.8,0.2l0.5-0.4c0.9,0,1.5,0.1,1.8-0.5h1.1c0.8,0,1.2-0.6,1.6-0.6l1.6,0.2c-0.2,0.9-0.7,0.7-1.4,1.1
		l0.2,0.5h-0.5c-0.4,0-0.4,0.1-0.7,0.4h-0.5c-0.2,0.2-1.6,1.4-1.6,1.4c-0.2,0-0.1-0.2-0.7-0.4c0.1,0.2,0.5,0.6,0.5,0.7
		c0,0.3-0.4,0.1-0.4,0.7v1.3l-0.3,0l-0.2-0.5l0.2-0.5h-0.4v-0.5c0-0.6,0.6-0.5-0.4-0.7c0,1-0.2,1.6-1.3,1.6h-0.7l0,0.3l-0.9,0.3
		l-0.6,0.9l-0.3,0.3c-0.5-0.1-0.3-0.2-0.7-0.2c-0.4,0-0.4,0.5-0.4,0.8l-0.9,0.4l-0.7-0.4v0.7l-0.8,0l-0.6,1l0.2,0.9
		c-1.1,0.6-1.8,0.6-2.4,1.7c-0.3,0.5-1.6,1.6-2.1,2.2c-0.7,0.8-3.9,3.6-5,3.6H4.6c-0.4,0-0.5-0.1-0.5-0.5v-1.8c0-0.9,2-1.2,2-2.7
		l0-0.7l0.7-0.7l0.6-1v-0.9c0.2-0.3,2.1-1.9,2.6-2.3c2-1.7,1-0.7,2.1-2.9l-2.2,1.3c0,0.6-1.1,1.4-1.5,1.5L8,115.6
		c-0.8,0-3,1.5-3.7,1.9c-1.2,0.8-2.7,0.9-3.3,2.2l0.7,2.5c0.5,0.4,1.6,3.9,1.8,4.7c1.8-0.2,3.4-1.5,4.5-2.5c0.7-0.6,1.2-1,2.2-1.4
		c1.1-0.5,0.9-1.4,2-1.6l1.7-1.9c1,0,1.3-0.8,2.2-1.3c0.5-0.3,1.7-0.9,2.3-1.1c0.7-0.2,2-0.9,2.4-1c1.2-0.4,1.8,0.1,2.5-1H24
		c0.6-0.4,1.6-1,2.3-1.3c1.1-0.6,1.9-0.2,2.2-1.5l-2.8,0.4l0.5-0.5l0.4-1.1L27,110l1.6-0.8c0.3,0.1,0.3,0.2,0.7,0.2h0.4
		c1,0,0.7-1.3,0.9-1.6c0.1,0.1,0.4,0.4,0.5,0.4c1,0,0.9-0.5,1.4-0.5H33c0,1.9-3.3,2.9-3.5,4l-0.5,0.6c1-0.1,4-2.8,4.7-3.6
		c1.1-1.1,5.4-2.2,5.4-2.9c0-0.7-0.6-0.6-1.1-0.7v0.4h0.4l-0.1,0.2l-2.1,0.9l-0.5-0.6c0.5-1,2.5-4.9,2.5-5.9c-0.9,1-1.2,2.4-1.9,3.7
		C35.9,104.7,34.4,105.7,34.1,107L34.1,107z"/>
	<path class="st0" d="M68.3,108.6c-0.7,0-0.3,0.1-1.1,0.2c0.2,0.7-0.2,0.2,0.7,0.4l1.3-0.7C68.8,108.5,68.8,108.6,68.3,108.6
		L68.3,108.6z"/>
	<path class="st0" d="M174,102.5l-0.7,1.9l-1.1,4.7l0.5,0.2c0.9-0.6,0.8-0.7,1.2-1.9c0.1-0.2,0.6-2.4,0.6-2.5c0-0.5-0.1-0.5-0.2-0.9
		l0.4-1.1l-0.2-0.5l0.3-1.8c-0.1-0.6-0.2-3.8-0.7-3.8c-0.6,0,0,1.7,0,2.5C174.2,100.5,174,101.2,174,102.5L174,102.5z"/>
	<path class="st0" d="M51.6,108.8l0.2-1.8c-1.1,0.3-0.2,1.3-1.3,0.9l0.2,0.5l-0.2,0.7l-0.4-0.2l0,0.5l1.3-0.1l-0.2,0.7
		c0.4-0.1,0.5,0,0.5-0.5V109c0.9-0.2,2.3-1.4,2.4-2.2l0.4-0.6C52,107.4,53.5,107.8,51.6,108.8L51.6,108.8z"/>
	<path class="st0" d="M154.2,109.3c0,0.4,0.2,1.3,0.5,1.3c0.1,0,3.2-4.1,3.6-4.5c0.8-1,3.6-3.5,3.8-4.5c-1.2,0.1-3.2,2.9-4,3.7
		C157.7,105.9,154.2,109.1,154.2,109.3L154.2,109.3z"/>
	<path class="st0" d="M73.7,104.5l-0.9,0.6l0.1,0.1h-0.9c-0.4,1.1-2,0.5-2.1,1.9l1-0.8c0.4,0.1,0.5,0.2,1.1,0.2h0.5
		c0.5,0,1.1-0.7,1.3-1.1h0.4c0,1.6-1.4,3.1-2.6,3.4l-0.8-1.2l-0.2,0.1c0.1,1.1,0.4,0.4,0.4,1.1v0.5c-1.5,0.4-3.6,2.2-3.6,4.1v0.2
		c0,2.4,4.2,2.9,5.8,3.6l0.5-0.2l0-0.5l-2.5-1c-1.1,0-1.4,0.1-2-0.5c-0.2-0.2-1-1.2-1-1.5v-0.4c0-1,0.3-1.4,0.9-1.8
		c-0.2-1.1,0.2-0.5,1.2-1.1c0.6-0.4,1.2-0.7,1.6-1.1c0.6-0.5,1-0.5,1.6-1.1c0.8-0.7,0.6-1.4,1.2-1.6l0.4-1.2l-0.1-1.1l-0.5,0.2
		c-0.8-0.7-0.5-1.5-1.3-2.1c-0.8-0.7-1.1-1.2-1.9-1.7C71.6,102.2,73.7,102.4,73.7,104.5L73.7,104.5z"/>
	<path class="st0" d="M82.8,108.7l0.4,2.4l-0.1,0.2l-3.4-0.6l0-0.4c0.5-0.1,1.3-0.5,1.4-0.5l0.8-0.1L82.8,108.7L82.8,108.7z
		 M80,105.4c-0.7,1.4-0.1,1.8-1.2,3.3c-0.7,0.8-1.9,1.2-2.2,2.3l0.7,0.2l0.7-0.3l5.8,0.8l-0.7-5l-0.9-0.2l-0.8,0.2l0.2-1.1l-0.5,0.2
		c-1-1-0.8-1.7-1.5-2.8c-0.2-0.3-1.9-1.9-2.3-2c0.2,0.9,1.1,1.3,1.7,1.9C80.2,104,79.5,104.2,80,105.4L80,105.4z"/>
	<path class="st0" d="M162.8,114.7c0,0.2,0.2,0.4,0.4,0.4c0.6,0,1.6-1.4,1.6-2.2h0.5V112c0.6-0.2,1.6-2.2,1.6-3.1l0.3-0.5l0.4-1.6
		c-1.5,0.1-1.7,2.6-2.4,3.9C164.9,111.2,162.8,114.7,162.8,114.7L162.8,114.7z"/>
	<path class="st0" d="M69.2,112.9c0.9,1.2,2.9,0.9,4,1.4V114h0.5c0.1-1.2,0.5-0.1,0.5-1.1v-0.5h-0.7c-0.4,0-0.5,0.1-0.7,0.2
		c-0.3-0.2-0.3-0.4-0.7-0.4C71.4,112.2,71.2,112.9,69.2,112.9L69.2,112.9z"/>
	<path class="st0" d="M82.5,116.4l0.1-1.6l4.6,2.1c-0.6,0.1-2.5,0.7-3.1,0.7H84C83.6,117.6,82.5,116.9,82.5,116.4L82.5,116.4z
		 M77.3,113.5c-1.3,0-1.4-0.5-1.6-0.5c-0.3,0-0.6,0.2-1.1,0.4v0.4c0.8,0.2,1.1,0.7,2.3,1c1.3,0.3,1.4-0.6,2.2-0.6
		c0.5,0,1.6,0.4,2,0.5l-1,1l0.2,1.2l0.3,0l0.2,1.8c-0.2,0-5.6-2.5-5.6-1.3c0,0.6,1.3,0.3,1.9,0.4c0.6,0.1,1,0.4,1.5,0.7
		c0.4,0.2,2.6,1.6,2.9,1.6c0.3,0,2.5-1.7,3.5-1.9c1.5-0.4,2.9-0.3,4.3-1c-0.6-0.8-4.3-2.7-5.8-2.7c-1-0.6-2.2-0.9-3.8-0.9
		C78.9,113.5,78.1,113.5,77.3,113.5L77.3,113.5z"/>
	<path class="st0" d="M52.5,118.8c0.2,0.5-0.1,0.9-1,1c0-1.1,0.7-1.4,1.7-1.5L52.5,118.8L52.5,118.8z M62.7,111c0.2-0.6,2-1.5,2-0.7
		c0,0.2-0.5,0.7-0.9,0.7H62.7L62.7,111z M61.7,103.9c-1.1,0.7-1,1.8-2.3,1.8l0.1,0.2l-2.1,0.9l0.1,0.2l0.4,1.3
		c-1.1,0.3-3,2.6-3.5,3.6c-0.7,1.4-0.3,1.1-1.4,2.2c-0.6,0.6-1,1.9-1.5,1.9h-0.2c-0.3,0-0.5-0.1-0.5-0.4c0-0.5,2.5-4.2,2.9-4.5
		c0.9-0.9,1.1-1.7,1.6-2.2c0.7-0.7,1.2-1,1.5-2.1c-0.7,0.5-4.7,5.2-4.9,5.9H51l-0.5-1.1l0.7-0.8c-0.2-0.4-0.1,0.1-0.1-0.3
		c0,0,0.2-0.4,0.2-0.4c-0.7,0.1-1.3,0.9-1.3,1.4c0,0.3,1,1.4,1.3,1.8c-0.4,0.8-1.1,1.1-1.1,2v0.2c0,0.8,1.3,0.6,1.3,1.3
		c0,0-1.4,2-1.4,2.2c0,0.8,1.1,1.8,2,1.8h0.4c0.5,0,2.4-4.2,3.4-4.7c0.2,0.1,1.8,1.1,1.8,1.1c0.5,0,1.5-2,1.7-2.6
		c0.8-1.6,0.4-1.5,2-2.3c1-0.5,2-0.7,3.2-1.1c1.4-0.6,1.4-1.1,2.6-1.7l-0.5-0.4l0.1-0.3l-2.1,0.1l-1.1,0.5l0.2-1.3
		c0.4-0.3,1.7-1.5,1.8-2.2c-1.4,0.3-3.2,2.9-3.9,4.2c-0.7,1.4-0.8,1.2-1.8,2.2c-1.1,1-0.2,2-1.9,2l-1.2,1.7
		c-0.2-0.1-0.6-0.3-0.6-0.8c0-0.3,0.4-0.5,0.7-0.5l-0.2-0.5c0.9-0.6,3.4-4.5,4.4-5.7c0.4-0.5,0.7-1,1-1.5c0.5-0.8,0.6-0.7,1.2-1.3
		c0.2-0.2,0.9-1.1,1.1-1.4c0.4-0.5,0.7-0.9,0.9-1.6c-0.2,0.2-2.9,2.8-3.3,3.2c-0.6,0.6-0.8,1.2-1.4,1.8c-1.3,1.3-0.5,0.5-1.3,2
		c-0.2,0.3-2.7,3.2-3,3.5c-0.9,0.7-1.8,4.1-2.3,4.1c-0.2,0-0.4-0.2-0.4-0.4c0-0.5,0.8-1.3-0.2-1.3h-0.5v-1.1h0.7
		c0.2-0.9,1.5-1.7,2-2.5c0.3-0.5,0.5-1.1,0.9-1.4c0.6-0.6,0.8-0.1,0.9-1.3h0.5v-0.7c0.8-0.3,1.4-1.7,1.9-2.4
		C60.5,105.5,61.3,105.6,61.7,103.9L61.7,103.9z"/>
</g>
</svg>
