<?xml version="1.0" encoding="utf-8"?>
<!-- Generator: Adobe Illustrator 17.0.0, SVG Export Plug-In . SVG Version: 6.00 Build 0)  -->
<!DOCTYPE svg PUBLIC "-//W3C//DTD SVG 1.1//EN" "http://www.w3.org/Graphics/SVG/1.1/DTD/svg11.dtd">
<svg version="1.1" id="Layer_1" xmlns="http://www.w3.org/2000/svg" xmlns:xlink="http://www.w3.org/1999/xlink" x="0px" y="0px"
	 width="584px" height="198px" viewBox="0 0 584 198" enable-background="new 0 0 584 198" xml:space="preserve">
<g>
	<path d="M237.796,105.032c-5.571,1.497-11.19,2.813-16.785,4.221c-3.463,0.871-6.936,1.719-10.36,2.729
		c-6.382,1.882-12.73,3.878-19.095,5.82c-2.469,0.753-4.924,1.567-7.422,2.212c-6.566,1.693-13.166,3.257-19.726,4.973
		c-4.52,1.183-8.986,2.568-13.492,3.802c-3.933,1.078-7.907,2.008-11.829,3.121c-3.549,1.007-7.017,2.309-10.583,3.241
		c-6.423,1.679-12.942,3.007-19.33,4.802c-6.285,1.766-12.425,4.045-18.689,5.891c-7.683,2.264-15.432,4.305-23.148,6.454
		c-2.85,0.794-5.689,1.628-8.537,2.429c-4.51,1.268-9.006,2.589-13.539,3.764c-4.151,1.076-8.345,1.99-13.173,3.13
		c0.088-2.86-0.458-5.357,0.32-7.334c10.196-25.914,20.559-51.762,30.97-77.591c0.58-1.44,0.415-2.997,1.522-4.404
		c-0.516-0.525,0.232-0.889-0.851-1.991c3.557-0.382,5.041,1.437,6.257,3.756c3.598,6.861,7.258,13.689,10.842,20.557
		c6.702,12.844,13.394,25.693,20.022,38.576c1.112,2.162,2.504,3.489,5.008,2.693c4.617-1.469,7.281-1.478,11.908-2.915
		c0.909-0.282-0.678,0.99,6.145-0.959c0.023-3.545,0.511-4.414,0.373-7.481c-0.878-19.553,0.044-39.167-2.791-58.666
		c-1.161-7.982-0.584-16.214-0.883-24.329c-0.058-1.584-0.509-3.153-0.737-4.483c-2.188,0.443-3.592,0.93-5.011,0.978
		c-4.361,0.146-8.729,0.12-13.093,0.166c-2.408,0.026-3.731,0.996-3.51,3.658c0.813,9.818,1.586,19.64,2.306,29.466
		c0.227,3.091,1.224,6.407-1.207,8.527c-1.777-2.63-3.701-5.007-5.119-7.655C86.717,57.545,79.005,42.83,71.237,28.144
		c-2.344-4.432-4.726-8.844-7.22-13.507c-1.449,3.38-2.724,6.172-3.856,9.02c-10.892,27.396-21.787,54.79-32.627,82.207
		c-7.854,19.865-15.609,39.77-23.454,59.639c-1.038,2.629-0.823,4.778,1.343,6.767c4.233,3.888,8.221,8.061,12.639,11.719
		c1.33,1.101,3.857,1.485,5.644,1.157c4.03-0.739,7.936-2.146,11.901-3.25c11.165-3.109,22.337-6.195,33.502-9.302
		c14.644-4.076,29.273-8.209,43.932-12.232c11.786-3.234,23.634-6.244,35.406-9.527c14.049-3.919,28.04-8.046,42.069-12.039
		c10.076-2.868,20.114-5.9,30.285-8.382c4.204-1.026,6.448-1.414,13.323-2.601c3.28-8.309,6.546-16.67,9.562-24.312"/>
	<path d="M510.51,120.114c-7.73-14.846-15.347-29.751-23.027-44.624c-2.326-4.505-4.737-8.966-7.177-13.577
		c-1.379,0.947-2.501,1.045-3.473,1.253c-3.692,0.788-7.118,2.235-10.851,2.814c-5.097,0.79-6.399,1.769-6.399,1.769
		c8.901,17.483,20.185,40.309,29.113,57.778c9.095,17.797,18.251,35.563,27.421,53.322c0.572,1.108,1.502,2.031,2.854,3.817
		c2.987-7.475,5.536-14.091,8.265-20.631c5.002-11.988,10.185-23.901,15.157-35.901c6.645-16.04,13.115-32.151,19.742-48.198
		c6.435-15.582,12.935-31.138,19.506-46.664c1.084-2.561,0.766-4.439-1.211-6.373c-3.929-3.843-7.671-7.879-11.591-11.731
		c-0.686-0.674-1.989-1.357-2.803-1.166c-9.099,2.136-18.214,4.245-27.212,6.762c-8.661,2.422-17.158,5.42-25.788,7.961
		c-6.04,1.779-12.226,3.067-18.267,4.845c-8.636,2.542-17.162,5.457-25.803,7.978c-8.649,2.523-17.384,4.75-26.078,7.119
		c-3.102,0.845-6.219,1.65-9.287,2.607c-5.771,1.8-11.456,3.901-17.279,5.507c-9.145,2.522-18.411,4.605-27.558,7.119
		c-9.168,2.519-18.245,5.364-27.376,8.017c-9.961,2.894-19.936,5.738-29.909,8.591c-2.957,0.846-5.909,1.718-8.894,2.455
		c-3.832,0.946-7.712,1.704-11.54,2.666c-2.843,0.715-5.641,1.611-8.451,2.453c-4.014,1.203-7.966,2.673-12.044,3.59
		c-5.747,1.292-11.882,3.079-11.882,3.079c-0.881,4.22-3.833,14.667-5.078,18.913c-0.26,0.887-0.792,1.846-1.088,3.337
		c1.785-0.294,3.519-0.402,4.772-0.758c4.188-1.19,8.336-2.525,12.524-3.714c11.512-3.267,23.044-6.466,34.555-9.734
		c14.034-3.984,28.045-8.05,42.087-12.005c8.886-2.503,17.826-4.815,26.715-7.309c11.762-3.3,23.497-6.7,35.247-10.044
		c8.519-2.424,17.057-4.783,25.563-7.251c11.261-3.267,22.488-6.651,33.749-9.915c14.256-4.132,28.53-8.198,42.799-12.284
		c6.355-1.82,12.691-3.716,19.086-5.384c3.268-0.853,4.476,0.517,3.703,3.792c-0.2,0.847-0.515,1.674-0.849,2.48
		c-11.069,26.652-22.106,53.317-33.299,79.917c-0.904,2.149-2.886,3.844-4.368,5.75c-0.372-0.343-0.745-0.685-1.117-1.028"/>
	<path d="M287.018,61.066c3.741-0.673,5.145,1.443,6.317,3.681c2.378,4.536,4.598,9.155,6.949,13.706
		c1.057,2.045,1.966,4.423,1.966,4.423c4.597-1.823,12.773-3.896,17.5-5.375c0.174-0.055,0.801-0.231,1-0.208
		c0.968-0.146,1.657-0.521,2.625-0.667c-0.404-1.896-1.316-4.962-2.166-6.633c-10.814-21.273-21.827-42.444-32.802-63.634
		c-0.395-0.762-1.042-1.394-1.94-2.571c-0.55,2.297-0.715,3.941-1.329,5.395c-3.006,7.108-6.139,14.164-9.215,21.242
		c-4.952,11.394-7.509,23.881-15.485,33.898c-0.294,0.369-0.382,0.903-0.559,1.363c-1.628,4.226-3.266,8.448-4.878,12.679
		c-1.531,4.019-3.224,7.99-4.497,12.09c-1.21,3.898-1.752,7.794-3,11.884c-6.673,21.866-17.055,42.424-25.41,63.704
		c-0.755,1.922-0.6,4.77,0.276,6.658c2.778,5.988,6.029,11.763,9.264,17.527c0.686,1.223,2.076,2.051,3.574,3.47"/>
	<path d="M181.946,63.354c-9.526,0.25-18.945,0.563-28.366,0.646c-0.95,0.008-1.913-1.373-2.869-2.109
		c0.948-0.737,1.858-2.052,2.851-2.119c8.311-0.561,16.639-0.848,24.957-1.314c2.143-0.12,6.476,0.498,6.49-0.007
		c0.18-6.706,0.447-12.662,0.535-19.37c0.018-1.337-0.664-2.683-0.986-3.887c-1.821,0.536-3.078,1.207-4.35,1.235
		c-16.227,0.35-32.456,0.629-48.685,0.868c-3.037,0.045-4.102,1.303-3.977,4.398c0.913,22.587,1.613,45.183,2.55,67.768
		c0.256,6.155,1.092,12.286,1.702,18.861c18.611-5.111,36.556-10.039,54.501-14.967l1.756-0.151
		c2.781-6.855,0.357-12.112,0.513-19.024c0.021-0.918-0.817-1.856-1.122-2.5c-11.16,3.146-21.775,6.139-33.03,9.312
		c-0.381-4.874-0.707-9.045-1.041-13.321c11.01-0.848,21.297-1.847,31.607-2.284c2.43-0.103,3.015-0.972,2.879-2.649
		c-0.581-7.147,1.699-12.662-1.668-19.487"/>
	<path d="M246.393,89.548c3.354-8.48,6.806-16.924,10.416-25.297c0.536-1.242,1.712-3.376,2.608-4.584l-2.479-0.083
		c-9.708,1.042-19.587,0.72-29.995,2.154c2.057,3.521,3.824,6.455,5.502,9.44c2.74,4.873,1.724,6.643-3.717,7.859
		c-4.07,0.91-7.999,2.453-12.779,3.963c-0.22-9.272-0.423-17.849-0.633-26.698c2.694-0.258,4.781-0.518,6.876-0.648
		c11.451-0.712,22.905-1.386,34.357-2.086c4.376-0.267,7.177-0.137,7.207-0.21c3.587-8.713,4.976-11.83,8.887-21.329
		c-5.409,0.202-9.796,0.339-14.179,0.533c-20.831,0.922-41.66,1.892-62.493,2.771c-5.105,0.215-5.278,0.174-4.964,5.384
		c0.683,11.329,1.647,22.644,2.164,33.98c0.496,10.859,0.668,21.737,0.778,32.608c0.033,3.265,1.27,3.881,4.12,3.055
		c5.514-1.597,11.072-3.041,16.596-4.606c8.283-2.346,20.133-5.213,28.336-7.816"/>
	<path d="M411.096,104.023c-2.566,9.182-0.315,18.243-0.342,27.266c-0.027,9.237,0.487,18.475,0.733,27.713
		c0.019,0.701-0.217,1.41-0.339,2.141c-5.694,0.383-11.202,0.83-16.718,1.101c-5.024,0.247-5.016,0.118-5.352-4.722
		c-0.933-13.435-1.9-26.868-2.894-40.299c-0.343-4.628-1.82-5.681-6.346-4.423c-7.684,2.136-15.373,4.27-22.983,6.652
		c-2.775,0.869-4.132,0.04-5.3-2.383c-1.951-4.047-4.161-7.969-6.2-11.975c-1.224-2.405-1.27-3.889,2.157-4.716
		c6.333-1.528,12.468-3.861,18.743-5.658c6.389-1.829,12.876-3.312,19.265-5.139c6.153-1.76,12.23-3.785,18.351-5.659
		c2.939-0.899,5.879-1.814,8.861-2.547c3.454-0.849,6.963-1.475,10.431-2.27c0.675-0.155,1.245-0.721,1.913-0.961
		c1.162-0.417,2.503-1.205,3.496-0.912c0.643,0.19,1.041,2.003,1.138,3.124c0.524,6.055,0.921,12.12,1.346,17.983
		C424.015,98.06,418.007,102.8,411.096,104.023z"/>
	<path d="M454.369,69.53c0.343,1.035,0.987,2.134,1.04,3.26c0.773,16.448,1.354,32.906,2.221,49.348
		c0.57,10.825,1.539,21.629,2.293,32.445c0.119,1.705,0.047,3.424,0.063,5.106c-6.243,0.453-12.095,0.977-17.958,1.272
		c-5.485,0.276-5.559,0.171-5.747-5.513c-0.47-14.229-0.702-28.469-1.359-42.689c-0.483-10.458-1.586-20.886-2.218-31.339
		c-0.327-5.412,0.516-5.79,5.862-7.009C443.677,73.247,448.618,71.341,454.369,69.53z"/>
	<path d="M337.667,101.833c0.664,0.925,1.666,2.878,2.163,3.814c9.668,18.2,19.354,36.392,28.875,54.669
		c0.824,1.581,1.261,4.062,0.615,5.591c-3.102,7.343-6.638,14.502-10.333,22.395c-1.278-1.606-2.362-2.602-3.005-3.83
		c-12.176-23.248-27.969-53.35-40.065-76.639c-0.066-0.172,1.47-0.977,6.917-2c3.73-0.701,7.465-2.015,11.167-2.833
		C335.086,102.76,336.352,102.754,337.667,101.833z"/>
</g>
</svg>
